<svg width="41" height="38" viewBox="0 0 41 38" fill="none" xmlns="http://www.w3.org/2000/svg">
<path d="M38.786 16.1752C38.8804 16.7926 38.9444 17.4198 38.9763 18.0551L38.4769 18.0802C38.4923 18.3849 38.5 18.6915 38.5 19C38.5 19.3085 38.4923 19.6151 38.4769 19.9198L38.9763 19.9449C38.9444 20.5802 38.8804 21.2074 38.786 21.8248L38.2917 21.7492C38.1983 22.3596 38.0743 22.9603 37.9213 23.5497L38.4052 23.6754C38.246 24.2885 38.0562 24.8897 37.8375 25.4774L37.3689 25.303C37.1543 25.8796 36.9111 26.4429 36.6409 26.9913L37.0894 27.2123C36.8104 27.7786 36.5034 28.3294 36.1702 28.863L35.7461 28.5981C35.4209 29.1188 35.07 29.6227 34.6951 30.1081L35.0908 30.4137C34.7058 30.9123 34.2962 31.3917 33.8637 31.8504L33.4999 31.5074C33.0794 31.9534 32.6366 32.3793 32.1734 32.7834L32.502 33.1602C32.0282 33.5735 31.5335 33.9646 31.0197 34.3318L30.729 33.9249C30.231 34.2808 29.7145 34.6136 29.1811 34.9218L29.4312 35.3547C28.8878 35.6687 28.3274 35.9576 27.7517 36.22L27.5443 35.765C26.9884 36.0184 26.4178 36.2463 25.834 36.4472L25.9968 36.92C25.4047 37.1238 24.7995 37.3005 24.1828 37.4486L24.066 36.9624C23.4734 37.1048 22.8698 37.22 22.2566 37.3068L22.3266 37.8018C21.7084 37.8893 21.0807 37.9485 20.4451 37.9781L20.4219 37.4786C20.1164 37.4928 19.8091 37.5 19.5 37.5C19.1909 37.5 18.8836 37.4928 18.5781 37.4786L18.5549 37.9781C17.9193 37.9485 17.2916 37.8893 16.6734 37.8018L16.7434 37.3068C16.1302 37.22 15.5266 37.1048 14.934 36.9624L14.8172 37.4486C14.2005 37.3005 13.5953 37.1238 13.0032 36.92L13.166 36.4472C12.5822 36.2463 12.0116 36.0184 11.4557 35.765L11.2483 36.22C10.6726 35.9576 10.1122 35.6687 9.56875 35.3547L9.81888 34.9218C9.28554 34.6136 8.76901 34.2808 8.27096 33.9249L7.98027 34.3318C7.46645 33.9646 6.97177 33.5735 6.49796 33.1602L6.82664 32.7834C6.36337 32.3793 5.92063 31.9534 5.50009 31.5074L5.1363 31.8504C4.70383 31.3917 4.2942 30.9123 3.90917 30.4137L4.30489 30.1081C3.92999 29.6227 3.57909 29.1188 3.2539 28.5981L2.82981 28.863C2.4966 28.3294 2.1896 27.7786 1.91057 27.2123L2.35909 26.9913C2.08891 26.4429 1.8457 25.8796 1.63111 25.303L1.16251 25.4774C0.943801 24.8897 0.754002 24.2885 0.594791 23.6754L1.07874 23.5497C0.92568 22.9603 0.801673 22.3596 0.708291 21.7492L0.214041 21.8248C0.11959 21.2074 0.0556281 20.5802 0.0236936 19.9449L0.523063 19.9198C0.507749 19.6151 0.5 19.3085 0.5 19C0.5 18.6915 0.507749 18.3849 0.523063 18.0802L0.0236937 18.0551C0.0556282 17.4198 0.119591 16.7926 0.214041 16.1752L0.708291 16.2508C0.801674 15.6404 0.925681 15.0397 1.07874 14.4503L0.594792 14.3246C0.754003 13.7115 0.943802 13.1103 1.16251 12.5226L1.63112 12.697C1.8457 12.1204 2.08891 11.5571 2.35909 11.0087L1.91057 10.7877C2.1896 10.2214 2.4966 9.67056 2.82981 9.13703L3.2539 9.40189C3.57909 8.88119 3.92999 8.3773 4.30489 7.89189L3.90917 7.58626C4.2942 7.08774 4.70383 6.60829 5.1363 6.1496L5.50009 6.49261C5.92062 6.04658 6.36337 5.62068 6.82664 5.21656L6.49796 4.83977C6.97177 4.42646 7.46645 4.03539 7.98027 3.66824L8.27096 4.07506C8.76901 3.71918 9.28554 3.38637 9.81888 3.07823L9.56875 2.64529C10.1122 2.33134 10.6726 2.04236 11.2483 1.77999L11.4557 2.23497C12.0116 1.98162 12.5822 1.75371 13.166 1.5528L13.0032 1.08002C13.5953 0.87624 14.2005 0.699526 14.8172 0.551405L14.934 1.03758C15.5266 0.895244 16.1302 0.779981 16.7434 0.693225L16.6734 0.198156C17.2916 0.110684 17.9193 0.0514774 18.5549 0.0219231L18.5781 0.521384C18.8836 0.507183 19.1909 0.5 19.5 0.5C19.8091 0.5 20.1164 0.507183 20.4219 0.521384L20.4451 0.0219233C21.0807 0.0514776 21.7084 0.110685 22.3266 0.198156L22.2566 0.693226C22.8698 0.779981 23.4734 0.895245 24.066 1.03758L24.1828 0.551406C24.7995 0.699527 25.4047 0.87624 25.9968 1.08002L25.834 1.5528C26.4178 1.75371 26.9884 1.98162 27.5443 2.23497L27.7517 1.77999C28.3274 2.04236 28.8878 2.33134 29.4312 2.64529L29.1811 3.07823C29.7145 3.38637 30.231 3.71918 30.729 4.07506L31.0197 3.66824C31.5335 4.03538 32.0282 4.42646 32.502 4.83977L32.1734 5.21656C32.6366 5.62068 33.0794 6.04658 33.4999 6.4926L33.8637 6.1496C34.2962 6.60828 34.7058 7.08774 35.0908 7.58626L34.6951 7.89189C35.07 8.37729 35.4209 8.88119 35.7461 9.40188L36.1702 9.13702C36.5034 9.67056 36.8104 10.2214 37.0894 10.7877L36.6409 11.0087C36.9111 11.5571 37.1543 12.1204 37.3689 12.697L37.8375 12.5226C38.0562 13.1103 38.246 13.7115 38.4052 14.3246L37.9213 14.4503C38.0743 15.0397 38.1983 15.6404 38.2917 16.2508L38.786 16.1752Z" fill="white" stroke="#54B676" stroke-dasharray="2 2"/>
<path d="M11 19L19.2857 26L40 2" stroke="#54B676"/>
</svg>
