<svg width="89" height="89" viewBox="0 0 89 89" fill="none" xmlns="http://www.w3.org/2000/svg">
<g id="graphics" clip-path="url(#clip0_1_4967)">
<path id="Vector" d="M83.5301 89C83.2852 88.9399 83.0389 88.8883 82.7971 88.8191C81.9014 88.5621 81.1449 88.0794 80.4865 87.421C74.2586 81.1872 68.0254 74.9579 61.7967 68.7249C61.6903 68.6184 61.6158 68.4801 61.5215 68.3493C52.5564 75.1488 42.5679 77.602 31.607 75.7318C21.9963 74.0913 14.1778 69.2608 8.15297 61.6244C-3.75309 46.5332 -2.47877 24.9049 11.0567 11.2384C24.5359 -2.37113 46.3087 -3.82391 61.5032 7.99603C69.7612 14.4199 74.6372 22.9238 75.9861 33.3114C77.3349 43.6968 74.5855 53.0559 68.3584 61.5248C68.4831 61.6176 68.6192 61.6951 68.7256 61.8015C74.8874 67.9586 81.0423 74.1225 87.2116 80.2719C88.0982 81.156 88.7566 82.1367 88.9474 83.3941C88.9543 83.4413 88.9817 83.4854 88.9999 83.531V84.6705C88.9756 84.7397 88.9421 84.8074 88.9277 84.8788C88.5262 86.8098 87.3926 88.1037 85.5374 88.7628C85.2553 88.8632 84.9587 88.9225 84.6691 89.0008H83.5293L83.5301 89ZM38.161 6.1312C21.1569 6.09927 6.15633 19.8494 6.11908 38.0697C6.08334 55.7152 20.4171 70.1024 38.107 70.1328C55.7034 70.1625 70.0646 55.8277 70.0973 38.1997C70.13 20.5283 55.8243 6.16313 38.161 6.1312Z" fill="white"/>
<path id="Vector_2" d="M26.2493 22.454C29.1485 22.454 32.0469 22.454 34.946 22.454C36.2013 22.454 36.9495 23.2036 36.9495 24.4655C36.951 29.5917 36.951 34.7186 36.9495 39.8448C36.9495 41.1228 36.2013 41.8731 34.9194 41.8739C29.1219 41.8761 23.3236 41.8761 17.526 41.8739C16.2882 41.8739 15.5264 41.0962 15.5264 39.8494C15.5264 34.7232 15.5264 29.5963 15.5264 24.4701C15.5264 23.1777 16.2548 22.454 17.5527 22.454C20.4518 22.454 23.3502 22.454 26.2493 22.454ZM33.2756 38.2058V26.0346H19.1927V38.2058H33.2756Z" fill="white"/>
<path id="Vector_3" d="M38.098 48.8898C44.9981 48.8898 51.8988 48.8898 58.7989 48.8898C59.6147 48.8898 60.2465 49.3255 60.5256 50.0705C60.7947 50.7904 60.6305 51.5993 60.0162 52.0607C59.7006 52.2987 59.2687 52.3831 58.8878 52.5321C58.8437 52.5496 58.7875 52.5359 58.7365 52.5359C44.9737 52.5359 31.2109 52.5359 17.4482 52.5359C16.5403 52.5359 15.8507 52.0486 15.6013 51.2427C15.2538 50.1191 16.0689 48.9522 17.2444 48.8929C17.3835 48.886 17.5227 48.8898 17.6618 48.8898C24.4736 48.8898 31.2855 48.8898 38.0973 48.8898H38.098Z" fill="white"/>
<path id="Vector_4" d="M51.4306 28.8345C48.9496 28.8345 46.4679 28.8375 43.9869 28.833C43.1757 28.8315 42.5012 28.348 42.242 27.6083C41.9911 26.8921 42.2055 26.1129 42.7955 25.6172C43.1376 25.3299 43.5345 25.1892 43.9831 25.1892C48.958 25.1892 53.9336 25.1862 58.9085 25.1923C59.9395 25.1938 60.7454 26.0194 60.7378 27.029C60.7302 28.0195 59.9266 28.8284 58.9123 28.8322C56.4184 28.8413 53.9245 28.8353 51.4306 28.8353V28.8345Z" fill="white"/>
<path id="Vector_5" d="M51.4078 39.9505C48.9648 39.9505 46.5219 39.9528 44.0797 39.949C43.1947 39.9475 42.5507 39.5248 42.2625 38.779C41.8557 37.723 42.5165 36.5439 43.6281 36.3478C43.7771 36.322 43.9299 36.306 44.0805 36.306C48.9785 36.3037 53.8774 36.3045 58.7754 36.3037C59.6316 36.3037 60.2178 36.7256 60.5645 37.4798C61.0633 38.5639 60.3098 39.8273 59.1153 39.9353C58.9518 39.9505 58.7868 39.9497 58.6226 39.9497C56.2177 39.9505 53.8127 39.9497 51.4078 39.9497V39.9505Z" fill="white"/>
</g>
<defs>
<clipPath id="clip0_1_4967">
<rect width="89" height="89" fill="white"/>
</clipPath>
</defs>
</svg>
