<svg xmlns="http://www.w3.org/2000/svg" fill="none" viewBox="41.04 36.36 98.28 101.88" style="max-height: 500px" width="98.28" height="101.88">
<g id="verified_science 1">
<path fill="#FE99C4" d="M104.184 42.4465C102.657 43.2001 101.794 44.6474 101.788 46.463C101.784 48.1564 102.641 49.5333 104.224 50.3749C105.205 50.896 107.108 50.8973 108.096 50.3772C111.389 48.6425 111.4 44.0259 108.115 42.4399C107.077 41.9393 105.205 41.9423 104.184 42.4465ZM94.0652 47.5204C92.486 47.9156 91.1072 48.9841 90.3883 50.3694C90.1073 50.9109 89.9827 51.5236 89.9257 52.6491C89.8519 54.1016 89.8791 54.2524 90.4045 55.3173C91.0005 56.5241 91.7723 57.278 93.0563 57.9077C94.2609 58.4983 96.5088 58.4561 97.7358 57.8201C99.0005 57.1648 100.199 55.7806 100.553 54.5665C101.562 51.1077 99.2731 47.7054 95.7548 47.4338C95.1897 47.3901 94.4294 47.4291 94.0652 47.5204ZM71.425 65.4015V69.2592H74.6786H77.9322V74.5037V79.7477L66.4755 98.0232C57.9197 111.671 54.91 116.611 54.5887 117.533C53.3632 121.046 54.2486 125.482 56.7382 128.302C57.7779 129.48 59.8212 130.837 61.3434 131.361L62.5437 131.775H89.8912H117.238L118.439 131.361C124.005 129.445 127.122 123.063 125.193 117.533C124.872 116.611 121.862 111.671 113.307 98.0232L101.85 79.7477V74.5037V69.2592H105.103H108.357V65.4015V61.5437H89.8912H71.425V65.4015ZM94.1128 75.7037L94.1133 82.1483L100.503 92.319L106.893 102.49L98.392 102.535C93.7167 102.56 86.0672 102.56 81.394 102.535L72.8974 102.49L79.2822 92.319L85.6675 82.1483L85.669 75.7037L85.6701 69.2592H89.8912H94.1118L94.1128 75.7037Z" clip-rule="evenodd" fill-rule="evenodd" id="Vector"/>
</g>
</svg>