<svg width="128.58240000000004" height="111.68905930175784" viewBox="30.552784063515638 35.620799999999996 128.58240000000004 111.68905930175784" fill="none" xmlns="http://www.w3.org/2000/svg">
<g id="verified_science 1">
<path id="Vector" fill-rule="evenodd" clip-rule="evenodd" d="M62.5412 68.4333C45.4262 74.4063 31.4229 79.3571 31.4229 79.4352C31.4229 79.5133 34.4026 80.5463 38.0447 81.7315C45.3853 84.1207 44.9156 84.0796 45.5908 82.3869C45.8518 81.7325 45.9657 81.6776 47.3296 81.5486C49.2822 81.3633 50.7886 81.3736 51.009 81.5738C51.1084 81.6638 50.2877 81.9401 49.1852 82.1877L47.181 82.6374L46.2205 84.7291C43.3674 90.9432 42.7879 92.2787 41.6479 95.2654C39.3635 101.25 37.9373 107.722 38.3515 110.226C38.5091 111.179 38.5991 111.284 39.5847 111.667C42.3088 112.726 46.2067 112.805 48.8493 111.856C50.2994 111.335 50.3011 111.333 50.4814 110.231C50.5805 109.623 51.0024 103.76 51.4187 97.2009C51.835 90.6418 52.1979 85.2535 52.2252 85.2268C52.359 85.0968 59.8179 83.6121 60.0648 83.6665C60.2465 83.7065 60.2819 83.8933 60.1622 84.1815C60.017 84.5319 59.214 84.8497 56.6125 85.5886C53.3616 86.5108 53.2717 86.5529 53.8972 86.8499C54.7841 87.271 93.1528 97.9739 93.7762 97.9739C94.051 97.9739 102.468 95.691 112.48 92.901C126.278 89.0557 133.766 86.8291 143.412 83.7035C150.412 81.4349 156.14 79.5148 156.14 79.4362C156.14 79.328 95.8103 58.1965 94.0248 57.6795C93.8241 57.6212 79.6564 62.4608 62.5412 68.4333ZM56.5658 100.9L56.6343 110.452L57.2942 111.729C62.5167 121.834 92.7524 126.613 114.766 120.814C122.372 118.809 128.274 115.426 130.208 111.963L130.928 110.673L130.996 101.011C131.037 95.3233 130.974 91.3485 130.844 91.3485C130.722 91.3485 122.429 93.6339 112.416 96.4279C102.402 99.2219 94.0167 101.507 93.7811 101.507C93.5461 101.507 85.1607 99.2219 75.1471 96.4279C65.1334 93.6339 56.8405 91.3485 56.7186 91.3485C56.5886 91.3485 56.5255 95.2768 56.5658 100.9Z" fill="#54B676"></path>
</g>
</svg>