<svg width="119.10824843750001" height="119.10824843750001" viewBox="53.34191074625001 54.83519999999999 119.10824843750001 119.10824843750001" fill="none" xmlns="http://www.w3.org/2000/svg">
<path fill-rule="evenodd" clip-rule="evenodd" d="M108.72 61.4653C106.979 64.9472 105.455 67.7959 105.333 67.7959C105.029 67.7959 92.9251 69.5532 92.1488 69.71C91.5499 69.8317 91.7431 70.0533 96.6451 74.8692L101.767 79.9015L100.564 86.7837C99.9018 90.5692 99.3929 93.6984 99.4326 93.7375C99.4723 93.7771 102.261 92.3544 105.63 90.5764C108.999 88.7978 111.869 87.3427 112.008 87.3427C112.147 87.3427 115.015 88.7958 118.382 90.5718C121.749 92.3471 124.533 93.7699 124.57 93.7328C124.608 93.6965 124.096 90.5692 123.434 86.7837L122.232 79.9015L127.364 74.8593C131.925 70.378 132.438 69.8033 131.971 69.6988C131.682 69.6339 128.549 69.1722 125.007 68.6715C121.466 68.1711 118.516 67.7273 118.451 67.6857C118.386 67.644 116.935 64.803 115.225 61.3723C113.515 57.9415 112.064 55.1348 112 55.1348C111.937 55.1348 110.46 57.9835 108.72 61.4653ZM72.7335 84.0871L69.586 90.3826L62.7337 91.3245C55.4466 92.3266 55.0415 92.3974 55.1473 92.6547C55.1846 92.7453 57.5871 94.9896 60.4861 97.6419C65.2935 102.041 65.7469 102.518 65.6436 103.067C65.0592 106.165 63.3611 116.327 63.418 116.385C63.4583 116.425 66.2525 115.005 69.6263 113.229C73.0009 111.453 75.8724 110 76.0088 110C76.1451 110 79.0113 111.453 82.3779 113.228C85.7452 115.004 88.5294 116.427 88.5665 116.39C88.6035 116.353 88.0926 113.226 87.4315 109.441L86.229 102.558L91.2593 97.6069C94.0588 94.8513 96.2003 92.576 96.0878 92.4761C95.9773 92.3782 93.5862 91.9767 90.7749 91.5845C87.9629 91.1922 84.9312 90.7636 84.0364 90.6327L82.4104 90.3945L79.2602 84.093C77.5276 80.6271 76.0584 77.7915 75.9949 77.7915C75.932 77.7915 74.4641 80.6244 72.7335 84.0871ZM144.736 84.097L141.584 90.4031L139.626 90.6776C133.227 91.5765 127.981 92.398 127.858 92.5211C127.78 92.5991 129.978 94.889 132.743 97.6102L137.769 102.558L136.567 109.441C135.906 113.226 135.397 116.355 135.437 116.394C135.476 116.434 138.265 115.011 141.634 113.233C145.003 111.455 147.873 110 148.012 110C148.151 110 151.019 111.453 154.386 113.228C157.753 115.004 160.541 116.424 160.58 116.384C160.637 116.327 158.939 106.165 158.356 103.072C158.254 102.53 158.726 102.033 163.514 97.6459C166.412 94.9902 168.814 92.7433 168.851 92.6534C168.959 92.3934 168.499 92.3121 161.264 91.3206L154.411 90.3807L151.265 84.0864C149.534 80.6238 148.066 77.7915 148.003 77.7915C147.94 77.7915 146.47 80.629 144.736 84.097ZM107.8 102.439C106.896 102.661 105.296 103.275 104.245 103.803C102.697 104.58 101.926 105.168 100.208 106.882C98.3823 108.702 97.9389 109.297 97.056 111.11C95.5769 114.148 95.254 115.746 95.3863 119.369C95.475 121.812 95.5955 122.613 96.0753 123.965C97.056 126.729 98.1176 128.381 100.308 130.551C102.606 132.827 104.86 134.128 107.777 134.859L109.443 135.277L108.554 135.426C99.2956 136.982 92.0932 143.332 89.397 152.315C88.8087 154.278 88.7961 154.445 88.714 161.589L88.6313 168.863H111.999H135.367L135.284 161.589C135.202 154.445 135.19 154.278 134.601 152.315C131.905 143.332 124.703 136.982 115.444 135.426L114.555 135.277L116.222 134.859C117.138 134.629 118.739 134.018 119.778 133.501C121.313 132.737 122.064 132.164 123.786 130.443C125.509 128.721 126.081 127.972 126.845 126.437C128.163 123.788 128.668 121.604 128.664 118.571C128.659 115.562 128.183 113.543 126.852 110.888C126.087 109.361 125.5 108.595 123.786 106.882C122.064 105.16 121.314 104.588 119.778 103.824C118.739 103.309 117.097 102.687 116.131 102.445C113.845 101.871 110.126 101.869 107.8 102.439ZM74.9949 122.415C70.4179 123.75 66.8534 127.39 65.676 131.93C65.2273 133.662 65.2273 136.982 65.676 138.713C66.6231 142.365 69.2259 145.584 72.5859 147.257C73.5833 147.753 74.8182 148.23 75.3297 148.317C76.4859 148.512 76.2695 148.722 74.5508 149.074C73.8169 149.224 72.2669 149.81 71.1055 150.374C69.2941 151.255 68.6925 151.702 66.8706 153.524C65.046 155.347 64.6019 155.944 63.7211 157.757C62.3114 160.659 61.9938 162.143 61.9938 165.823V168.863H71.9949H81.9961L82.0007 164.254C82.0073 158.339 82.2879 154.843 82.9669 152.203C83.2654 151.043 83.5778 149.924 83.6605 149.717C83.7869 149.404 83.587 149.295 82.4593 149.062C81.7155 148.908 81.1066 148.715 81.1066 148.633C81.1066 148.55 81.4322 148.419 81.8293 148.34C82.2264 148.261 82.957 148.043 83.4527 147.854C84.2449 147.553 84.4289 147.339 84.9801 146.074C85.8802 144.009 88.3586 140.389 90.3129 138.285L91.9972 136.472V134.874C91.9972 129.126 87.7941 123.83 82.0556 122.343C80.241 121.873 76.7301 121.909 74.9949 122.415ZM141.669 122.415C135.998 124.069 132.001 129.217 132.001 134.867V136.459L133.904 138.564C136.007 140.892 138.104 143.977 139.037 146.117C139.569 147.337 139.757 147.555 140.546 147.854C141.041 148.043 141.772 148.261 142.169 148.34C142.567 148.419 142.891 148.55 142.891 148.633C142.891 148.715 142.283 148.908 141.539 149.062C140.411 149.295 140.211 149.404 140.338 149.717C140.421 149.924 140.727 151.021 141.018 152.155C141.692 154.781 142.002 158.624 142.002 164.342V168.863H152.003H162.005L162.001 165.809C161.996 162.159 161.6 160.348 160.189 157.535C159.423 156.007 158.839 155.243 157.123 153.53C154.751 151.162 152.682 149.929 149.892 149.22C149.037 149.002 148.186 148.775 148.003 148.713C147.82 148.652 148.27 148.431 149.004 148.221C153.553 146.921 157.144 143.258 158.322 138.713C158.771 136.982 158.771 133.662 158.322 131.93C157.123 127.304 153.358 123.542 148.73 122.343C146.915 121.873 143.405 121.909 141.669 122.415Z" fill="#FFAC44"></path>
</svg>