<svg width="20" height="20" viewBox="0 0 20 20" fill="none" xmlns="http://www.w3.org/2000/svg">
<g clip-path="url(#clip0_2428_8068)">
<path fill-rule="evenodd" clip-rule="evenodd" d="M9.65037 1.3C5.03879 1.3 1.30037 5.03842 1.30037 9.65C1.30037 14.2616 5.03879 18 9.65037 18V19.3C4.32082 19.3 0.000366211 14.9795 0.000366211 9.65C0.000366211 4.32045 4.32082 0 9.65037 0V1.3Z" fill="white"/>
<path fill-rule="evenodd" clip-rule="evenodd" d="M18.0004 9.6499C18.0004 14.2615 14.262 17.9999 9.65042 17.9999V19.2999C14.98 19.2999 19.3004 14.9795 19.3004 9.6499H18.0004Z" fill="white"/>
<path fill-rule="evenodd" clip-rule="evenodd" d="M18.6535 2.06149L9.30951 13.4819L4.33472 10.7181L4.96605 9.58168L8.99125 11.8179L17.6473 1.23828L18.6535 2.06149Z" fill="white"/>
</g>
<defs>
<clipPath id="clip0_2428_8068">
<rect width="20" height="20" fill="white"/>
</clipPath>
</defs>
</svg>
