<svg width="21" height="22" viewBox="0 0 21 22" fill="none" xmlns="http://www.w3.org/2000/svg">
<path d="M17.7188 11.4987V10.4947L18.9788 9.39218C19.211 9.18746 19.3634 8.90723 19.4091 8.601C19.4547 8.29478 19.3906 7.98228 19.2281 7.71874L17.6794 5.09374C17.5643 4.89441 17.3988 4.72885 17.1996 4.61367C17.0003 4.49849 16.7742 4.43773 16.5441 4.43749C16.4014 4.4364 16.2596 4.45856 16.1241 4.50312L14.5294 5.04124C14.2541 4.85828 13.9669 4.69386 13.6697 4.54905L13.335 2.8953C13.275 2.59317 13.1106 2.32177 12.8707 2.12861C12.6307 1.93545 12.3305 1.83284 12.0225 1.83874H8.95126C8.64328 1.83284 8.34304 1.93545 8.10309 2.12861C7.86314 2.32177 7.69877 2.59317 7.63876 2.8953L7.30408 4.54905C7.00478 4.69382 6.7154 4.85825 6.43783 5.04124L4.87595 4.47687C4.73899 4.44118 4.59716 4.42789 4.45595 4.43749C4.22579 4.43773 3.99973 4.49849 3.80046 4.61367C3.6012 4.72885 3.43572 4.89441 3.32064 5.09374L1.77189 7.71874C1.61871 7.98189 1.56179 8.29011 1.61088 8.59061C1.65996 8.89111 1.812 9.1652 2.04095 9.36593L3.28126 10.5012V11.5053L2.04095 12.6078C1.80553 12.8099 1.64934 13.0889 1.60008 13.3953C1.55082 13.7016 1.61169 14.0155 1.77189 14.2812L3.32064 16.9062C3.43572 17.1056 3.6012 17.2711 3.80046 17.3863C3.99973 17.5015 4.22579 17.5623 4.45595 17.5625C4.59859 17.5636 4.74045 17.5414 4.87595 17.4969L6.47064 16.9587C6.74596 17.1417 7.03316 17.3061 7.33033 17.4509L7.66501 19.1047C7.72502 19.4068 7.88939 19.6782 8.12934 19.8714C8.36929 20.0645 8.66953 20.1671 8.97751 20.1612H12.075C12.383 20.1671 12.6832 20.0645 12.9232 19.8714C13.1631 19.6782 13.3275 19.4068 13.3875 19.1047L13.7222 17.4509C14.0215 17.3062 14.3109 17.1417 14.5884 16.9587L16.1766 17.4969C16.3121 17.5414 16.4539 17.5636 16.5966 17.5625C16.8267 17.5623 17.0528 17.5015 17.2521 17.3863C17.4513 17.2711 17.6168 17.1056 17.7319 16.9062L19.2281 14.2812C19.3813 14.0181 19.4382 13.7099 19.3891 13.4094C19.3401 13.1089 19.188 12.8348 18.9591 12.6341L17.7188 11.4987ZM16.5441 16.25L14.2931 15.4887C13.7662 15.9351 13.164 16.2839 12.5147 16.5191L12.0488 18.875H8.95126L8.48533 16.5453C7.84117 16.3035 7.2422 15.9552 6.71345 15.515L4.45595 16.25L2.9072 13.625L4.6922 12.05C4.57086 11.3707 4.57086 10.6752 4.6922 9.99593L2.9072 8.37499L4.45595 5.74999L6.70689 6.51124C7.23381 6.06492 7.83603 5.71603 8.48533 5.48093L8.95126 3.12499H12.0488L12.5147 5.45468C13.1589 5.69646 13.7578 6.04474 14.2866 6.48499L16.5441 5.74999L18.0928 8.37499L16.3078 9.94999C16.4292 10.6293 16.4292 11.3247 16.3078 12.0041L18.0928 13.625L16.5441 16.25Z" fill="#373737"/>
<path d="M10.5 14.9375C9.72124 14.9375 8.95996 14.7066 8.31244 14.2739C7.66492 13.8413 7.16025 13.2263 6.86223 12.5068C6.56421 11.7873 6.48623 10.9956 6.63816 10.2318C6.79009 9.46803 7.1651 8.76644 7.71577 8.21577C8.26644 7.6651 8.96803 7.29009 9.73183 7.13816C10.4956 6.98623 11.2873 7.06421 12.0068 7.36223C12.7263 7.66025 13.3413 8.16492 13.7739 8.81244C14.2066 9.45996 14.4375 10.2212 14.4375 11C14.4428 11.5185 14.3445 12.0329 14.1485 12.513C13.9525 12.9931 13.6627 13.4293 13.296 13.796C12.9293 14.1627 12.4931 14.4525 12.013 14.6485C11.5329 14.8445 11.0185 14.9428 10.5 14.9375ZM10.5 8.375C10.1531 8.36692 9.80811 8.42929 9.48597 8.55835C9.16384 8.68741 8.87123 8.88047 8.62585 9.12585C8.38047 9.37123 8.18741 9.66384 8.05835 9.98597C7.92929 10.3081 7.86692 10.6531 7.875 11C7.86692 11.3469 7.92929 11.6919 8.05835 12.014C8.18741 12.3362 8.38047 12.6288 8.62585 12.8742C8.87123 13.1195 9.16384 13.3126 9.48597 13.4417C9.80811 13.5707 10.1531 13.6331 10.5 13.625C10.8469 13.6331 11.1919 13.5707 11.514 13.4417C11.8362 13.3126 12.1288 13.1195 12.3742 12.8742C12.6195 12.6288 12.8126 12.3362 12.9417 12.014C13.0707 11.6919 13.1331 11.3469 13.125 11C13.1331 10.6531 13.0707 10.3081 12.9417 9.98597C12.8126 9.66384 12.6195 9.37123 12.3742 9.12585C12.1288 8.88047 11.8362 8.68741 11.514 8.55835C11.1919 8.42929 10.8469 8.36692 10.5 8.375Z" fill="#373737"/>
</svg>
