<svg width="19" height="22" viewBox="0 0 19 22" fill="none" xmlns="http://www.w3.org/2000/svg">
<g clip-path="url(#clip0_864_16606)">
<path d="M8.99821 0.5C9.30521 0.5 9.61155 0.5 9.91855 0.5C10.1467 0.596635 10.3873 0.670261 10.6002 0.792534C12.9339 2.13359 15.2637 3.48056 17.5928 4.83082C18.4428 5.3232 18.8583 6.07327 18.8583 7.0521C18.8596 9.68031 18.8583 12.3085 18.8589 14.9367C18.8589 15.9451 18.4191 16.6965 17.5474 17.2001C15.292 18.5017 13.0352 19.8013 10.7823 21.1082C9.87582 21.6341 8.98507 21.6308 8.07854 21.1036C5.81715 19.7902 3.54919 18.4885 1.28649 17.179C0.449648 16.6946 0.0111755 15.9583 0.00788856 14.9946C-0.00262952 12.3335 -0.00262952 9.67242 0.00788856 7.01135C0.0118328 6.04894 0.441759 5.31136 1.28123 4.82556C2.60717 4.0584 3.92719 3.28006 5.26298 2.53065C6.49886 1.83777 7.75248 1.17579 8.99821 0.5ZM16.7717 11.1173C16.7724 9.54555 15.574 8.38198 13.9549 8.38198C12.3765 8.38198 11.1728 9.56724 11.1735 11.1219C11.1735 12.6339 12.4002 13.8251 13.9621 13.831C15.5451 13.8369 16.7711 12.653 16.7717 11.1167V11.1173ZM8.2041 11.6814C8.49948 11.6586 8.71883 11.7526 8.86214 11.9634C9.21384 12.4788 9.56225 12.9968 9.92315 13.5056C9.98494 13.5924 10.0987 13.6923 10.1927 13.6976C10.5924 13.7186 10.9934 13.7068 11.4634 13.7068C10.8928 12.9021 10.3596 12.1507 9.8206 11.3908C10.4701 10.9806 10.7133 10.4153 10.568 9.70989C10.4405 9.09196 10.0237 8.65217 9.42157 8.58709C8.62745 8.50097 7.8169 8.56605 7.01293 8.56605V13.6851H8.2041V11.6814ZM2.84514 8.52332V13.6818H4.03171C4.03171 13.3301 4.03171 13.0034 4.03171 12.676C4.03171 12.3486 4.03171 12.0239 4.03171 11.6603C4.31701 11.6603 4.56682 11.6728 4.81465 11.6584C5.73498 11.6045 6.36607 11.0003 6.40814 10.1444C6.44824 9.32598 5.87566 8.60155 5.04539 8.53515C4.31964 8.4773 3.58601 8.52332 2.84514 8.52332Z" fill="white"/>
<path d="M12.46 11.0878C12.4633 10.1747 13.1121 9.49362 13.9785 9.49494C14.8502 9.49559 15.5076 10.201 15.4997 11.1259C15.4918 12.0114 14.7983 12.7246 13.9568 12.7122C13.1055 12.6997 12.4567 11.9956 12.46 11.0871V11.0878Z" fill="white"/>
<path d="M8.22314 9.51073C8.61954 9.51336 9.05473 9.37005 9.29993 9.78683C9.38934 9.93934 9.3821 10.2424 9.28613 10.3916C9.0383 10.7775 8.6156 10.6487 8.22314 10.6611V9.51073Z" fill="white"/>
<path d="M4.04681 10.6598V9.50546C4.43204 9.51598 4.8521 9.37464 5.09533 9.76907C5.18868 9.91961 5.19065 10.2181 5.10191 10.3719C4.86985 10.7742 4.44847 10.6552 4.04681 10.6592V10.6598Z" fill="white"/>
</g>
<defs>
<clipPath id="clip0_864_16606">
<rect width="18.8596" height="21" fill="white" transform="translate(0 0.5)"/>
</clipPath>
</defs>
</svg>