<svg width="17" height="22" viewBox="0 0 17 22" fill="none" xmlns="http://www.w3.org/2000/svg">
<path fill-rule="evenodd" clip-rule="evenodd" d="M11.6516 0.712944C11.3021 0.8854 11.1046 1.21657 11.1034 1.63204C11.1024 2.01954 11.2986 2.33462 11.6608 2.52718C11.8852 2.64644 12.3207 2.64672 12.5467 2.5277C13.3003 2.13077 13.3028 1.07436 12.551 0.711451C12.3136 0.596898 11.8853 0.597579 11.6516 0.712944ZM9.33614 1.87401C8.97478 1.96444 8.65928 2.20894 8.49476 2.52594C8.43046 2.64985 8.40196 2.79005 8.38891 3.04759C8.37203 3.37997 8.37826 3.41447 8.49847 3.65814C8.63485 3.93429 8.81146 4.1068 9.10529 4.25091C9.38092 4.38605 9.8953 4.37638 10.1761 4.23085C10.4655 4.0809 10.7398 3.76416 10.8207 3.48634C11.0516 2.69487 10.5279 1.91634 9.72276 1.85418C9.59345 1.8442 9.41947 1.8531 9.33614 1.87401ZM4.15543 5.96568V6.84843H4.89995H5.64446V8.04853V9.2485L3.02286 13.4304C1.06507 16.5535 0.376348 17.6839 0.30283 17.8947C0.0224103 18.6987 0.225003 19.7137 0.794703 20.3591C1.03262 20.6286 1.50018 20.9391 1.84849 21.0591L2.12317 21.1537H8.38101H14.6387L14.9135 21.0591C16.1873 20.6206 16.9005 19.1602 16.4591 17.8947C16.3856 17.6839 15.6968 16.5535 13.7392 13.4304L11.1176 9.2485V8.04853V6.84843H11.862H12.6065V5.96568V5.08292H8.38101H4.15543V5.96568ZM9.34703 8.32312L9.34715 9.7978L10.8094 12.1252L12.2714 14.4525L10.3262 14.4629C9.25639 14.4686 7.50598 14.4686 6.43663 14.4629L4.49237 14.4525L5.95338 12.1252L7.41451 9.7978L7.41487 8.32312L7.41511 6.84843H8.38101H9.3468L9.34703 8.32312Z" fill="#FE99C4"/>
</svg>
