<svg width="22" height="22" viewBox="0 0 22 22" fill="none" xmlns="http://www.w3.org/2000/svg">
<path fill-rule="evenodd" clip-rule="evenodd" d="M10.8024 1.30224C10.4823 1.94248 10.2021 2.46631 10.1797 2.46631C10.1237 2.46631 7.89807 2.78944 7.75533 2.81826C7.6452 2.84064 7.68073 2.88139 8.5821 3.76694L9.52387 4.69226L9.30264 5.95777C9.18094 6.65383 9.08736 7.22924 9.09466 7.23642C9.10196 7.24371 9.61477 6.9821 10.2342 6.65517C10.8537 6.32812 11.3815 6.06055 11.407 6.06055C11.4326 6.06055 11.9599 6.32776 12.5791 6.65432C13.1982 6.98076 13.7102 7.24238 13.717 7.23556C13.7238 7.22888 13.6297 6.65383 13.5081 5.95777L13.2869 4.69226L14.2307 3.76512C15.0694 2.94111 15.1637 2.83541 15.0779 2.8162C15.0247 2.80428 14.4485 2.71938 13.7973 2.62731C13.1461 2.53529 12.6036 2.45368 12.5917 2.44604C12.5798 2.43837 12.3129 1.91596 11.9986 1.28513C11.6841 0.654287 11.4174 0.138184 11.4056 0.138184C11.3939 0.138184 11.1224 0.662011 10.8024 1.30224ZM4.18526 5.46191L3.60649 6.61954L2.3465 6.79273C1.00656 6.97699 0.932065 6.99001 0.951523 7.03732C0.958387 7.05398 1.40015 7.46665 1.93322 7.95437C2.8172 8.7633 2.90056 8.85099 2.88158 8.95194C2.77412 9.52163 2.46186 11.3902 2.47233 11.4007C2.47975 11.4082 2.99353 11.147 3.61392 10.8205C4.23442 10.4939 4.76244 10.2267 4.78751 10.2267C4.81258 10.2267 5.33963 10.4939 5.95867 10.8203C6.57784 11.1469 7.0898 11.4085 7.09661 11.4017C7.10343 11.3949 7.00948 10.82 6.88791 10.1239L6.66679 8.85841L7.59177 7.94792C8.10653 7.44123 8.50032 7.02284 8.47963 7.00448C8.45931 6.98648 8.01964 6.91265 7.50269 6.84053C6.98563 6.7684 6.42816 6.68959 6.26363 6.66551L5.96463 6.62172L5.38538 5.463C5.06679 4.82569 4.79664 4.30428 4.78496 4.30428C4.77339 4.30428 4.50348 4.8252 4.18526 5.46191ZM17.4251 5.46373L16.8454 6.6233L16.4855 6.67378C15.3087 6.83907 14.3441 6.99013 14.3214 7.01275C14.3071 7.0271 14.7113 7.44817 15.2198 7.94853L16.144 8.85841L15.9229 10.1239C15.8013 10.82 15.7078 11.3954 15.7151 11.4026C15.7222 11.4099 16.2352 11.1482 16.8546 10.8212C17.4741 10.4943 18.0019 10.2267 18.0274 10.2267C18.053 10.2267 18.5803 10.4939 19.1994 10.8203C19.8185 11.1469 20.3312 11.4079 20.3385 11.4006C20.3489 11.3902 20.0367 9.52163 19.9295 8.95291C19.9106 8.85318 19.9975 8.76184 20.8778 7.9551C21.4107 7.46677 21.8524 7.05362 21.8593 7.03707C21.8791 6.98928 21.7945 6.97432 20.4642 6.792L19.2041 6.61917L18.6256 5.46179C18.3072 4.82508 18.0374 4.30428 18.0257 4.30428C18.0142 4.30428 17.7439 4.82605 17.4251 5.46373ZM10.6333 8.83639C10.4671 8.87726 10.1729 8.99013 9.97948 9.08731C9.69485 9.23022 9.5532 9.33822 9.23717 9.65347C8.90154 9.98806 8.82001 10.0975 8.65767 10.4309C8.38569 10.9894 8.3263 11.2832 8.35064 11.9495C8.36695 12.3987 8.3891 12.5461 8.47732 12.7947C8.65767 13.303 8.85286 13.6067 9.25566 14.0057C9.67817 14.4242 10.0927 14.6633 10.629 14.7977L10.9354 14.8746L10.7719 14.9021C9.06947 15.1881 7.7451 16.3557 7.24933 18.0075C7.14115 18.3685 7.13884 18.3993 7.12375 19.7128L7.10854 21.0505H11.4053H15.7023L15.6871 19.7128C15.672 18.3993 15.6697 18.3685 15.5614 18.0075C15.0657 16.3557 13.7413 15.1881 12.0389 14.9021L11.8753 14.8746L12.1819 14.7977C12.3504 14.7555 12.6447 14.6431 12.8357 14.5482C13.118 14.4077 13.2562 14.3023 13.5728 13.9859C13.8896 13.6692 13.9948 13.5314 14.1353 13.2492C14.3777 12.7621 14.4705 12.3605 14.4697 11.8028C14.4688 11.2494 14.3813 10.8782 14.1366 10.39C13.9958 10.1093 13.8879 9.96836 13.5728 9.65347C13.256 9.33676 13.1182 9.23168 12.8357 9.0912C12.6447 8.99633 12.3429 8.88213 12.1651 8.83749C11.7449 8.73192 11.061 8.73155 10.6333 8.83639ZM4.60108 12.5096C3.75946 12.755 3.10403 13.4243 2.88754 14.2593C2.80503 14.5777 2.80503 15.1883 2.88754 15.5066C3.06168 16.178 3.54029 16.7699 4.15812 17.0775C4.34151 17.1688 4.56859 17.2565 4.66266 17.2724C4.87525 17.3083 4.83546 17.347 4.51942 17.4117C4.38447 17.4393 4.09947 17.5469 3.8859 17.6507C3.55283 17.8127 3.44221 17.8949 3.10719 18.2299C2.77169 18.5652 2.69003 18.6749 2.52806 19.0083C2.26886 19.5418 2.21045 19.8148 2.21045 20.4915V21.0505H4.04945H5.88846L5.88931 20.2029C5.89052 19.1153 5.94212 18.4724 6.06698 17.9871C6.12186 17.7736 6.1793 17.568 6.19451 17.5299C6.21775 17.4723 6.181 17.4523 5.97364 17.4095C5.83686 17.3812 5.7249 17.3456 5.7249 17.3306C5.7249 17.3154 5.78477 17.2912 5.85779 17.2767C5.9308 17.2622 6.06515 17.2221 6.1563 17.1874C6.30196 17.132 6.33579 17.0927 6.43716 16.86C6.60266 16.4803 7.0584 15.8146 7.41775 15.4277L7.72746 15.0944V14.8005C7.72746 13.7437 6.9546 12.7697 5.89941 12.4965C5.56573 12.41 4.92016 12.4165 4.60108 12.5096ZM16.861 12.5096C15.8184 12.8138 15.0834 13.7604 15.0834 14.7993V15.0919L15.4332 15.4791C15.82 15.9071 16.2056 16.4744 16.3771 16.8679C16.4749 17.0923 16.5096 17.1323 16.6545 17.1874C16.7457 17.2221 16.88 17.2622 16.953 17.2767C17.0262 17.2912 17.0858 17.3154 17.0858 17.3306C17.0858 17.3456 16.974 17.3812 16.8372 17.4095C16.6298 17.4523 16.5931 17.4723 16.6163 17.5299C16.6315 17.568 16.6879 17.7698 16.7414 17.9782C16.8653 18.4611 16.9224 19.1677 16.9224 20.219V21.0505H18.7614H20.6004L20.5996 20.4888C20.5988 19.8177 20.5259 19.4847 20.2666 18.9674C20.1256 18.6864 20.0182 18.546 19.7028 18.2311C19.2666 17.7957 18.8862 17.5688 18.3732 17.4384C18.2158 17.3984 18.0594 17.3566 18.0257 17.3453C17.992 17.334 18.0748 17.2934 18.2097 17.2548C19.0462 17.0158 19.7065 16.3422 19.9233 15.5066C20.0058 15.1883 20.0058 14.5777 19.9233 14.2593C19.7026 13.4086 19.0105 12.7168 18.1594 12.4965C17.8257 12.41 17.1802 12.4165 16.861 12.5096Z" fill="#FFAE21"/>
</svg>