<svg width="29" height="16" viewBox="0 0 29 16" fill="none" xmlns="http://www.w3.org/2000/svg">
<path fill-rule="evenodd" clip-rule="evenodd" d="M7.23178 2.57278C3.33704 3.93201 0.150391 5.05864 0.150391 5.07641C0.150391 5.09418 0.828478 5.32925 1.65729 5.59896C3.32772 6.14265 3.22085 6.13331 3.37451 5.7481C3.43388 5.59918 3.45981 5.5867 3.77019 5.55734C4.21452 5.51517 4.55731 5.51753 4.60748 5.56308C4.63009 5.58355 4.44335 5.64642 4.19246 5.70277L3.73636 5.80512L3.5178 6.2811C2.86853 7.69522 2.73665 7.99912 2.47723 8.67879C1.9574 10.0406 1.63285 11.5135 1.72708 12.0832C1.76295 12.3001 1.78345 12.324 2.00773 12.4112C2.62762 12.6521 3.51464 12.6702 4.11601 12.4541C4.44601 12.3356 4.44639 12.3351 4.48741 12.0843C4.50997 11.9461 4.60598 10.6118 4.70071 9.11923C4.79544 7.62661 4.87804 6.40044 4.88425 6.39436C4.91468 6.36478 6.61205 6.02692 6.66825 6.03929C6.7096 6.0484 6.71765 6.09091 6.69041 6.15648C6.65736 6.23623 6.47464 6.30855 5.88264 6.47669C5.14284 6.68656 5.12237 6.69613 5.26473 6.76372C5.46656 6.85955 14.1979 9.29513 14.3397 9.29513C14.4022 9.29513 16.3176 8.77562 18.5961 8.14072C21.736 7.26568 23.4398 6.759 25.6351 6.04772C27.228 5.53148 28.5313 5.09452 28.5313 5.07664C28.5313 5.05201 14.8026 0.243253 14.3963 0.125607C14.3506 0.112335 11.1266 1.21366 7.23178 2.57278ZM5.87199 9.96108L5.88759 12.1346L6.03776 12.4252C7.22621 14.7248 14.1067 15.8125 19.1162 14.4926C20.847 14.0365 22.1902 13.2666 22.6303 12.4784L22.7942 12.1849L22.8097 9.98616C22.8188 8.69195 22.8046 7.78744 22.7749 7.78744C22.7473 7.78744 20.8601 8.30752 18.5814 8.94332C16.3027 9.57913 14.3944 10.0992 14.3408 10.0992C14.2874 10.0992 12.3791 9.57913 10.1004 8.94332C7.82167 8.30752 5.93451 7.78744 5.90678 7.78744C5.87719 7.78744 5.86283 8.68137 5.87199 9.96108Z" fill="#54B676"/>
</svg>
