<svg width="24" height="25" viewBox="0 0 24 25" fill="none" xmlns="http://www.w3.org/2000/svg">
<path d="M16 3.5C16.2449 3.50003 16.4813 3.58996 16.6644 3.75272C16.8474 3.91547 16.9643 4.13975 16.993 4.383L17 4.5V5.5H19C19.5046 5.49984 19.9906 5.69041 20.3605 6.0335C20.7305 6.37659 20.9572 6.84684 20.995 7.35L21 7.5V19.5C21.0002 20.0046 20.8096 20.4906 20.4665 20.8605C20.1234 21.2305 19.6532 21.4572 19.15 21.495L19 21.5H5C4.49542 21.5002 4.00943 21.3096 3.63945 20.9665C3.26947 20.6234 3.04284 20.1532 3.005 19.65L3 19.5V7.5C2.99984 6.99542 3.19041 6.50943 3.5335 6.13945C3.87659 5.76947 4.34684 5.54284 4.85 5.505L5 5.5H7V4.5C7.00028 4.24512 7.09788 3.99997 7.27285 3.81463C7.44782 3.6293 7.68695 3.51777 7.94139 3.50283C8.19584 3.48789 8.44638 3.57067 8.64183 3.73426C8.83729 3.89786 8.9629 4.1299 8.993 4.383L9 4.5V5.5H15V4.5C15 4.23478 15.1054 3.98043 15.2929 3.79289C15.4804 3.60536 15.7348 3.5 16 3.5ZM19 12.5H5V19.5H19V12.5ZM19 7.5H5V10.5H19V7.5Z" fill="#868686"/>
</svg>
