<svg width="25" height="25" viewBox="0 0 25 25" fill="none" xmlns="http://www.w3.org/2000/svg">
<path d="M12.4999 16.1001C7.31594 16.1001 6.39795 10.9341 6.23595 6.83557C6.19005 5.69619 6.16755 5.12559 6.59595 4.5991C7.02344 4.0717 7.53554 3.98531 8.56062 3.81251C9.86275 3.5991 11.1804 3.49464 12.4999 3.50021C14.1055 3.50021 15.4275 3.64151 16.4391 3.81251C17.4642 3.98531 17.9763 4.0717 18.4047 4.5991C18.8331 5.12649 18.8097 5.69619 18.7647 6.83557C18.6027 10.9332 17.6847 16.1001 12.5008 16.1001H12.4999Z" stroke="#54B676" stroke-width="1.5"/>
<path opacity="0.5" d="M12.4999 16.1V18.8" stroke="#54B676" stroke-width="1.5" stroke-linecap="round"/>
<path d="M15.6499 21.5H9.34998L9.65597 19.9736C9.69674 19.7696 9.80688 19.5861 9.96767 19.4542C10.1285 19.3223 10.33 19.2501 10.538 19.25H14.4619C14.6699 19.2501 14.8714 19.3223 15.0322 19.4542C15.193 19.5861 15.3031 19.7696 15.3439 19.9736L15.6499 21.5Z" stroke="#54B676" stroke-width="1.5" stroke-linecap="round" stroke-linejoin="round"/>
<path d="M18.7998 6.2002L19.6539 6.48459C20.5449 6.78159 20.9904 6.93009 21.2451 7.28378C21.4998 7.63748 21.4998 8.10727 21.4998 9.04596V9.11166C21.4998 9.88565 21.4998 10.2735 21.3135 10.5903C21.1272 10.9071 20.7879 11.0952 20.1111 11.4723L17.4498 12.9501M6.19997 6.2002L5.34588 6.48459C4.45489 6.78159 4.00939 6.93009 3.7547 7.28378C3.5 7.63748 3.5 8.10817 3.5 9.04596V9.11166C3.5 9.88565 3.5 10.2735 3.6863 10.5903C3.8726 10.9071 4.21189 11.0952 4.88868 11.4723L7.54995 12.9501" stroke="#54B676" stroke-width="1.5"/>
<path d="M11.7313 7.12088C12.0733 6.50619 12.2443 6.2002 12.4999 6.2002C12.7555 6.2002 12.9265 6.50619 13.2685 7.12088L13.3567 7.27928C13.4539 7.45388 13.5025 7.54028 13.5781 7.59788C13.6546 7.65548 13.7491 7.67708 13.9381 7.71938L14.1091 7.75898C14.7733 7.90928 15.1054 7.98397 15.1846 8.23777C15.2638 8.49247 15.037 8.75707 14.5843 9.28626L14.4673 9.42306C14.3386 9.57336 14.2738 9.64806 14.245 9.74165C14.2162 9.83525 14.2261 9.93515 14.245 10.1358L14.263 10.3185C14.3314 11.025 14.3656 11.3787 14.1595 11.5353C13.9525 11.6919 13.6411 11.5488 13.0192 11.2626L12.859 11.1888C12.6817 11.1078 12.5935 11.0673 12.4999 11.0673C12.4063 11.0673 12.3181 11.1078 12.1408 11.1888L11.9806 11.2626C11.3587 11.5497 11.0473 11.6919 10.8403 11.5353C10.6333 11.3787 10.6684 11.025 10.7368 10.3185L10.7548 10.1358C10.7737 9.93515 10.7836 9.83525 10.7548 9.74165C10.726 9.64896 10.6612 9.57336 10.5325 9.42306L10.4155 9.28626C9.96283 8.75707 9.73604 8.49247 9.81523 8.23777C9.89443 7.98397 10.2265 7.90928 10.8907 7.75898L11.0617 7.71938C11.2507 7.67708 11.3452 7.65638 11.4217 7.59788C11.4973 7.54028 11.5459 7.45388 11.6431 7.27928L11.7313 7.12088Z" stroke="#54B676" stroke-width="1.5"/>
<path opacity="0.5" d="M17.8998 21.5H7.09998" stroke="#54B676" stroke-width="1.5" stroke-linecap="round"/>
</svg>
