<svg width="25" height="25" viewBox="0 0 25 25" fill="none" xmlns="http://www.w3.org/2000/svg">
<path d="M12.4998 16.1001C7.31582 16.1001 6.39783 10.9341 6.23583 6.83557C6.18993 5.69618 6.16743 5.12559 6.59582 4.59909C7.02332 4.0717 7.53541 3.9853 8.5605 3.8125C9.86262 3.59909 11.1803 3.49463 12.4998 3.50021C14.1053 3.50021 15.4274 3.6415 16.439 3.8125C17.4641 3.9853 17.9762 4.0717 18.4046 4.59909C18.833 5.12649 18.8096 5.69618 18.7646 6.83557C18.6026 10.9332 17.6846 16.1001 12.5007 16.1001H12.4998Z" stroke="#868686" stroke-width="1.5"/>
<path opacity="0.5" d="M12.5 16.1001V18.8" stroke="#868686" stroke-width="1.5" stroke-linecap="round"/>
<path d="M15.6498 21.5H9.34985L9.65585 19.9736C9.69661 19.7697 9.80676 19.5861 9.96755 19.4542C10.1283 19.3223 10.3299 19.2501 10.5378 19.25H14.4618C14.6698 19.2501 14.8713 19.3223 15.0321 19.4542C15.1929 19.5861 15.303 19.7697 15.3438 19.9736L15.6498 21.5Z" stroke="#868686" stroke-width="1.5" stroke-linecap="round" stroke-linejoin="round"/>
<path d="M18.7998 6.20017L19.6539 6.48457C20.5449 6.78156 20.9904 6.93006 21.2451 7.28376C21.4998 7.63745 21.4998 8.10725 21.4998 9.04593V9.11163C21.4998 9.88563 21.4998 10.2735 21.3135 10.5903C21.1272 10.9071 20.7879 11.0952 20.1111 11.4723L17.4498 12.9501M6.19997 6.20017L5.34588 6.48457C4.45489 6.78156 4.00939 6.93006 3.7547 7.28376C3.5 7.63745 3.5 8.10815 3.5 9.04593V9.11163C3.5 9.88563 3.5 10.2735 3.6863 10.5903C3.8726 10.9071 4.21189 11.0952 4.88868 11.4723L7.54995 12.9501" stroke="#868686" stroke-width="1.5"/>
<path d="M11.7314 7.12086C12.0734 6.50616 12.2444 6.20017 12.5 6.20017C12.7556 6.20017 12.9266 6.50616 13.2686 7.12086L13.3568 7.27926C13.454 7.45385 13.5026 7.54025 13.5782 7.59785C13.6547 7.65545 13.7492 7.67705 13.9382 7.71935L14.1092 7.75895C14.7734 7.90925 15.1055 7.98395 15.1847 8.23774C15.2639 8.49244 15.0371 8.75704 14.5844 9.28623L14.4674 9.42303C14.3387 9.57333 14.2739 9.64803 14.2451 9.74163C14.2163 9.83523 14.2262 9.93512 14.2451 10.1358L14.2631 10.3185C14.3315 11.025 14.3657 11.3787 14.1596 11.5353C13.9526 11.6919 13.6412 11.5488 13.0193 11.2626L12.8591 11.1888C12.6818 11.1078 12.5936 11.0673 12.5 11.0673C12.4064 11.0673 12.3182 11.1078 12.1409 11.1888L11.9807 11.2626C11.3588 11.5497 11.0474 11.6919 10.8404 11.5353C10.6334 11.3787 10.6685 11.025 10.7369 10.3185L10.7549 10.1358C10.7738 9.93512 10.7837 9.83523 10.7549 9.74163C10.7261 9.64893 10.6613 9.57333 10.5326 9.42303L10.4156 9.28623C9.96295 8.75704 9.73616 8.49244 9.81536 8.23774C9.89456 7.98395 10.2267 7.90925 10.8908 7.75895L11.0618 7.71935C11.2508 7.67705 11.3453 7.65635 11.4218 7.59785C11.4974 7.54025 11.546 7.45385 11.6432 7.27926L11.7314 7.12086Z" stroke="#868686" stroke-width="1.5"/>
<path opacity="0.5" d="M17.8997 21.5H7.09985" stroke="#868686" stroke-width="1.5" stroke-linecap="round"/>
</svg>
