<svg width="26" height="25" viewBox="0 0 26 25" fill="none" xmlns="http://www.w3.org/2000/svg">
<path fill-rule="evenodd" clip-rule="evenodd" d="M19.4832 18.9365C19.9014 18.5619 20.1643 18.0184 20.1643 17.4137V11.2528C20.1643 10.9399 20.0925 10.6311 19.9544 10.3503C19.8162 10.0695 19.6154 9.8242 19.3674 9.6333L14.6 5.9665C14.2428 5.69147 13.8046 5.54234 13.3537 5.54234C12.9028 5.54234 12.4646 5.69147 12.1074 5.9665L7.34 9.6333C7.09184 9.82434 6.89091 10.0699 6.75274 10.3509C6.61458 10.632 6.54287 10.941 6.54316 11.2542V17.4137C6.54245 17.6814 6.59449 17.9466 6.69632 18.1942C6.79815 18.4418 6.94777 18.6669 7.13662 18.8566C7.32548 19.0464 7.54988 19.197 7.79699 19.3C8.0441 19.403 8.30908 19.4563 8.57679 19.4568H9.26738V14.6894C9.26738 13.9669 9.5544 13.274 10.0653 12.7631C10.5762 12.2522 11.2691 11.9652 11.9916 11.9652H14.7158C15.4383 11.9652 16.1312 12.2522 16.6421 12.7631C17.153 13.274 17.44 13.9669 17.44 14.6894V19.4568H18.1306C18.6496 19.4541 19.125 19.258 19.4832 18.9365ZM22.2074 17.4137C22.2074 18.4974 21.7769 19.5368 21.0106 20.3031C20.2442 21.0695 19.2049 21.5 18.1211 21.5H8.58633C7.50257 21.5 6.46319 21.0695 5.69686 20.3031C4.93052 19.5368 4.5 18.4974 4.5 17.4137V11.2528C4.50004 10.6272 4.64376 10.0099 4.92006 9.44852C5.19637 8.88717 5.59789 8.39677 6.09367 8.01511L10.8611 4.34831C11.5756 3.79826 12.452 3.5 13.3537 3.5C14.2554 3.5 15.1318 3.79826 15.8464 4.34831L20.6138 8.01511C21.1097 8.39691 21.5113 8.88753 21.7877 9.44914C22.064 10.0107 22.2076 10.6283 22.2074 11.2542V17.4137ZM15.3969 14.6894C15.3969 14.5088 15.3251 14.3356 15.1974 14.2079C15.0697 14.0801 14.8964 14.0084 14.7158 14.0084H11.9916C11.811 14.0084 11.6377 14.0801 11.51 14.2079C11.3823 14.3356 11.3105 14.5088 11.3105 14.6894V19.4568H15.3969V14.6894Z" fill="#868686"/>
</svg>
