<svg width="24" height="25" viewBox="0 0 24 25" fill="none" xmlns="http://www.w3.org/2000/svg">
<path d="M18.75 20.5H5.25C4.41986 20.5001 3.62117 20.1824 3.01777 19.6123C2.41437 19.0422 2.052 18.2628 2.005 17.434L2 17.25V6.75C1.99993 6.17987 2.2163 5.63098 2.60537 5.21425C2.99444 4.79751 3.52721 4.54402 4.096 4.505L4.25 4.5H16.75C17.3201 4.49993 17.869 4.7163 18.2858 5.10537C18.7025 5.49444 18.956 6.02721 18.995 6.596L19 6.75V7.5H19.75C20.3201 7.49993 20.869 7.7163 21.2858 8.10537C21.7025 8.49444 21.956 9.02721 21.995 9.596L22 9.75V17.25C22.0001 18.0801 21.6824 18.8788 21.1123 19.4822C20.5422 20.0856 19.7628 20.448 18.934 20.495L18.75 20.5ZM5.25 19H18.75C19.1893 19 19.6126 18.8347 19.9357 18.537C20.2588 18.2392 20.4581 17.8309 20.494 17.393L20.5 17.25V9.75C20.5 9.56876 20.4344 9.39366 20.3152 9.25707C20.1961 9.12048 20.0316 9.03165 19.852 9.007L19.75 9H19V16.75C19 16.9312 18.9344 17.1063 18.8152 17.2429C18.6961 17.3795 18.5316 17.4684 18.352 17.493L18.25 17.5C18.0688 17.5 17.8937 17.4344 17.7571 17.3152C17.6205 17.1961 17.5316 17.0316 17.507 16.852L17.5 16.75V6.75C17.5 6.56876 17.4344 6.39366 17.3152 6.25707C17.1961 6.12048 17.0316 6.03165 16.852 6.007L16.75 6H4.25C4.06876 6.00001 3.89366 6.06564 3.75707 6.18477C3.62048 6.30389 3.53165 6.46845 3.507 6.648L3.5 6.75V17.25C3.50002 17.6892 3.66517 18.1123 3.96268 18.4354C4.26019 18.7585 4.6683 18.9579 5.106 18.994L5.25 19ZM12.246 15H15.252C15.442 15.0001 15.6249 15.0722 15.7638 15.202C15.9026 15.3317 15.9871 15.5093 16 15.6989C16.013 15.8885 15.9535 16.0759 15.8336 16.2233C15.7137 16.3707 15.5422 16.4671 15.354 16.493L15.252 16.5H12.246C12.056 16.4999 11.8731 16.4278 11.7342 16.298C11.5954 16.1683 11.5109 15.9907 11.498 15.8011C11.485 15.6115 11.5445 15.4241 11.6644 15.2767C11.7843 15.1293 11.9558 15.0329 12.144 15.007L12.246 15ZM9.243 11.505C9.44191 11.505 9.63268 11.584 9.77333 11.7247C9.91398 11.8653 9.993 12.0561 9.993 12.255V15.75C9.993 15.9489 9.91398 16.1397 9.77333 16.2803C9.63268 16.421 9.44191 16.5 9.243 16.5H5.748C5.54909 16.5 5.35832 16.421 5.21767 16.2803C5.07702 16.1397 4.998 15.9489 4.998 15.75V12.255C4.998 12.0561 5.07702 11.8653 5.21767 11.7247C5.35832 11.584 5.54909 11.505 5.748 11.505H9.243ZM8.493 13.005H6.498V15H8.493V13.005ZM12.246 11.505H15.252C15.442 11.5051 15.6249 11.5772 15.7638 11.707C15.9026 11.8367 15.9871 12.0143 16 12.2039C16.013 12.3935 15.9535 12.5809 15.8336 12.7283C15.7137 12.8757 15.5422 12.9721 15.354 12.998L15.252 13.005H12.246C12.0546 13.0069 11.8697 12.9357 11.7292 12.8057C11.5887 12.6758 11.5032 12.4971 11.4901 12.3061C11.4771 12.1152 11.5375 11.9265 11.6591 11.7787C11.7807 11.6308 11.9541 11.5351 12.144 11.511L12.246 11.505ZM5.748 8.002H15.252C15.4434 8.00005 15.6283 8.07134 15.7688 8.20127C15.9093 8.3312 15.9948 8.50993 16.0079 8.70088C16.0209 8.89182 15.9605 9.08052 15.8389 9.22834C15.7173 9.37616 15.5439 9.47192 15.354 9.496L15.252 9.502H5.748C5.55798 9.50194 5.37506 9.42976 5.23621 9.30003C5.09736 9.1703 5.01293 8.9927 4.99997 8.80312C4.98702 8.61354 5.04652 8.42611 5.16643 8.2787C5.28635 8.13129 5.45775 8.0349 5.646 8.009L5.748 8.002Z" fill="#54B676"/>
</svg>
