<svg width="48" height="48" viewBox="0 0 48 48" fill="none" xmlns="http://www.w3.org/2000/svg">
<path d="M24.504 37.1101C25.7712 37.0194 27.0216 36.8157 28.2552 36.499C29.7732 36.9573 31.3749 37.0615 32.9388 36.8036C33.0009 36.7955 33.0634 36.7907 33.126 36.7891C33.684 36.7891 34.4166 37.1119 35.484 37.792V36.6749C35.4843 36.4803 35.5363 36.2893 35.6348 36.1218C35.7333 35.9544 35.8745 35.8166 36.0438 35.7228C36.5082 35.4635 36.9402 35.1607 37.3344 34.8306C38.8896 33.5195 39.768 31.7732 39.768 29.9235C39.7674 29.3118 39.6708 28.7041 39.4818 28.1228C39.9498 27.2523 40.3314 26.3347 40.6104 25.3845C41.5104 26.7264 41.9964 28.3041 42 29.9235C42 32.4369 40.8228 34.7835 38.787 36.4972C38.4464 36.7826 38.0888 37.0467 37.716 37.2878V39.9028C37.716 40.8022 36.672 41.3173 35.9358 40.7841C35.2393 40.2659 34.5185 39.7818 33.7758 39.3334C33.5623 39.2069 33.3403 39.0954 33.1116 38.9997C32.4996 39.0916 31.8768 39.1381 31.2432 39.1393C28.7016 39.1393 26.3526 38.3813 24.504 37.1101ZM11.0652 31.8766C7.854 29.1746 6 25.4824 6 21.5328C6 13.4558 13.6644 7 23.0226 7C32.3808 7 40.047 13.4558 40.047 21.5328C40.047 29.6098 32.3808 36.0638 23.0226 36.0638C21.9702 36.0638 20.9334 35.9834 19.9122 35.8226C19.4712 35.9259 17.709 36.9669 15.1692 38.8111C14.2512 39.4803 12.9444 38.8347 12.9444 37.7085V33.2475C12.2864 32.8375 11.6584 32.3806 11.0652 31.8802M19.9752 33.0734C20.0508 33.0734 20.1288 33.0795 20.2092 33.0916C21.139 33.2469 22.0801 33.3246 23.0226 33.3237C30.9282 33.3237 37.2552 27.994 37.2552 21.5328C37.2552 15.0716 30.9282 9.74371 23.0226 9.74371C15.1206 9.74371 8.79 15.0734 8.79 21.5328C8.79 24.6573 10.2678 27.5987 12.8814 29.8002C13.5414 30.3539 14.259 30.8502 15.0342 31.289C15.468 31.5338 15.7362 31.9872 15.7362 32.4768V35.0501C17.745 33.7081 19.0662 33.0734 19.9734 33.0734" fill="white"/>
<path d="M16.125 23.999C16.7217 23.999 17.294 23.7602 17.716 23.3351C18.1379 22.91 18.375 22.3335 18.375 21.7323C18.375 21.1311 18.1379 20.5545 17.716 20.1294C17.294 19.7043 16.7217 19.4655 16.125 19.4655C15.5283 19.4655 14.956 19.7043 14.534 20.1294C14.1121 20.5545 13.875 21.1311 13.875 21.7323C13.875 22.3335 14.1121 22.91 14.534 23.3351C14.956 23.7602 15.5283 23.999 16.125 23.999ZM23.4366 23.999C24.0333 23.999 24.6056 23.7602 25.0276 23.3351C25.4495 22.91 25.6866 22.3335 25.6866 21.7323C25.6866 21.1311 25.4495 20.5545 25.0276 20.1294C24.6056 19.7043 24.0333 19.4655 23.4366 19.4655C22.8399 19.4655 22.2676 19.7043 21.8456 20.1294C21.4237 20.5545 21.1866 21.1311 21.1866 21.7323C21.1866 22.3335 21.4237 22.91 21.8456 23.3351C22.2676 23.7602 22.8399 23.999 23.4366 23.999ZM30.75 24.0009C31.3467 24.0009 31.919 23.762 32.341 23.3369C32.7629 22.9118 33 22.3353 33 21.7341C33 21.1329 32.7629 20.5563 32.341 20.1312C31.919 19.7061 31.3467 19.4673 30.75 19.4673C30.1533 19.4673 29.581 19.7061 29.159 20.1312C28.7371 20.5563 28.5 21.1329 28.5 21.7341C28.5 22.3353 28.7371 22.9118 29.159 23.3369C29.581 23.762 30.1533 24.0009 30.75 24.0009Z" fill="white"/>
</svg>
