<svg width="60" height="60" viewBox="0 0 48 48" fill="none" xmlns="http://www.w3.org/2000/svg">
<path d="M20.594 22.6693C20.594 20.7318 20.7516 18.5509 21.2555 16.5192C21.7611 14.4806 22.5889 12.6872 23.8555 11.4201C25.2609 10.0142 27.2387 9.22551 29.4256 8.85174C31.6023 8.47625 33.8817 8.53112 35.7533 8.71458C36.6632 8.79508 37.5159 9.19319 38.1619 9.83922C38.808 10.4852 39.2064 11.338 39.2873 12.2483C39.469 14.1223 39.5238 16.3992 39.1502 18.5801C38.7732 20.7661 37.9848 22.7447 36.5794 24.1506C35.3128 25.4194 33.5184 26.2492 31.4789 26.755C29.4479 27.2591 27.2661 27.4186 25.3294 27.4186C23.6156 27.4186 22.2102 28.809 22.2016 30.5287C22.1879 33.4349 21.8245 36.804 20.5974 39.3912C20.5301 39.3295 20.4844 39.2477 20.4671 39.158C20.1012 37.6155 19.6602 36.0917 19.1457 34.5922C18.8986 33.8775 18.6084 33.1784 18.2768 32.4988C17.9717 31.8884 17.605 31.2849 17.1611 30.8408C16.7154 30.395 16.1122 30.0281 15.502 29.7229C14.822 29.3913 14.1226 29.101 13.4076 28.8536C11.9076 28.3379 10.3832 27.8956 8.84014 27.5283C8.7513 27.5111 8.67024 27.4661 8.60876 27.3997C11.1967 26.1704 14.5731 25.8103 17.4816 25.7983C18.3083 25.7938 19.0997 25.4622 19.6828 24.8759C20.266 24.2896 20.5935 23.4963 20.594 22.6693ZM22.0371 9.60271C20.3215 11.319 19.3291 13.6062 18.7601 15.9002C18.1894 18.2046 18.0214 20.6101 18.0231 22.6727C18.0218 22.8189 17.9633 22.9587 17.8601 23.0622C17.757 23.1657 17.6174 23.2247 17.4713 23.2265C14.436 23.2385 10.5883 23.6037 7.47589 25.0902C6.30702 25.6491 5.81856 26.8013 6.06022 27.8935C6.28816 28.9153 7.11426 29.7538 8.23171 30.0264C9.59425 30.359 11.1745 30.7894 12.549 31.278C13.2363 31.5215 13.8515 31.7718 14.352 32.0221C14.8696 32.281 15.1867 32.5022 15.3426 32.6582C15.4986 32.8159 15.7197 33.1314 15.9785 33.6492C16.2287 34.1499 16.4789 34.7637 16.7223 35.4495C17.209 36.8245 17.6375 38.4036 17.97 39.7667C18.2425 40.8846 19.0806 41.711 20.1038 41.939C21.1955 42.1825 22.3473 41.6939 22.906 40.5245C24.3919 37.4144 24.757 33.5738 24.7741 30.5407C24.7741 30.2424 25.0261 29.9904 25.3277 29.9904C27.3878 29.9904 29.7941 29.8223 32.0976 29.2514C34.3942 28.6805 36.6805 27.6877 38.3978 25.9698C40.3174 24.0495 41.2566 21.4948 41.6833 19.0156C42.1118 16.526 42.0415 13.9988 41.8462 11.9979C41.7072 10.4946 41.0467 9.08727 39.9793 8.02002C38.9118 6.95277 37.5047 6.29288 36.0018 6.15476C34.0034 5.95759 31.4771 5.889 28.9886 6.31593C26.5086 6.74285 23.9566 7.68242 22.0371 9.60271ZM31.712 11.1407C32.1665 11.1407 32.6024 11.3213 32.9238 11.6428C33.2453 11.9644 33.4258 12.4005 33.4258 12.8552C33.4258 13.3099 33.2453 13.746 32.9238 14.0676C32.6024 14.3891 32.1665 14.5697 31.712 14.5697C31.2574 14.5697 30.8215 14.3891 30.5 14.0676C30.1786 13.746 29.9981 13.3099 29.9981 12.8552C29.9981 12.4005 30.1786 11.9644 30.5 11.6428C30.8215 11.3213 31.2574 11.1407 31.712 11.1407Z" fill="white"/>
</svg>
