<svg width="60" height="60" viewBox="0 0 48 48" fill="none" xmlns="http://www.w3.org/2000/svg">
<path d="M30.531 27.9947C30.5648 30.0642 30.711 32.0169 32.1584 33.6219C32.4259 33.9193 32.7083 34.0311 33.1258 34.0299C34.142 34.0274 35.1744 34.0077 36.1718 34.1687C37.8405 34.4379 38.7704 35.5377 38.8854 37.1562C38.9929 38.6629 38.2479 39.7431 36.6668 40.3243C35.2144 40.8589 33.6895 40.9499 32.1709 40.8429C30.326 40.7127 28.4912 40.4239 26.6463 40.2838C25.7239 40.2137 24.7864 40.2998 23.8577 40.3551C20.9492 40.5259 18.0444 40.7803 15.1334 40.8651C13.9472 40.8995 12.7161 40.709 11.5649 40.403C9.54129 39.8635 8.62261 38.2598 9.02008 36.2431C9.20257 35.3178 9.76378 34.6591 10.625 34.2511C12.0311 33.5838 13.5298 33.5813 15.0309 33.714C16.5333 33.848 16.5945 33.8554 17.2132 32.4839C17.9169 30.9219 17.9969 29.2936 17.6957 27.4982C17.4682 27.7784 17.3082 27.9763 17.147 28.1753C15.2696 30.4894 12.896 31.9997 9.90002 32.4974C8.7801 32.683 7.73018 32.538 6.86274 31.7564C6.19279 31.153 5.84031 30.4058 6.0703 29.4964C6.29528 28.6079 6.94898 28.0586 7.81017 27.9197C9.71253 27.6125 11.0799 26.5089 12.2261 25.1289C13.1298 24.0413 14.0122 22.8923 14.6472 21.6437C15.6971 19.5803 17.3295 18.3404 19.5281 17.7652C22.8541 16.8952 26.1626 16.9738 29.4148 18.1216C31.1285 18.7262 32.4159 19.8114 33.2308 21.4557C34.1845 23.3777 35.3907 25.1436 36.8993 26.6945C37.803 27.6236 38.8041 28.3781 40.1578 28.6141C41.1115 28.78 41.7852 29.3735 41.9614 30.3456C42.1364 31.3091 41.7027 32.0673 40.9327 32.6338C39.9553 33.3527 38.8566 33.3945 37.7167 33.1119C34.9882 32.4347 32.9371 30.7941 31.206 28.6964C31.036 28.4899 30.8722 28.2786 30.7047 28.0696C30.6935 28.0561 30.6672 28.0524 30.5285 27.9959L30.531 27.9947ZM30.1485 34.2167C29.8286 33.5063 29.4873 32.8943 29.2698 32.2418C28.5012 29.9474 28.5737 27.6113 28.9749 25.2616C29.0624 24.7528 29.2411 24.3411 29.8023 24.2465C30.3773 24.1494 30.656 24.5193 30.9047 24.9605C31.7884 26.5274 32.8558 27.959 34.212 29.1683C35.4181 30.2436 36.7568 31.1014 38.3904 31.3668C38.8304 31.4381 39.3216 31.3103 39.7653 31.1886C39.9228 31.1456 40.0753 30.8568 40.0966 30.6663C40.1066 30.5779 39.8078 30.3861 39.6303 30.3579C38.0492 30.1035 36.843 29.2199 35.7519 28.1483C34.012 26.4377 32.6709 24.4407 31.5784 22.2901C30.9822 21.1177 30.0973 20.3337 28.8836 19.8777C26.1751 18.859 23.3965 18.8098 20.5905 19.3788C18.6581 19.7708 17.1745 20.6999 16.2745 22.5457C15.3434 24.4554 14.0247 26.1317 12.4236 27.5683C11.3337 28.5452 10.1275 29.3231 8.64261 29.6107C8.37138 29.6635 8.13265 29.8737 7.87891 30.0113C8.14265 30.2411 8.37388 30.5471 8.68136 30.6774C8.94259 30.788 9.30631 30.7524 9.60254 30.686C10.27 30.5373 10.9449 30.3837 11.5786 30.1354C14.1235 29.1376 15.8046 27.2266 17.112 24.9458C17.3532 24.5242 17.6294 24.1814 18.1657 24.2379C18.7019 24.2944 18.9394 24.6828 19.0468 25.151C19.2531 26.0469 19.4868 26.9391 19.6268 27.846C19.8993 29.6132 19.6768 31.3435 19.0793 32.9116C20.2505 33.1905 21.4079 33.4216 22.5378 33.746C25.0239 34.4588 27.5487 34.3826 30.1498 34.2191L30.1485 34.2167ZM32.1309 39.0414C32.5884 39.0414 33.0546 39.0954 33.5033 39.0303C34.4232 38.8963 35.3582 38.7759 36.2393 38.5006C36.9968 38.2647 37.1743 37.7375 36.9843 36.9706C36.813 36.2763 36.3681 35.9138 35.3807 35.8818C34.157 35.8425 32.9283 35.9162 31.7022 35.9298C29.2923 35.9568 26.8775 36.0785 24.4752 35.9568C23.2128 35.8929 21.9741 35.3927 20.723 35.0978C19.8643 34.8962 18.9944 34.7525 18.1607 35.1605C17.9644 35.2563 17.7244 35.5119 17.7294 35.6877C17.7344 35.856 18.0032 36.0797 18.2069 36.1669C18.6619 36.3636 19.1543 36.4742 19.6206 36.6474C23.6528 38.1467 27.8712 38.6948 32.1309 39.0414ZM19.9918 38.7182C19.2693 38.4711 18.5519 38.2094 17.8244 37.9796C16.7783 37.649 16.0283 37.064 15.8396 35.9285C15.8196 35.8093 15.6608 35.636 15.5484 35.6213C14.2647 35.448 12.9798 35.3669 11.7186 35.7651C11.1474 35.9457 10.8274 36.3193 10.795 36.935C10.7412 37.9489 11.2524 38.5559 12.5236 38.814C15.0034 39.3154 17.4882 39.0082 19.9918 38.7182Z" fill="white" stroke="white" stroke-width="0.161544"/>
<path d="M23.8097 16.4749C21.1274 16.4724 18.9838 14.3452 19.0001 11.7018C19.0151 9.10267 21.1687 7.00492 23.8272 7.00001C26.4895 6.99509 28.6394 9.1334 28.6356 11.7805C28.6306 14.3722 26.467 16.4774 23.8097 16.4749ZM23.8085 14.6475C25.4346 14.661 26.7545 13.394 26.777 11.7977C26.7995 10.1669 25.4996 8.84337 23.861 8.83108C22.1999 8.81757 20.8787 10.0883 20.8612 11.7153C20.845 13.3436 22.1411 14.634 23.8085 14.6475Z" fill="white" stroke="white" stroke-width="0.161544"/>
</svg>
