<svg width="60" height="60" viewBox="0 0 48 48" fill="none" xmlns="http://www.w3.org/2000/svg">
<path d="M41.5889 26.9971C41.4078 26.8203 41.1807 26.6949 40.9319 26.6344C40.6832 26.5738 40.4222 26.5804 40.1769 26.6533C37.4846 27.446 34.6218 27.5125 31.8937 26.8456C29.1656 26.1788 26.6744 24.8036 24.6855 22.8667C22.6966 20.9297 21.2846 18.5036 20.5999 15.8467C19.9151 13.1898 19.9834 10.4019 20.7973 7.77979C20.8729 7.54087 20.8801 7.28641 20.8182 7.04378C20.7564 6.80115 20.6278 6.57954 20.4463 6.40276C20.2648 6.22599 20.0372 6.10075 19.7881 6.04052C19.5389 5.98028 19.2777 5.98732 19.0323 6.06089C15.31 7.17138 12.0421 9.39692 9.69375 12.4208C7.64003 15.0763 6.38731 18.2368 6.07634 21.5474C5.76536 24.8581 6.40845 28.1875 7.93336 31.1618C9.45827 34.1361 11.8046 36.6373 14.7087 38.3845C17.6128 40.1317 20.9596 41.0557 24.3732 41.0525C28.3556 41.0645 32.2321 39.8037 35.4079 37.4635C38.5129 35.1764 40.7981 31.9939 41.9384 28.3688C42.0131 28.1307 42.02 27.8774 41.9584 27.6359C41.8969 27.3943 41.7692 27.1735 41.5889 26.9971ZM33.71 35.2667C30.7193 37.4605 27.0156 38.5283 23.2806 38.2736C19.5456 38.0189 16.0308 36.4589 13.3832 33.8806C10.7356 31.3023 9.13339 27.8795 8.87156 24.242C8.60974 20.6046 9.70589 16.9975 11.9582 14.0847C13.4257 12.1975 15.3228 10.6676 17.5003 9.61558C17.3763 10.4634 17.3137 11.3187 17.3132 12.175C17.3184 16.9146 19.2539 21.4587 22.6952 24.8101C26.1365 28.1616 30.8024 30.0466 35.6691 30.0516C36.5502 30.0513 37.4302 29.9904 38.3025 29.8694C37.2212 31.9904 35.6491 33.838 33.71 35.2667Z" fill="white"/>
</svg>
