<svg width="60" height="60" viewBox="0 0 47 47" fill="none" xmlns="http://www.w3.org/2000/svg">
<path d="M22.4251 16.8439C21.7145 16.6206 21.0316 16.4021 20.3452 16.1964C20.2798 16.1767 20.1766 16.2188 20.1134 16.2635C18.6815 17.2817 17.2548 18.3064 15.8211 19.3215C15.6895 19.4145 15.5178 19.4526 15.3642 19.5141C15.29 19.5439 15.2101 19.561 15.14 19.5978C14.2156 20.0856 13.2246 19.9176 12.5069 19.1495C11.5993 18.1779 11.6338 16.8465 12.5519 15.8867C13.1205 15.2923 13.8179 14.8764 14.4721 14.4005C15.7447 13.4744 17.0376 12.5765 18.312 11.6535C18.9958 11.1587 19.7378 11.0056 20.5571 11.1846C22.4163 11.5904 24.2681 12.033 26.1379 12.3843C27.0835 12.562 27.8709 13.0213 28.6854 13.4617C29.4005 13.8482 30.0432 14.3211 30.5552 14.9545C30.8404 15.3072 30.9808 15.7239 31.1066 16.1569C31.2465 16.6364 31.446 17.1001 31.6389 17.5628C32.1593 18.8131 32.6921 20.0584 33.2121 21.3087C33.2757 21.4622 33.3587 21.5052 33.5189 21.5039C34.8807 21.496 36.2429 21.4846 37.6047 21.499C38.9506 21.5135 39.867 22.5378 39.9901 23.5972C40.1548 25.0119 39.1448 26.0752 37.9918 26.2674C37.8766 26.2867 37.7583 26.2955 37.6413 26.2955C35.775 26.2968 33.9087 26.2955 32.0419 26.2955C30.9393 26.2955 30.1805 25.7638 29.7187 24.7943C29.3524 24.0249 29.0063 23.2463 28.6315 22.4295C28.1716 23.3279 27.7266 24.1969 27.2737 25.0821C27.667 25.4304 28.0541 25.7739 28.4426 26.1156C29.3435 26.9087 30.2798 27.6659 31.1352 28.5046C31.7718 29.1288 32.1006 29.9101 31.9113 30.8519C31.521 32.7935 31.1582 34.7403 30.7856 36.6854C30.632 37.4864 30.5062 38.294 30.3186 39.0866C30.2445 39.4003 30.0458 39.6876 29.8874 39.9776C29.5091 40.6707 28.9754 41.1953 28.1923 41.4098C26.9457 41.7515 25.5751 41.094 24.9964 39.91C24.6605 39.2226 24.6857 38.519 24.8304 37.7969C25.1408 36.2476 25.4414 34.696 25.7464 33.1453C25.8281 32.7307 25.9084 32.3162 25.9984 31.9034C26.0333 31.7424 26.0068 31.6446 25.8488 31.5494C24.683 30.8458 23.5252 30.1303 22.3642 29.4188C22.3272 29.396 22.2874 29.3775 22.2261 29.3455C21.9162 29.7794 21.6072 30.2119 21.2986 30.6449C20.8237 31.3112 20.3611 31.9863 19.8715 32.6421C19.0183 33.7849 17.8525 34.3086 16.4316 34.3064C14.8363 34.3038 13.241 34.3086 11.6461 34.3047C10.9429 34.3029 10.2371 34.3222 9.53701 34.27C8.24718 34.1744 7.22221 33.1352 7.03549 31.8661C6.79315 30.2202 8.17656 28.6792 9.84998 28.6976C11.6942 28.7182 13.5385 28.7002 15.3832 28.7059C15.5465 28.7064 15.6423 28.6651 15.7341 28.5199C16.5295 27.261 17.3272 26.0033 18.146 24.7588C18.312 24.5061 18.301 24.2363 18.3579 23.9723C18.5279 23.187 18.9428 22.5176 19.3551 21.8469C20.3527 20.2243 21.3538 18.6038 22.3532 16.982C22.3757 16.9456 22.3929 16.9066 22.4256 16.8443L22.4251 16.8439ZM28.8438 38.2589C29.0186 37.3526 29.189 36.4735 29.3576 35.5939C29.6688 33.9713 29.9717 32.3469 30.2948 30.7265C30.3813 30.2939 30.3517 29.9184 29.9999 29.614C29.9288 29.5526 29.8507 29.4991 29.7805 29.4368C28.4527 28.2651 27.1258 27.0921 25.798 25.92C25.4515 25.6142 25.38 25.2663 25.5857 24.861C26.7118 22.6448 27.8374 20.4287 28.9666 18.2143C29.0376 18.0748 29.155 17.9585 29.2235 17.8182C29.3025 17.6567 29.3422 17.4769 29.4142 17.3115C29.664 16.7351 29.5576 16.042 29.1003 15.6134C28.8483 15.377 28.5574 15.1717 28.2563 14.9997C27.8158 14.7479 27.3514 14.5378 26.8963 14.3119C26.7595 14.2439 26.6261 14.1531 26.4805 14.1206C24.4296 13.6657 22.377 13.2191 20.3249 12.7713C19.9898 12.698 19.6574 12.6546 19.3564 12.8809C19.2637 12.9507 19.1697 13.0191 19.0752 13.0867C17.3298 14.3325 15.584 15.5774 13.8391 16.8237C13.414 17.1272 13.3244 17.5883 13.61 17.984C13.8735 18.3494 14.3688 18.3919 14.7806 18.0971C16.3817 16.9518 17.9862 15.8108 19.5877 14.6654C19.8526 14.4759 20.1271 14.436 20.4388 14.5356C21.5617 14.8944 22.6874 15.2432 23.8112 15.5985C24.4464 15.7994 24.6486 16.3227 24.3016 16.8864C23.2193 18.6459 22.1347 20.4041 21.0444 22.1588C20.8815 22.4207 20.6696 22.6523 20.5063 22.9137C20.3805 23.1155 20.3081 23.3493 20.1894 23.5564C19.6817 24.4429 19.8261 25.6006 20.5478 26.3257C20.8621 26.6416 21.2417 26.8657 21.6271 27.0855C22.0018 27.2996 22.3629 27.5373 22.7311 27.7632C24.2659 28.7051 25.8016 29.6447 27.3351 30.5883C27.6622 30.7896 27.7897 31.1024 27.7182 31.4682C27.26 33.8107 26.8023 36.1528 26.3463 38.4957C26.2284 39.1024 26.6107 39.692 27.2176 39.8525C27.8281 40.014 28.4602 39.7047 28.6523 39.1129C28.7675 38.7581 28.8743 38.422 29.2601 38.2597H28.8434L28.8438 38.2589ZM18.8466 26.6385C18.817 26.681 18.7998 26.7043 18.7843 26.7284C18.1151 27.7733 17.4451 28.8178 16.7776 29.864C16.5993 30.1439 16.3596 30.2952 16.0157 30.2935C15.3183 30.2895 14.6213 30.3023 13.9238 30.3036C12.5735 30.3053 11.2228 30.3036 9.87249 30.3045C9.1543 30.3045 8.61798 30.8129 8.62018 31.4889C8.62239 32.1837 9.13488 32.6913 9.85528 32.6926C12.1039 32.697 14.352 32.6987 16.6006 32.6943C17.4733 32.6926 18.1473 32.3048 18.6457 31.6012C19.0425 31.0414 19.4407 30.4821 19.8389 29.9228C20.1757 29.4495 20.5138 28.9766 20.8431 28.5151C20.105 27.9611 19.3648 27.4373 18.8466 26.6389V26.6385ZM30.4422 18.8666C30.1588 19.4215 29.8887 19.9378 29.634 20.4611C29.5969 20.5379 29.6031 20.6607 29.6371 20.7419C29.7894 21.1042 29.9611 21.4587 30.1222 21.8171C30.4533 22.554 30.7803 23.2923 31.1127 24.0288C31.3048 24.4544 31.5917 24.7053 32.109 24.7004C33.9224 24.6842 35.7357 24.6996 37.5491 24.6991C37.8413 24.6991 38.0986 24.6088 38.2651 24.3469C38.4368 24.0771 38.4531 23.7959 38.3035 23.516C38.1476 23.2248 37.8872 23.0967 37.5597 23.0967C36.0028 23.0967 34.4455 23.0975 32.8886 23.0958C32.3792 23.0954 32.1615 22.9418 31.9678 22.4803C31.4663 21.2858 30.9604 20.0931 30.4422 18.867V18.8666Z" fill="white" stroke="white" stroke-width="0.295543"/>
<path d="M31.9605 5.50034C34.3053 5.51262 36.071 7.46207 35.9827 9.66244C35.898 11.7689 34.0952 13.5798 31.8078 13.4973C29.6263 13.4188 27.8844 11.568 27.9387 9.40143C27.9917 7.26116 29.817 5.47182 31.9605 5.50034ZM31.8969 11.8975C33.2676 11.9326 34.3557 10.8754 34.3804 9.48521C34.4029 8.23369 33.3245 7.1335 32.0431 7.1006C30.6945 7.06595 29.572 8.1113 29.5429 9.4295C29.5133 10.7683 30.5577 11.8637 31.8965 11.8979L31.8969 11.8975Z" fill="white" stroke="white" stroke-width="0.295543"/>
</svg>
