<svg width="32" height="33" viewBox="0 0 32 33" fill="none" xmlns="http://www.w3.org/2000/svg">
<g clip-path="url(#clip0_864_16237)">
<g clip-path="url(#clip1_864_16237)">
<path d="M21.7767 20.8277C21.808 22.7821 21.9438 24.6263 23.2878 26.142C23.5362 26.4229 23.7985 26.5285 24.1861 26.5274C25.1297 26.525 26.0883 26.5065 27.0145 26.6585C28.5639 26.9127 29.4274 27.9514 29.5341 29.4799C29.634 30.9028 28.9422 31.923 27.4741 32.4719C26.1255 32.9768 24.7095 33.0627 23.2994 32.9617C21.5864 32.8387 19.8826 32.566 18.1696 32.4336C17.313 32.3675 16.4426 32.4487 15.5803 32.501C12.8796 32.6623 10.1823 32.9025 7.4793 32.9826C6.3779 33.0151 5.23471 32.8352 4.1658 32.5462C2.28679 32.0367 1.43375 30.5221 1.80282 28.6176C1.97227 27.7437 2.49338 27.1216 3.29303 26.7363C4.5987 26.1061 5.99026 26.1037 7.38413 26.2291C8.77917 26.3556 8.83604 26.3626 9.41054 25.0673C10.064 23.5922 10.1382 22.0544 9.85853 20.3588C9.6473 20.6234 9.49874 20.8103 9.34903 20.9983C7.60581 23.1837 5.40183 24.6101 2.61988 25.0801C1.57998 25.2554 0.605083 25.1184 -0.200372 24.3803C-0.822452 23.8104 -1.14974 23.1048 -0.936191 22.2459C-0.727283 21.4068 -0.120291 20.888 0.679361 20.7569C2.44579 20.4667 3.71548 19.4245 4.77975 18.1212C5.61887 17.094 6.43825 16.0089 7.02783 14.8297C8.00273 12.8811 9.51847 11.71 11.56 11.1669C14.6483 10.3452 17.7204 10.4194 20.7403 11.5034C22.3315 12.0744 23.5269 13.0993 24.2836 14.6521C25.1691 16.4673 26.2891 18.1351 27.69 19.5998C28.5291 20.4772 29.4587 21.1898 30.7156 21.4126C31.6012 21.5693 32.2267 22.1299 32.3904 23.0479C32.5529 23.9578 32.1501 24.6739 31.4352 25.2089C30.5276 25.8879 29.5075 25.9273 28.449 25.6604C25.9154 25.0209 24.0109 23.4715 22.4034 21.4904C22.2456 21.2954 22.0935 21.0958 21.938 20.8985C21.9276 20.8857 21.9032 20.8822 21.7744 20.8288L21.7767 20.8277ZM21.4216 26.7038C21.1245 26.0329 20.8076 25.455 20.6057 24.8387C19.8919 22.6719 19.9592 20.4656 20.3318 18.2465C20.413 17.766 20.579 17.3772 21.1001 17.2878C21.634 17.1962 21.8928 17.5455 22.1237 17.9622C22.9443 19.4419 23.9354 20.794 25.1947 21.936C26.3146 22.9516 27.5576 23.7617 29.0745 24.0124C29.4831 24.0797 29.9392 23.959 30.3512 23.8441C30.4974 23.8034 30.639 23.5307 30.6588 23.3508C30.668 23.2672 30.3907 23.0862 30.2259 23.0595C28.7577 22.8193 27.6377 21.9848 26.6245 20.9727C25.009 19.3572 23.7637 17.4712 22.7493 15.4402C22.1957 14.333 21.374 13.5925 20.247 13.1619C17.732 12.1998 15.152 12.1534 12.5465 12.6907C10.7522 13.061 9.37456 13.9384 8.53893 15.6816C7.67428 17.4851 6.44985 19.0682 4.96313 20.4249C3.95109 21.3476 2.83111 22.0823 1.45232 22.3539C1.20047 22.4038 0.978795 22.6022 0.743194 22.7322C0.98808 22.9492 1.20279 23.2382 1.4883 23.3613C1.73086 23.4657 2.0686 23.4321 2.34366 23.3694C2.96342 23.2289 3.59014 23.0839 4.17856 22.8494C6.54154 21.907 8.10254 20.1023 9.31653 17.9482C9.54052 17.5501 9.79702 17.2263 10.2949 17.2797C10.7928 17.3331 11.0133 17.6999 11.1131 18.142C11.3046 18.9881 11.5217 19.8307 11.6517 20.6872C11.9047 22.3562 11.6981 23.9903 11.1433 25.4712C12.2308 25.7347 13.3055 25.9529 14.3547 26.2593C16.6631 26.9324 19.0075 26.8605 21.4227 26.7061L21.4216 26.7038ZM23.2623 31.2603C23.6871 31.2603 24.12 31.3113 24.5366 31.2498C25.3908 31.1233 26.2589 31.0096 27.0772 30.7496C27.7805 30.5268 27.9453 30.0289 27.7689 29.3047C27.6099 28.6489 27.1967 28.3066 26.2798 28.2764C25.1436 28.2392 24.0027 28.3089 22.8642 28.3216C20.6266 28.3472 18.3843 28.4621 16.1536 28.3472C14.9814 28.2868 13.8313 27.8145 12.6695 27.5359C11.8722 27.3456 11.0644 27.2098 10.2903 27.5951C10.1081 27.6856 9.88522 27.927 9.88986 28.093C9.89451 28.252 10.144 28.4632 10.3332 28.5456C10.7557 28.7313 11.2129 28.8358 11.6458 28.9994C15.3899 30.4154 19.307 30.933 23.2623 31.2603ZM11.9905 30.955C11.3197 30.7218 10.6535 30.4746 9.97807 30.2575C9.00665 29.9453 8.31029 29.3929 8.13504 28.3205C8.11647 28.2079 7.96907 28.0443 7.86462 28.0303C6.67269 27.8667 5.47959 27.7901 4.30855 28.1661C3.77816 28.3367 3.48104 28.6896 3.45087 29.271C3.40096 30.2285 3.87565 30.8018 5.05598 31.0456C7.3586 31.5191 9.66587 31.2289 11.9905 30.955Z" fill="white" stroke="white" stroke-width="0.3"/>
<path d="M15.8821 9.94822C13.3914 9.9459 11.401 7.9369 11.4161 5.44045C11.43 2.98579 13.4297 1.00465 15.8983 1.00001C18.3704 0.995366 20.3666 3.01481 20.3631 5.51473C20.3585 7.96243 18.3495 9.95054 15.8821 9.94822ZM15.8809 8.22241C17.3909 8.23517 18.6164 7.0386 18.6373 5.53098C18.6582 3.99087 17.4512 2.7409 15.9297 2.7293C14.3872 2.71653 13.1605 3.91659 13.1442 5.45322C13.1291 6.99101 14.3327 8.20964 15.8809 8.22241Z" fill="white" stroke="white" stroke-width="0.3"/>
</g>
</g>
<defs>
<clipPath id="clip0_864_16237">
<rect width="32" height="32" fill="white" transform="translate(0 0.5)"/>
</clipPath>
<clipPath id="clip1_864_16237">
<rect width="33.4287" height="32" fill="white" transform="translate(-1 1)"/>
</clipPath>
</defs>
</svg>
