<svg width="18" height="18" viewBox="0 0 18 18" fill="none" xmlns="http://www.w3.org/2000/svg">
<g clip-path="url(#clip0_1158_3012)">
<g clip-path="url(#clip1_1158_3012)">
<path d="M12.2641 10.6764C12.281 11.7288 12.3541 12.7218 13.0778 13.538C13.2115 13.6892 13.3528 13.7461 13.5615 13.7455C14.0696 13.7442 14.5858 13.7342 15.0845 13.8161C15.9188 13.9529 16.3837 14.5123 16.4412 15.3353C16.495 16.1015 16.1225 16.6508 15.332 16.9464C14.6058 17.2182 13.8434 17.2645 13.0841 17.2101C12.1617 17.1439 11.2443 16.997 10.3218 16.9258C9.86065 16.8901 9.39195 16.9339 8.92762 16.962C7.4734 17.0489 6.02105 17.1782 4.56557 17.2214C3.97251 17.2388 3.35695 17.142 2.78138 16.9864C1.76961 16.712 1.31029 15.8965 1.50902 14.871C1.60026 14.4004 1.88085 14.0654 2.31143 13.858C3.01449 13.5186 3.76378 13.5174 4.51433 13.5849C5.2655 13.653 5.29612 13.6567 5.60547 12.9593C5.9573 12.165 5.9973 11.337 5.84669 10.4239C5.73295 10.5664 5.65296 10.667 5.57234 10.7683C4.63369 11.945 3.44694 12.7131 1.94897 12.9662C1.38903 13.0605 0.864084 12.9868 0.430379 12.5893C0.0954143 12.2825 -0.0808173 11.9025 0.0341707 11.4401C0.146659 10.9883 0.4735 10.7089 0.90408 10.6383C1.85523 10.4821 2.53891 9.92086 3.11198 9.21906C3.5638 8.66599 4.00501 8.08168 4.32247 7.44674C4.84742 6.39748 5.66358 5.76692 6.76285 5.47445C8.4258 5.032 10.08 5.07199 11.7061 5.65568C12.5629 5.96315 13.2065 6.51497 13.614 7.35113C14.0908 8.32853 14.6939 9.22656 15.4482 10.0152C15.9 10.4877 16.4006 10.8714 17.0774 10.9914C17.5542 11.0757 17.8911 11.3776 17.9792 11.8719C18.0667 12.3619 17.8498 12.7474 17.4649 13.0355C16.9762 13.4011 16.4268 13.4224 15.8569 13.2786C14.4927 12.9343 13.4671 12.1 12.6016 11.0332C12.5166 10.9283 12.4348 10.8208 12.351 10.7145C12.3454 10.7077 12.3323 10.7058 12.2629 10.677L12.2641 10.6764ZM12.0729 13.8405C11.9129 13.4792 11.7423 13.168 11.6336 12.8362C11.2493 11.6694 11.2855 10.4814 11.4861 9.28655C11.5298 9.02783 11.6192 8.81848 11.8998 8.77036C12.1873 8.72099 12.3266 8.90909 12.451 9.13344C12.8928 9.93024 13.4265 10.6583 14.1046 11.2732C14.7076 11.82 15.3769 12.2562 16.1937 12.3912C16.4137 12.4275 16.6593 12.3625 16.8812 12.3006C16.9599 12.2787 17.0361 12.1319 17.0468 12.035C17.0518 11.99 16.9024 11.8925 16.8137 11.8782C16.0231 11.7488 15.4201 11.2995 14.8745 10.7545C14.0046 9.88462 13.334 8.8691 12.7878 7.77546C12.4897 7.17927 12.0473 6.78056 11.4405 6.54871C10.0862 6.03064 8.69702 6.00565 7.29404 6.29499C6.32789 6.49434 5.58609 6.96679 5.13614 7.90545C4.67056 8.8766 4.01126 9.72901 3.21072 10.4596C2.66577 10.9564 2.06271 11.352 1.32029 11.4982C1.18468 11.5251 1.06531 11.6319 0.938452 11.7019C1.07031 11.8188 1.18593 11.9744 1.33966 12.0406C1.47027 12.0969 1.65213 12.0788 1.80024 12.045C2.13395 11.9694 2.47142 11.8913 2.78826 11.765C4.06063 11.2576 4.90116 10.2858 5.55485 9.12594C5.67546 8.91159 5.81357 8.73724 6.08167 8.76598C6.34976 8.79473 6.4685 8.99221 6.52224 9.23031C6.62536 9.68589 6.74222 10.1396 6.81221 10.6008C6.94845 11.4994 6.83721 12.3794 6.53849 13.1768C7.12406 13.3186 7.70275 13.4361 8.26769 13.6011C9.51068 13.9636 10.7731 13.9248 12.0735 13.8417L12.0729 13.8405ZM13.0641 16.2939C13.2928 16.2939 13.5259 16.3214 13.7502 16.2883C14.2102 16.2202 14.6776 16.159 15.1182 16.019C15.4969 15.899 15.5857 15.6309 15.4907 15.2409C15.4051 14.8878 15.1826 14.7035 14.6889 14.6872C14.0771 14.6672 13.4628 14.7047 12.8497 14.7116C11.6448 14.7254 10.4375 14.7872 9.23634 14.7254C8.60515 14.6929 7.98584 14.4385 7.36028 14.2885C6.93095 14.186 6.496 14.1129 6.07917 14.3204C5.98105 14.3691 5.86106 14.4991 5.86356 14.5885C5.86606 14.6741 6.00042 14.7879 6.10229 14.8322C6.32976 14.9322 6.57599 14.9885 6.80909 15.0766C8.82513 15.839 10.9343 16.1177 13.0641 16.2939ZM6.9947 16.1296C6.63348 16.004 6.27477 15.8709 5.91106 15.754C5.38799 15.5859 5.01303 15.2884 4.91866 14.711C4.90866 14.6504 4.8293 14.5623 4.77305 14.5548C4.13124 14.4666 3.48881 14.4254 2.85825 14.6279C2.57266 14.7197 2.41267 14.9097 2.39642 15.2228C2.36955 15.7384 2.62515 16.0471 3.26071 16.1783C4.50058 16.4333 5.74295 16.2771 6.9947 16.1296Z" fill="white" stroke="white" stroke-width="0.3"/>
<path d="M9.09034 4.81825C7.74923 4.817 6.67747 3.73524 6.68559 2.39101C6.69309 1.06927 7.76985 0.00250404 9.09909 4.30127e-06C10.4302 -0.00249544 11.5051 1.08489 11.5032 2.431C11.5007 3.74899 10.419 4.8195 9.09034 4.81825ZM9.08972 3.88897C9.90276 3.89585 10.5627 3.25154 10.5739 2.43975C10.5852 1.61046 9.93525 0.937407 9.11596 0.931157C8.28543 0.924283 7.62487 1.57047 7.61612 2.39788C7.608 3.22592 8.25605 3.8821 9.08972 3.88897Z" fill="white" stroke="white" stroke-width="0.3"/>
</g>
</g>
<defs>
<clipPath id="clip0_1158_3012">
<rect width="18" height="18" fill="white"/>
</clipPath>
<clipPath id="clip1_1158_3012">
<rect width="18" height="17.2307" fill="white"/>
</clipPath>
</defs>
</svg>
