<svg width="25" height="30" viewBox="0 0 25 30" fill="none" xmlns="http://www.w3.org/2000/svg">
<g clip-path="url(#clip0_474_14183)">
<path d="M24.1801 10.2155C21.9648 11.6962 20.7365 13.6852 20.8972 16.3545C21.059 19.0416 22.57 20.8294 24.9998 22.0311C24.8288 22.4777 24.6676 22.9479 24.4709 23.4034C23.6645 25.2706 22.5325 26.9371 21.1517 28.4427C20.6592 28.9799 20.086 29.4261 19.3922 29.7026C18.4136 30.0927 17.4383 30.0054 16.4735 29.6621C15.9459 29.4743 15.4405 29.2242 14.9077 29.0541C13.3583 28.5597 11.8566 28.7443 10.3761 29.3696C9.7949 29.6151 9.18027 29.8122 8.56093 29.938C7.45893 30.1617 6.51907 29.7588 5.68825 29.0695C4.91447 28.4275 4.31523 27.637 3.70909 26.8514C1.86033 24.4552 0.746386 21.7534 0.235922 18.8096C-0.112714 16.7992 -0.121669 14.7915 0.528626 12.8275C1.29393 10.5158 2.73734 8.77078 5.07614 7.82564C6.79041 7.13291 8.51159 7.15947 10.2218 7.86771C10.5979 8.02355 10.9868 8.15052 11.3605 8.31142C12.2459 8.69233 13.1108 8.67222 14.01 8.31541C14.8755 7.97196 15.7571 7.63941 16.6619 7.42401C19.108 6.84166 22.2552 7.60563 24.0654 10.0439C24.1047 10.0967 24.1388 10.1532 24.1804 10.2155H24.1801Z" fill="white"/>
<path d="M18.5831 0.00246641C18.7105 0.647144 18.6475 1.27678 18.4844 1.88921C17.861 4.22933 16.4638 5.91403 14.0728 6.70027C13.6395 6.84274 13.1549 6.83752 12.6938 6.89817C12.4657 6.92826 12.4055 6.8039 12.3932 6.60508C12.3466 5.85216 12.4735 5.1255 12.7551 4.42939C13.6976 2.09924 15.4244 0.646683 17.9175 0.0654142C18.0577 0.0327121 18.2032 0.019969 18.3468 0.00369466C18.4137 -0.00382837 18.4822 0.00246641 18.5831 0.00246641Z" fill="white"/>
</g>
<defs>
<clipPath id="clip0_474_14183">
<rect width="25" height="30" fill="white"/>
</clipPath>
</defs>
</svg>
