<svg width="100" height="100" viewBox="0 0 108 108" fill="none" xmlns="http://www.w3.org/2000/svg">
<g clip-path="url(#clip0_1018_12570)">
<path d="M96.9534 22.8105L96.2566 22.1167C96.1271 21.9887 95.9987 21.8583 95.8703 21.7291C95.4385 21.2937 94.9926 20.8432 94.5293 20.4451C93.8885 19.8945 92.9864 19.8165 92.2861 20.2519C91.7539 20.5825 91.4131 21.0749 91.3256 21.636C91.2392 22.1971 91.4166 22.7698 91.8274 23.2494C92.3141 23.8163 92.8755 24.3541 93.4194 24.8756L93.5442 24.9943C93.7135 25.1561 93.9387 25.4145 93.9422 25.7824C93.9457 26.1514 93.7216 26.418 93.5536 26.5856C92.9397 27.1967 92.3234 27.83 91.7282 28.4423C91.3057 28.8765 90.8821 29.3119 90.4561 29.7437C90.3755 29.8252 90.3055 29.8974 90.2437 29.9614C89.6134 30.6156 89.2621 30.7343 88.5502 30.1034C88.4731 30.0359 88.3821 29.9544 88.2701 29.8613C85.3021 27.3853 81.9653 25.3994 78.3531 23.956C75.0455 22.6348 71.5629 21.8059 68.0043 21.4928C67.7044 21.466 66.7906 21.3857 66.8092 20.21C66.8384 18.3708 66.8396 16.3953 66.8127 14.1731C66.8092 13.9031 66.8372 13.5119 67.1208 13.2291C67.4045 12.9462 67.7966 12.9171 68.0662 12.9206C69.9861 12.9415 72.0589 12.9415 74.5904 12.9206C74.9568 12.9171 75.2766 12.8659 75.517 12.7704C76.3994 12.42 76.8639 11.561 76.7005 10.5808C76.5534 9.70426 75.782 9.05588 74.8226 9.00466C74.7386 9 74.6499 9 74.5542 9H69.8636C64.971 9.00233 60.0797 9.00349 55.1871 9H55.1836C54.5055 9 54.0317 9.13969 53.6477 9.45166C53.0151 9.96618 52.7677 10.8288 53.0326 11.5982C53.3139 12.4142 54.0445 12.9241 54.9409 12.9287C56.9693 12.9404 59.2685 12.9543 61.521 12.9159C61.814 12.9113 62.2365 12.9392 62.5353 13.2372C62.8294 13.5306 62.8632 13.9252 62.8574 14.2721C62.8259 16.194 62.8259 18.1659 62.8574 20.1308C62.8702 20.9562 62.5154 21.3659 61.6681 21.5009C61.1721 21.5801 60.6737 21.6546 60.1754 21.7291C58.4831 21.9817 56.7347 22.2436 55.0833 22.6906C47.1142 24.8535 40.5119 29.3282 35.4583 35.989C34.388 37.3998 33.4649 38.9818 32.5732 40.5102L32.3526 40.8885C31.9616 41.5579 32.1238 42.4379 32.7576 43.0781C33.2968 43.6229 34.1896 43.7882 34.9284 43.4798C35.4793 43.2493 35.7839 42.7638 36.127 42.1527C38.7846 37.4068 42.3874 33.5526 46.8376 30.6983C54.0935 26.0443 62.0591 24.4204 70.5125 25.872C76.3025 26.8661 81.5067 29.3014 85.979 33.1079C92.0072 38.2391 95.7559 44.7986 97.1214 52.6037C98.2384 58.9887 97.4681 65.2642 94.8292 71.2591C91.7644 78.2237 86.7622 83.5645 79.9614 87.1324C75.384 89.5339 70.4331 90.7829 65.2441 90.8446C62.5866 90.876 59.8217 90.5617 56.7861 89.8842C56.6238 89.8482 56.4628 89.8307 56.3064 89.8307C55.3949 89.8307 54.6199 90.4232 54.4098 91.3463C54.1589 92.451 54.8043 93.4568 55.9469 93.7373C61.416 95.0818 66.8921 95.2052 72.2246 94.104C79.4572 92.6105 85.7725 89.2067 90.9964 83.9859C94.3367 80.6473 96.9627 76.7105 98.8009 72.2847C101.36 66.1221 102.189 59.6475 101.266 53.0414C100.388 46.7671 97.9664 40.984 94.0659 35.8563C93.7368 35.4232 93.3879 34.9925 93.0517 34.5769C92.8942 34.3825 92.7389 34.1893 92.586 33.9984L92.2616 33.591L97.2778 28.6018L97.6898 29.029C97.8742 29.2199 98.0551 29.4131 98.236 29.604C98.6644 30.0592 99.0693 30.4887 99.5047 30.8892C99.8455 31.2023 100.193 31.4246 100.51 31.5329C101.316 31.8076 102.237 31.4561 102.699 30.6948C103.188 29.8892 103.068 28.93 102.393 28.2514C100.585 26.4319 98.7367 24.5916 96.9499 22.8117L96.9534 22.8105Z" fill="#53545D"/>
<path d="M50.7018 79.0421C50.5267 78.8908 50.34 78.7383 50.1603 78.5916C49.83 78.3215 49.488 78.0433 49.1706 77.7313C48.8905 77.4566 48.6967 76.9968 48.6885 76.5859C48.657 75.0807 48.6582 73.6862 48.6909 72.3242C48.7002 71.9098 48.9021 71.4477 49.2044 71.1462C49.5149 70.8366 49.851 70.5653 50.1754 70.3034C50.3423 70.1684 50.5011 70.0415 50.6563 69.9076C51.9109 68.8355 52.5377 67.5108 52.5715 65.8578L52.5797 65.4562L52.5937 65.4516C52.5657 65.3468 52.5377 65.2432 52.5097 65.1408C52.3474 64.5331 52.1945 63.9592 51.9448 63.4435C51.4196 62.3586 50.7567 61.2085 49.9222 59.9269C48.8916 58.3472 47.3849 57.5405 45.444 57.5277C44.5231 57.5196 43.663 57.8502 42.7538 58.1994C42.4924 58.2995 42.2204 58.4031 41.9485 58.4986C41.4443 58.6744 41.023 58.6255 40.5421 58.3344C39.2723 57.565 38.0923 56.8852 36.9369 56.2554C36.6229 56.0843 36.1934 55.7781 36.0861 55.096C35.9694 54.3522 35.8503 53.6875 35.7219 53.0624C35.2773 50.9042 33.4274 49.2163 31.3243 49.0498C29.709 48.9218 28.131 48.9101 26.6348 49.0149C24.0683 49.1953 22.2138 50.9356 21.7948 53.5583L21.7528 53.8272C21.6793 54.3009 21.6022 54.791 21.4715 55.2753C21.3723 55.6396 21.0817 56.0145 20.7479 56.2077C20.4316 56.3916 20.1013 56.5476 19.7827 56.6989C19.247 56.9527 18.7416 57.1925 18.353 57.5289C16.8357 58.8443 15.4212 58.5358 14.1199 58.0062C11.5756 56.9713 9.08029 57.7664 7.60623 60.0817C6.84177 61.283 6.16017 62.4925 5.58129 63.6752C4.72463 65.4248 4.83434 67.1511 5.89757 68.6679C6.36675 69.3372 7.011 69.8995 7.69259 70.4955C7.91551 70.6899 8.14543 70.8901 8.36718 71.0938C8.79785 71.4884 8.97408 71.904 8.95657 72.4837C8.93557 73.2101 8.93907 73.9539 8.94257 74.6733C8.9449 75.3043 8.9484 75.9561 8.93557 76.5999C8.92623 77.041 8.73599 77.5078 8.44888 77.7895C8.16177 78.0724 7.85249 78.3227 7.5537 78.5648C7.30394 78.7674 7.06702 78.9583 6.8476 79.1643C4.64526 81.2212 4.80866 83.2467 5.33269 84.5842C5.97577 86.2221 6.9293 87.9065 8.16761 89.5921C9.22384 91.0285 10.887 91.6338 12.8501 91.2951C13.5795 91.1694 14.2914 90.9074 15.0442 90.6292C15.2613 90.5489 15.4772 90.4698 15.6931 90.3929C15.8939 90.3219 16.0818 90.2858 16.2639 90.2858C16.5615 90.2858 16.8416 90.3813 17.1287 90.5769C17.3108 90.7002 17.4928 90.8306 17.6679 90.9563C18.2106 91.3463 18.7241 91.7141 19.2715 91.9074C21.2182 92.5942 21.6617 94.0004 21.8497 95.4182C22.2045 98.0828 24.0041 99.7276 26.7889 99.929C28.0785 100.022 29.4627 100.022 31.0208 99.9267C33.2652 99.7893 35.0952 98.2911 35.6846 96.1108C35.8351 95.5544 35.9227 94.9817 36.0172 94.3752C36.0452 94.1913 36.0744 94.0074 36.1036 93.8234C36.1923 93.2856 36.4736 92.905 36.9894 92.6256C38.0293 92.0634 39.1591 91.4115 40.5421 90.5757C40.9132 90.351 41.3754 90.1555 41.9812 90.4104C42.5542 90.6502 43.1448 90.8551 43.8555 91.0879C46.2434 91.8713 48.7212 90.9738 50.0202 88.854C50.6691 87.7947 51.3075 86.6842 51.9179 85.5516C53.1352 83.2921 52.6579 80.7358 50.7018 79.0398V79.0421ZM44.5873 71.5222C44.9736 73.4906 44.969 75.5115 44.5745 77.5276C44.4006 78.4146 44.6352 79.1026 45.3144 79.6916C45.9388 80.2329 46.5784 80.78 47.1981 81.3085L47.8774 81.8894C48.6617 82.5599 48.7597 83.1175 48.252 84.0208L47.9789 84.5086C47.581 85.2186 47.1701 85.952 46.7395 86.6644C46.5912 86.91 46.3835 87.0881 46.2178 87.2313C46.1594 87.2814 46.1034 87.3291 46.0602 87.3722L45.8093 87.6189L45.4732 87.5119C45.3459 87.4711 45.2316 87.4362 45.1265 87.4036C44.9176 87.3384 44.7379 87.2825 44.5581 87.2185C44.1181 87.0602 43.6781 86.8984 43.2381 86.7378C42.6744 86.5317 42.1107 86.3257 41.5458 86.1231C40.7592 85.8426 40.0718 85.9625 39.4427 86.491C37.7574 87.9088 35.9168 88.96 33.9701 89.6153C33.1368 89.8959 32.6804 90.45 32.5346 91.3603C32.4365 91.9691 32.3221 92.5814 32.2113 93.1739C32.1121 93.707 32.0082 94.2576 31.9195 94.7989C31.7853 95.6103 31.2566 96.0585 30.4303 96.0585C30.1 96.0585 29.7697 96.0585 29.4394 96.0561C28.7333 96.0538 28.0038 96.0515 27.2896 96.0643C27.2756 96.0643 27.2615 96.0643 27.2475 96.0643C26.392 96.0643 25.8423 95.6033 25.6976 94.7617C25.6241 94.3391 25.5482 93.9166 25.4724 93.494C25.351 92.82 25.2261 92.1227 25.1152 91.4324C24.9612 90.4733 24.485 89.8912 23.6178 89.599C21.6536 88.9378 19.8609 87.917 18.29 86.5631C17.6002 85.9695 16.8883 85.8379 16.0479 86.1476C15.001 86.534 13.9086 86.9263 12.7999 87.314C11.8183 87.6574 11.3562 87.4874 10.8204 86.5853C10.4983 86.044 10.1797 85.4899 9.87159 84.9556C9.67085 84.6075 9.47127 84.2606 9.26819 83.9137C8.85503 83.206 8.97175 82.525 9.59498 81.9942C10.3991 81.3109 11.4542 80.4087 12.4941 79.4879C13.0333 79.0107 13.2282 78.41 13.0916 77.6533C12.7065 75.5196 12.7065 73.3684 13.0916 71.2568C13.2399 70.4408 12.9878 69.7773 12.3202 69.2255C11.9771 68.9414 11.6363 68.6539 11.2955 68.3676C10.7563 67.9124 10.1984 67.4421 9.6405 66.9975C8.99042 66.4806 8.86087 65.8031 9.27753 65.0884C9.65917 64.4342 10.0385 63.7776 10.4166 63.1211L10.9092 62.2678C11.3036 61.5857 11.956 61.3529 12.6995 61.6288C13.8549 62.0571 15.0209 62.4692 16.1471 62.8673C16.9023 63.1339 17.5395 63.0338 18.0974 62.5623C19.7827 61.134 21.7084 60.0375 23.8221 59.303C24.534 59.055 24.953 58.5032 25.1024 57.6151C25.2985 56.4521 25.477 55.4196 25.6486 54.4581C25.8575 53.287 26.2613 52.9471 27.4483 52.9413C28.3446 52.9367 29.2888 52.9367 30.254 52.939C31.399 52.9425 31.7701 53.2533 31.9837 54.3836C32.1938 55.5011 32.384 56.6151 32.5602 57.6604C32.7073 58.53 33.1531 59.0806 33.9258 59.3425C35.981 60.0421 37.8577 61.1108 39.5022 62.5193C40.0881 63.021 40.7417 63.1374 41.5038 62.8766C42.1796 62.645 42.8635 62.3947 43.5252 62.1526C43.9454 61.9989 44.3656 61.8453 44.7857 61.6951C45.8233 61.3249 46.3088 61.5007 46.8643 62.4506C47.4164 63.3947 47.9042 64.2363 48.3559 65.0232C48.8403 65.8683 48.7411 66.4201 47.9894 67.0591L47.7864 67.2314C47.0347 67.8693 46.2575 68.5294 45.4732 69.1603C44.669 69.8064 44.3959 70.5351 44.5896 71.521L44.5873 71.5222Z" fill="#53545D"/>
<path d="M57.4406 58.608C57.4955 59.0608 57.548 59.4892 57.6554 59.8943C58.1852 61.9012 59.4854 63.5518 61.3154 64.5436C63.1151 65.5191 65.1634 65.71 67.0833 65.0814C69.0767 64.4284 70.6581 63.035 71.5358 61.1596C72.4065 59.2983 72.4602 57.2146 71.6899 55.2939C71.4249 54.6339 71.5393 54.1147 72.0598 53.6107C72.7554 52.9367 73.4522 52.2382 74.1256 51.5631C74.4816 51.2069 74.8364 50.8495 75.1947 50.4944C76.0292 49.6656 76.8637 48.838 77.6993 48.0115C79.4267 46.2991 81.2135 44.5298 82.9595 42.7778C83.3948 42.3413 83.6329 41.8012 83.6294 41.2599C83.6259 40.7605 83.4147 40.2809 83.0342 39.9096C82.2324 39.1261 81.0618 39.1657 80.1876 40.0062C79.5095 40.6569 78.8536 41.2983 78.235 41.9106L77.2838 42.8535C74.6135 45.5006 71.8533 48.2385 69.1502 50.9426C68.6916 51.4013 68.2142 51.4944 67.6026 51.2441C65.2871 50.2954 62.7731 50.5329 60.7062 51.8948C58.6287 53.2638 57.4126 55.4871 57.3647 58.0027C57.3951 58.2064 57.4196 58.4101 57.4441 58.608H57.4406ZM64.8238 54.6257C65.7224 54.6176 66.5698 54.961 67.2058 55.5896C67.8641 56.2403 68.2259 57.1215 68.227 58.0725C68.2282 59.9921 66.7343 61.5054 64.8261 61.5182H64.8051C63.8644 61.5182 62.9389 61.1271 62.2608 60.4426C61.6492 59.8245 61.3201 59.0469 61.3353 58.253C61.3749 56.132 62.8093 54.6409 64.8249 54.6257H64.8238Z" fill="#53545D"/>
<path d="M66.781 80.7381C66.781 80.6788 66.7834 80.6194 66.7845 80.5589C66.795 80.0083 66.8055 79.4891 66.7647 78.9734C66.6853 77.963 65.8823 77.2308 64.8541 77.2308H64.8483C63.7932 77.2343 62.9634 77.9677 62.9167 78.9373C62.842 80.5007 62.842 82.085 62.9179 83.6472C62.9634 84.5912 63.792 85.3374 64.8051 85.3467C65.845 85.3572 66.6736 84.6401 66.76 83.6425C66.8044 83.1303 66.7939 82.6111 66.781 82.0629C66.7752 81.8172 66.7705 81.5635 66.7705 81.3097V80.737H66.7822L66.781 80.7381Z" fill="#53545D"/>
<path d="M92.1426 57.9957C92.1076 56.9329 91.2813 56.1495 90.176 56.132C89.6975 56.125 89.2085 56.1262 88.7346 56.1285C88.5187 56.1285 88.3016 56.1309 88.0845 56.1309H87.4461C87.2477 56.1309 87.0493 56.1309 86.8509 56.1309C86.6023 56.1309 86.3537 56.1309 86.104 56.1332C84.91 56.1402 84.0673 56.8956 84.0067 58.0132C83.9798 58.5207 84.1502 59.0061 84.4887 59.3774C84.8446 59.7697 85.3547 59.9991 85.9231 60.0247C87.3504 60.0887 88.842 60.0829 90.3557 60.0084C91.426 59.956 92.1764 59.1097 92.1403 57.998L92.1426 57.9957Z" fill="#53545D"/>
<path d="M66.7774 35.4803H66.7424V34.9052C66.7424 34.6282 66.7506 34.3499 66.7576 34.0799C66.7739 33.4792 66.7903 32.9123 66.7272 32.3582C66.628 31.4805 65.8146 30.838 64.8202 30.838C64.7933 30.838 64.7665 30.838 64.7396 30.8391C63.7943 30.8717 62.9645 31.6016 62.9283 32.4316C62.8501 34.2009 62.8478 35.7794 62.9201 37.2578C62.9668 38.1972 63.7978 38.9399 64.8132 38.9504C65.8472 38.9597 66.6642 38.2379 66.7587 37.2333C66.8066 36.7235 66.7938 36.2066 66.7809 35.6595C66.7798 35.6002 66.7786 35.5408 66.7763 35.4803H66.7774Z" fill="#53545D"/>
<path d="M48.6196 44.6578C49.0024 45.0291 49.4587 45.1746 50.0131 45.1036C50.8301 44.9989 51.3705 44.5938 51.6646 43.8651C51.9715 43.1049 51.8466 42.4204 51.2923 41.8303C50.4134 40.8944 49.363 39.8013 48.2321 38.7874C48.0068 38.586 47.6719 38.4451 47.3159 38.2961C47.2891 38.2845 47.2622 38.274 47.2354 38.2624L46.9273 38.2542C46.9086 38.2542 46.8899 38.2542 46.8724 38.2542C46.1033 38.2542 45.4018 38.7047 45.1136 39.3892C44.7728 40.1971 44.8766 40.8967 45.4217 41.4694C46.4639 42.5636 47.5738 43.6462 48.6207 44.6601L48.6196 44.6578Z" fill="#53545D"/>
<path d="M81.0325 71.5385C80.6823 71.2137 80.2435 71.0542 79.793 71.0542C79.2573 71.0542 78.7041 71.2801 78.2618 71.7236C77.607 72.379 77.5977 73.5617 78.2419 74.2543C79.2538 75.3427 80.3392 76.4253 81.4666 77.4729C82.1832 78.1388 82.9699 78.0037 83.5033 77.7733C84.2595 77.4461 84.6459 76.8676 84.682 76.005L84.6925 75.7466C84.6774 75.7059 84.6622 75.6663 84.647 75.6255C84.514 75.2682 84.3879 74.9318 84.1965 74.7176C83.3294 73.7479 82.3233 72.7375 81.0313 71.5385H81.0325Z" fill="#53545D"/>
<path d="M28.8836 64.5774H28.8778C23.2838 64.5809 18.8756 68.9345 18.8429 74.4894C18.8278 77.0993 19.856 79.5776 21.7385 81.468C23.6398 83.3771 26.1526 84.4294 28.8124 84.4306H28.8182C34.2955 84.4306 38.7609 79.9745 38.7749 74.4952C38.7819 71.8481 37.7501 69.3559 35.8699 67.4782C33.999 65.6087 31.5178 64.5785 28.8836 64.5785V64.5774ZM28.8614 80.503C28.8521 80.503 28.8416 80.503 28.8322 80.503C27.2403 80.503 25.7347 79.8814 24.5886 78.7499C23.4355 77.6115 22.7959 76.1051 22.7889 74.508C22.7819 72.9191 23.404 71.4174 24.5396 70.279C25.6869 69.13 27.2111 68.4968 28.8311 68.4968H28.8322C32.1842 68.4968 34.8137 71.1497 34.8172 74.5348C34.8207 77.8093 32.1492 80.4855 28.8603 80.5018L28.8614 80.503Z" fill="#53545D"/>
</g>
<defs>
<clipPath id="clip0_1018_12570">
<rect width="98" height="91" fill="white" transform="translate(5 9)"/>
</clipPath>
</defs>
</svg>
