<svg width="108" height="108" viewBox="0 0 108 108" fill="none" xmlns="http://www.w3.org/2000/svg">
<g clip-path="url(#clip0_600_4700)">
<path d="M108 55.7727C107.825 56.3606 107.729 56.9685 107.155 57.3708C106.103 58.109 104.644 57.6205 104.464 56.3441C104.344 55.4909 104.412 54.5846 104.553 53.727C104.699 52.8418 105.323 52.4107 106.136 52.4008C107.022 52.3909 107.606 52.8296 107.882 53.7082C107.914 53.8099 107.96 53.9072 108 54.0055V55.7716V55.7727Z" fill="#53545D"/>
<path d="M54.2493 14.4767C74.8869 14.3153 93.9766 31.9816 93.543 54.7935C93.1392 76.0902 75.1705 93.7664 53.8167 93.5752C30.8974 93.3697 14.1622 74.0556 14.4292 53.6143C14.7238 31.0654 33.9977 14.0103 54.2481 14.4767H54.2493ZM53.8024 18.053C34.791 17.948 18.3261 33.037 17.9973 53.5458C17.6829 73.2068 33.3633 89.9823 54.1224 89.9911C72.9936 89.9989 89.773 74.9663 89.9694 54.3868C90.1658 33.846 73.9679 17.8862 53.8024 18.0541V18.053Z" fill="#53545D"/>
<path d="M88.2747 12.2265V11.5601C88.2747 8.26663 88.2747 4.9732 88.2747 1.67978C88.2747 0.451929 89.6914 -0.395741 90.7848 0.188897C91.3011 0.465191 91.6244 0.796744 91.6255 1.50627C91.6354 6.34473 91.7105 11.1832 91.7623 16.0216C91.7689 16.6615 91.7623 17.3025 91.7623 17.9657C91.5052 17.9889 91.364 18.0132 91.2239 18.0121C86.1001 17.9756 80.9762 17.9413 75.8524 17.8938C74.6476 17.8828 74.1808 17.5269 73.9149 16.5101C73.6656 15.5597 74.2702 14.6026 75.2511 14.491C76.0333 14.4026 76.8255 14.3794 77.6144 14.3749C80.0561 14.3606 82.4977 14.3694 85.0508 14.3694C84.8842 14.2103 84.797 14.1097 84.6922 14.0312C78.2422 9.16735 71.1125 5.79656 63.1277 4.42946C52.0559 2.53408 41.39 3.87024 31.3079 8.93415C21.047 14.0887 13.4042 21.8658 8.49554 32.2987C6.30544 36.9526 4.731 41.7988 4.11865 46.9091C3.78214 49.7163 3.70821 52.5554 3.51403 55.3803C3.49638 55.6367 3.48093 55.8942 3.44121 56.1484C3.30991 56.9784 2.81893 57.4337 1.97379 57.5243C1.21139 57.6061 0.512987 57.2337 0.304459 56.4733C0.11248 55.7759 -0.0055755 55.0299 -5.88764e-05 54.3072C0.0595206 47.3081 1.2158 40.5079 3.93109 34.0327C9.96296 19.6444 20.2415 9.53095 34.6785 3.69562C39.7273 1.65547 44.9979 0.417669 50.4406 0.0960625C52.6704 -0.0354534 54.9201 0.0872211 57.1577 0.167899C64.3679 0.427615 71.1633 2.33846 77.6078 5.51584C81.3514 7.36149 84.8765 9.584 88.2747 12.2276V12.2265Z" fill="#53545D"/>
<path d="M4.73105 64.6594C4.63616 65.6198 4.13635 66.2586 3.22832 66.4553C2.42841 66.6288 1.58878 66.2354 1.33612 65.4076C1.07022 64.5379 0.916854 63.6239 0.812039 62.7187C0.739219 62.0899 1.41445 61.4268 2.15478 61.2422C2.93042 61.0488 3.78219 61.3439 4.05802 62.0722C4.37247 62.9 4.51479 63.7941 4.73105 64.6594Z" fill="#53545D"/>
<path d="M89.6803 93.8991C89.4828 94.2759 89.3725 94.7578 89.0712 95.0098C88.4015 95.5679 87.6656 96.0652 86.8988 96.4819C86.2335 96.8443 85.4711 96.5658 85.0077 95.9381C84.5222 95.2805 84.4836 94.3831 85.022 93.8548C85.6079 93.2802 86.2368 92.7276 86.9209 92.2778C88.4357 91.282 89.5722 92.6657 89.6803 93.8991Z" fill="#53545D"/>
<path d="M38.9132 103.377C38.9154 104.396 37.7757 105.355 36.7838 105.135C35.8294 104.923 34.9181 104.592 34.18 103.913C33.5533 103.336 33.4407 102.765 33.7894 102.095C34.1877 101.33 34.9722 100.815 35.6507 101.043C36.5422 101.342 37.4215 101.726 38.2347 102.195C38.5944 102.402 38.7797 102.911 39.0445 103.282L38.911 103.377H38.9132Z" fill="#53545D"/>
<path d="M54.1202 104.418C54.4259 104.451 54.9047 104.468 55.3692 104.56C56.0786 104.699 56.5586 105.439 56.5277 106.269C56.4957 107.143 56.0058 107.796 55.2445 107.877C54.4998 107.958 53.7473 107.996 52.9982 108C52.2181 108.004 51.2494 107.051 51.1887 106.275C51.1369 105.61 52.0151 104.533 52.7477 104.427C53.1416 104.371 53.5498 104.417 54.1202 104.417V104.418Z" fill="#53545D"/>
<path d="M16.6459 88.7445C16.6382 89.9304 15.1851 90.7615 14.1458 90.1271C13.166 89.5292 12.4809 88.6329 12.0296 87.583C11.7769 86.9961 12.002 86.4789 12.4389 86.0335C12.9707 85.4909 13.6007 85.3505 14.3058 85.5517C15.269 85.8268 16.6514 87.7344 16.6459 88.7445Z" fill="#53545D"/>
<path d="M94.0794 85.4721C94.8263 85.5826 95.3559 85.9053 95.7001 86.5043C96.0411 87.0967 96.0444 87.7255 95.6295 88.2671C95.1529 88.8904 94.641 89.5004 94.0683 90.0342C93.4372 90.6244 92.4299 90.5338 91.7624 89.9248C91.1092 89.3303 90.9768 88.4881 91.5252 87.7487C92.0029 87.1055 92.559 86.5121 93.1349 85.9539C93.3777 85.7185 93.7605 85.6279 94.0794 85.471V85.4721Z" fill="#53545D"/>
<path d="M62.2407 107.358C61.1793 107.368 60.4909 106.884 60.2558 106.075C60.0517 105.37 60.3607 104.592 61.1076 104.162C62.0763 103.605 63.1576 103.449 64.2444 103.621C64.903 103.725 65.3069 104.246 65.4955 104.887C65.6699 105.478 65.4569 105.978 65.0454 106.391C64.2267 107.213 63.1388 107.243 62.2396 107.358H62.2407Z" fill="#53545D"/>
<path d="M9.37152 83.1921C9.03169 83.0009 8.58154 82.8882 8.37191 82.6009C7.85114 81.8825 7.36567 81.1177 7.00599 80.3087C6.65513 79.5207 7.01151 78.7184 7.72977 78.273C8.47452 77.811 9.20271 77.8386 9.79409 78.5714C10.3568 79.271 10.8577 80.0711 11.1721 80.9077C11.5914 82.0217 10.6282 83.1391 9.37041 83.1921H9.37152Z" fill="#53545D"/>
<path d="M103.274 64.5854C103.448 63.8582 103.571 63.1144 103.806 62.4071C104.097 61.5318 104.765 61.2533 105.861 61.4445C106.549 61.5649 107.151 62.2767 107.099 63.0436C107.048 63.7885 106.951 64.5445 106.757 65.2628C106.48 66.2851 105.66 66.7847 104.733 66.6156C103.846 66.4542 103.298 65.6552 103.274 64.5865V64.5854Z" fill="#53545D"/>
<path d="M7.17275 73.1052C7.18599 74.1054 6.73473 74.7983 6.02198 75.0657C5.38426 75.3056 4.70571 75.089 4.19046 74.4137C3.5395 73.5594 3.21733 72.5703 3.15995 71.5027C3.11582 70.7014 3.61232 70.2605 4.27542 69.9676C4.88997 69.6957 5.48466 69.814 5.97343 70.3478C6.73252 71.1766 7.08448 72.1857 7.17275 73.1063V73.1052Z" fill="#53545D"/>
<path d="M98.1948 83.3988C97.2812 83.2706 96.3908 82.1676 96.7031 81.3155C97.044 80.3816 97.5405 79.492 98.069 78.6454C98.4165 78.0873 99.2915 78.0453 100.03 78.4067C100.72 78.7449 101.129 79.3914 100.999 80.0335C100.792 81.0635 100.319 81.9897 99.5717 82.7114C99.2198 83.0518 98.6604 83.1766 98.1948 83.3999V83.3988Z" fill="#53545D"/>
<path d="M82.3919 99.1398C82.1448 99.5211 81.9771 100.02 81.6317 100.258C80.9333 100.742 80.161 101.147 79.3743 101.472C78.6075 101.789 77.7811 101.414 77.4038 100.718C76.9856 99.9466 77.0684 99.0735 77.769 98.5895C78.5137 98.0755 79.3291 97.618 80.1764 97.3152C81.2433 96.9339 82.3003 97.8788 82.2595 99.0514C82.3036 99.0801 82.3478 99.1089 82.3919 99.1387V99.1398Z" fill="#53545D"/>
<path d="M100.724 73.314C100.866 72.3658 101.265 71.3115 101.976 70.3975C102.311 69.9654 103.087 69.9046 103.719 70.1753C104.389 70.4627 104.842 71.0827 104.785 71.7602C104.698 72.7814 104.371 73.7373 103.757 74.564C103.279 75.2061 102.529 75.394 101.789 75.1299C101.059 74.869 100.725 74.3629 100.725 73.314H100.724Z" fill="#53545D"/>
<path d="M45.745 107.429C44.9153 107.222 44.0702 107.063 43.2614 106.793C42.5366 106.55 42.3082 105.98 42.4119 105.04C42.4979 104.261 42.9845 103.667 43.6796 103.583C44.6991 103.46 45.6943 103.625 46.6266 104.042C47.389 104.384 47.7619 105.277 47.549 106.077C47.3526 106.816 46.5836 107.361 45.745 107.43V107.429Z" fill="#53545D"/>
<path d="M21.4597 96.6222C21.1099 96.4785 20.7127 96.3979 20.4192 96.1779C19.8477 95.7524 19.2994 95.2827 18.8062 94.771C18.1188 94.0571 18.1089 93.2315 18.7003 92.4911C19.1725 91.8987 20.3001 91.6622 20.9566 92.1551C21.7134 92.7242 22.4118 93.3907 23.0529 94.0914C23.4898 94.5688 23.1963 95.1457 22.9514 95.6408C22.6502 96.2487 22.1217 96.5548 21.4597 96.6233V96.6222Z" fill="#53545D"/>
<path d="M30.6646 99.6172C30.6756 100.802 29.6705 101.709 28.7768 101.518C27.6547 101.277 26.6871 100.718 25.9578 99.814C25.4624 99.2006 25.4337 98.5353 25.8088 97.9727C26.259 97.2986 27.0181 96.8996 27.6944 97.2002C28.5352 97.5738 29.3384 98.0722 30.0721 98.6292C30.4119 98.8878 30.5498 99.4139 30.6657 99.6172H30.6646Z" fill="#53545D"/>
<path d="M68.9832 103.389C68.9942 102.769 69.2391 102.237 69.8029 101.996C70.5697 101.668 71.3674 101.369 72.1817 101.206C73.0599 101.032 73.8091 101.55 74.0441 102.309C74.3243 103.218 74.0298 103.998 73.1416 104.417C72.484 104.726 71.7845 104.972 71.0806 105.151C69.9773 105.432 68.9567 104.542 68.9843 103.389H68.9832Z" fill="#53545D"/>
<path d="M55.8856 40.9578C55.8856 42.1901 55.9043 43.4235 55.8745 44.6557C55.8646 45.0691 56.0058 45.2835 56.3699 45.4515C58.0117 46.2096 59.3544 47.3137 60.2448 48.9184C62.0134 52.1079 61.0524 55.8854 57.8649 58.0648C55.7223 59.5303 53.4351 59.8619 51.053 58.6462C50.6028 58.4163 50.3425 58.4693 49.9806 58.8296C45.4316 63.352 40.8627 67.8556 36.296 72.3603C35.943 72.7084 35.516 72.9891 35.2004 73.3649C34.5451 74.1452 33.2597 73.8048 32.7588 72.9726C32.2711 72.1636 32.2899 71.6486 32.9585 70.9667C37.7204 66.1105 42.4857 61.2577 47.2708 56.4259C47.6923 56.0004 47.7474 55.7174 47.5246 55.135C46.0991 51.4039 47.2476 47.7171 51.1126 45.7598C52.0151 45.3034 52.2821 44.848 52.2645 43.881C52.2181 41.3071 52.2942 38.732 52.3373 36.1569C52.3494 35.4187 52.4884 34.739 53.2563 34.3533C54.1423 33.909 55.2898 34.2903 55.5358 35.2507C55.7388 36.0431 55.7719 36.8808 55.8536 37.7009C55.8933 38.102 55.8734 38.5099 55.8745 38.9143C55.8767 39.5951 55.8745 40.2759 55.8745 40.9567H55.8823L55.8856 40.9578ZM54.0165 48.6907C51.8783 48.6974 50.8577 49.4809 50.4969 51.3973C50.1328 53.3281 51.3608 55.366 53.1681 55.7186C54.6443 56.007 55.9429 55.6191 56.8874 54.3835C57.8384 53.1413 57.7877 51.7687 57.1864 50.4259C56.5873 49.0875 55.3935 48.683 54.0165 48.6896V48.6907Z" fill="#53545D"/>
<path d="M52.2092 23.4187C52.2489 22.7346 52.271 22.0195 52.3383 21.3078C52.4167 20.4833 52.9672 19.9186 53.7616 19.7893C54.471 19.6743 55.1783 20.0457 55.4949 20.7696C55.6538 21.1321 55.7818 21.5421 55.7884 21.9322C55.8061 23.065 55.8612 24.2133 55.7035 25.3284C55.4828 26.8911 53.9657 27.4912 52.8734 26.5099C52.6119 26.2745 52.4034 25.8832 52.3471 25.5351C52.2357 24.851 52.2489 24.1481 52.2092 23.4187Z" fill="#53545D"/>
<path d="M84.5854 55.7838C83.9984 55.7838 83.4103 55.8048 82.8234 55.7782C82.0113 55.7418 81.1606 54.9737 81.0084 54.1779C80.8738 53.4728 81.7697 52.287 82.574 52.2538C83.9289 52.1986 85.2893 52.1952 86.6431 52.2638C87.5169 52.308 88.1557 53.1346 88.1513 54.0099C88.148 54.9051 87.4849 55.6732 86.5647 55.7517C85.9094 55.8081 85.2452 55.7628 84.5843 55.7628C84.5843 55.7694 84.5843 55.776 84.5843 55.7826L84.5854 55.7838Z" fill="#53545D"/>
<path d="M52.2114 84.7327C52.2534 84.0188 52.2754 83.3026 52.3416 82.5898C52.4233 81.7012 52.9893 81.1243 53.8333 81.0171C54.588 80.9221 55.3107 81.3387 55.56 82.1676C56.0455 83.7834 56.04 85.4323 55.5633 87.0492C55.3261 87.8549 54.5637 88.2936 53.8267 88.1986C52.9484 88.0858 52.3813 87.5244 52.3085 86.6038C52.2589 85.9838 52.2997 85.3572 52.2997 84.7338C52.2699 84.7338 52.2412 84.7327 52.2114 84.7316V84.7327Z" fill="#53545D"/>
<path d="M23.4787 55.8147C22.7472 55.7716 22.0135 55.7517 21.2842 55.681C20.4159 55.5959 19.9062 55.0002 19.8687 54.0906C19.8334 53.2164 20.4325 52.2947 21.218 52.2715C22.6777 52.2284 24.1485 52.245 25.6015 52.3732C26.5846 52.4594 26.9873 53.117 26.9333 54.1293C26.8891 54.9637 26.1995 55.702 25.3489 55.7583C24.7288 55.7992 24.1032 55.7661 23.4799 55.7661C23.4799 55.7826 23.4799 55.7981 23.4787 55.8147Z" fill="#53545D"/>
</g>
<defs>
<clipPath id="clip0_600_4700">
<rect width="108" height="108" fill="white"/>
</clipPath>
</defs>
</svg>
