<svg width="12" height="12" viewBox="0 0 12 12" fill="none" xmlns="http://www.w3.org/2000/svg">
<path fill-rule="evenodd" clip-rule="evenodd" d="M0.97655 0.740283C1.18324 0.533594 1.51835 0.533594 1.72504 0.740283L6.11415 5.1294L10.5033 0.740283C10.71 0.533594 11.0451 0.533594 11.2518 0.740283C11.4584 0.946973 11.4584 1.28208 11.2518 1.48877L6.86264 5.87789L11.2518 10.267C11.4584 10.4737 11.4584 10.8088 11.2518 11.0155C11.0451 11.2222 10.71 11.2222 10.5033 11.0155L6.11415 6.62638L1.72504 11.0155C1.51835 11.2222 1.18324 11.2222 0.97655 11.0155C0.769861 10.8088 0.769861 10.4737 0.97655 10.267L5.36566 5.87789L0.97655 1.48877C0.769861 1.28208 0.769861 0.946973 0.97655 0.740283Z" fill="#BABABA"/>
</svg>
