<svg width="24" height="25" viewBox="0 0 24 25" fill="none" xmlns="http://www.w3.org/2000/svg">
<path d="M21.731 2.76906C21.2387 2.27687 20.5711 2.00037 19.875 2.00037C19.1789 2.00037 18.5113 2.27687 18.019 2.76906L16.862 3.92606L20.574 7.63806L21.731 6.48106C22.2232 5.98879 22.4997 5.32117 22.4997 4.62506C22.4997 3.92894 22.2232 3.26133 21.731 2.76906ZM19.513 8.69906L15.801 4.98706L3.651 17.1371C3.03385 17.7539 2.58017 18.5148 2.331 19.3511L1.531 22.0361C1.49237 22.1656 1.48949 22.3032 1.52266 22.4343C1.55583 22.5654 1.62381 22.685 1.71941 22.7806C1.81501 22.8762 1.93468 22.9442 2.06575 22.9774C2.19683 23.0106 2.33443 23.0077 2.464 22.9691L5.149 22.1691C5.98522 21.9199 6.74616 21.4662 7.363 20.8491L19.513 8.69906Z" fill="white"/>
</svg>
