<svg width="36" height="30" viewBox="0 0 36 30" fill="none" xmlns="http://www.w3.org/2000/svg">
<path d="M0.947368 1.73686V0.78949C0.696111 0.78949 0.455144 0.889302 0.277478 1.06697C0.0998119 1.24463 0 1.4856 0 1.73686H0.947368ZM35.0526 1.73686H36C36 1.4856 35.9002 1.24463 35.7225 1.06697C35.5449 0.889302 35.3039 0.78949 35.0526 0.78949V1.73686ZM0.947368 2.68423H35.0526V0.78949H0.947368V2.68423ZM34.1053 1.73686V24.4737H36V1.73686H34.1053ZM31.2632 27.3158H4.73684V29.2105H31.2632V27.3158ZM1.89474 24.4737V1.73686H0V24.4737H1.89474ZM4.73684 27.3158C3.98307 27.3158 3.26017 27.0164 2.72717 26.4834C2.19417 25.9504 1.89474 25.2275 1.89474 24.4737H0C0 25.73 0.499059 26.9348 1.38739 27.8232C2.27572 28.7115 3.48055 29.2105 4.73684 29.2105V27.3158ZM34.1053 24.4737C34.1053 25.2275 33.8058 25.9504 33.2728 26.4834C32.7398 27.0164 32.0169 27.3158 31.2632 27.3158V29.2105C32.5194 29.2105 33.7243 28.7115 34.6126 27.8232C35.5009 26.9348 36 25.73 36 24.4737H34.1053Z" fill="#5CC280"/>
<path d="M0.94751 1.73685L18.0001 18.7895L35.0528 1.73685" stroke="#5CC280" stroke-linecap="round" stroke-linejoin="round"/>
</svg>
