<?xml version="1.0" ?><svg fill="none" height="24" viewBox="0 0 24 24" width="24" xmlns="http://www.w3.org/2000/svg"><path clip-rule="evenodd" d="M17 9.66666H7C6.44772 9.66666 6 10.1144 6 10.6667V18.3333C6 18.8856 6.44772 19.3333 7 19.3333H17C17.5523 19.3333 18 18.8856 18 18.3333V10.6667C18 10.1144 17.5523 9.66666 17 9.66666ZM7 8.66666C5.89543 8.66666 5 9.56209 5 10.6667V18.3333C5 19.4379 5.89543 20.3333 7 20.3333H17C18.1046 20.3333 19 19.4379 19 18.3333V10.6667C19 9.56209 18.1046 8.66666 17 8.66666H7Z" fill="black" fill-rule="evenodd"/><path clip-rule="evenodd" d="M12 15.8333C12.7364 15.8333 13.3333 15.2364 13.3333 14.5C13.3333 13.7636 12.7364 13.1667 12 13.1667C11.2636 13.1667 10.6667 13.7636 10.6667 14.5C10.6667 15.2364 11.2636 15.8333 12 15.8333ZM12 16.8333C13.2887 16.8333 14.3333 15.7887 14.3333 14.5C14.3333 13.2113 13.2887 12.1667 12 12.1667C10.7113 12.1667 9.66668 13.2113 9.66668 14.5C9.66668 15.7887 10.7113 16.8333 12 16.8333Z" fill="black" fill-rule="evenodd"/><path clip-rule="evenodd" d="M10.1667 4.5C9.52233 4.5 9 5.02233 9 5.66667C9 5.94281 8.77614 6.16667 8.5 6.16667C8.22386 6.16667 8 5.94281 8 5.66667C8 4.47005 8.97005 3.5 10.1667 3.5H13.5C14.8807 3.5 16 4.61929 16 6V8.66667C16 8.94281 15.7761 9.16667 15.5 9.16667C15.2239 9.16667 15 8.94281 15 8.66667V6C15 5.17157 14.3284 4.5 13.5 4.5H10.1667Z" fill="black" fill-rule="evenodd"/></svg>
