<svg width="32" height="33" viewBox="0 0 32 33" fill="none" xmlns="http://www.w3.org/2000/svg">
<path d="M12.6865 16.132C12.6865 14.6254 12.8092 12.9294 13.2012 11.3494C13.5945 9.76402 14.2385 8.36936 15.2239 7.38402C16.3172 6.29069 17.8559 5.67736 19.5572 5.38669C21.2505 5.09469 23.0239 5.13736 24.4799 5.28002C25.1877 5.34263 25.8511 5.65222 26.3537 6.15461C26.8563 6.657 27.1662 7.32016 27.2292 8.02802C27.3705 9.48535 27.4132 11.256 27.1225 12.952C26.8292 14.652 26.2159 16.1907 25.1225 17.284C24.1372 18.2707 22.7412 18.916 21.1545 19.3094C19.5745 19.7014 17.8772 19.8254 16.3705 19.8254C15.0372 19.8254 13.9439 20.9067 13.9372 22.244C13.9265 24.504 13.6439 27.124 12.6892 29.136C12.6368 29.088 12.6013 29.0244 12.5879 28.9547C12.3031 27.7551 11.9601 26.5702 11.5599 25.404C11.3676 24.8482 11.1418 24.3046 10.8839 23.776C10.6465 23.3014 10.3612 22.832 10.0159 22.4867C9.66919 22.14 9.19985 21.8547 8.72519 21.6174C8.19615 21.3595 7.65205 21.1337 7.09585 20.9414C5.92884 20.5403 4.74299 20.1964 3.54252 19.9107C3.47341 19.8974 3.41035 19.8623 3.36252 19.8107C5.37585 18.8547 8.00252 18.5747 10.2652 18.5654C10.9084 18.5618 11.524 18.304 11.9777 17.848C12.4313 17.3921 12.6862 16.7752 12.6865 16.132ZM13.8092 5.97069C12.4745 7.30536 11.7025 9.08402 11.2599 10.868C10.8159 12.66 10.6852 14.5307 10.6865 16.1347C10.6855 16.2484 10.64 16.3571 10.5597 16.4376C10.4794 16.5181 10.3709 16.564 10.2572 16.5654C7.89585 16.5747 4.90252 16.8587 2.48119 18.0147C1.57185 18.4494 1.19185 19.3454 1.37985 20.1947C1.55719 20.9894 2.19985 21.6414 3.06919 21.8534C4.12919 22.112 5.35852 22.4467 6.42785 22.8267C6.96252 23.016 7.44119 23.2107 7.83052 23.4054C8.23319 23.6067 8.47985 23.7787 8.60119 23.9C8.72252 24.0227 8.89452 24.268 9.09585 24.6707C9.29052 25.06 9.48519 25.5374 9.67452 26.0707C10.0532 27.14 10.3865 28.368 10.6452 29.428C10.8572 30.2974 11.5092 30.94 12.3052 31.1174C13.1545 31.3067 14.0505 30.9267 14.4852 30.0174C15.6412 27.5987 15.9252 24.612 15.9385 22.2534C15.9385 22.0214 16.1345 21.8254 16.3692 21.8254C17.9719 21.8254 19.8439 21.6947 21.6359 21.2507C23.4225 20.8067 25.2012 20.0347 26.5372 18.6987C28.0305 17.2054 28.7612 15.2187 29.0932 13.2907C29.4265 11.3547 29.3719 9.38936 29.2199 7.83336C29.1118 6.66426 28.5979 5.56985 27.7675 4.7399C26.9371 3.90994 25.8423 3.39676 24.6732 3.28936C23.1185 3.13602 21.1532 3.08269 19.2172 3.41469C17.2879 3.74669 15.3025 4.47736 13.8092 5.97069ZM21.3359 7.16669C21.6895 7.16669 22.0286 7.30716 22.2787 7.55721C22.5287 7.80726 22.6692 8.1464 22.6692 8.50002C22.6692 8.85364 22.5287 9.19278 22.2787 9.44283C22.0286 9.69288 21.6895 9.83336 21.3359 9.83336C20.9822 9.83336 20.6431 9.69288 20.393 9.44283C20.143 9.19278 20.0025 8.85364 20.0025 8.50002C20.0025 8.1464 20.143 7.80726 20.393 7.55721C20.6431 7.30716 20.9822 7.16669 21.3359 7.16669Z" fill="white"/>
</svg>
