<svg width="16" height="16" viewBox="0 0 16 16" fill="none" xmlns="http://www.w3.org/2000/svg">
<path d="M6.48621 7.40856C6.48621 6.54748 6.55629 5.57819 6.78024 4.67519C7.00494 3.76915 7.37286 2.97208 7.93578 2.40895C8.56039 1.78409 9.43942 1.43356 10.4114 1.26744C11.3788 1.10056 12.3919 1.12494 13.2237 1.20648C13.6281 1.24226 14.007 1.4192 14.2942 1.70632C14.5813 1.99344 14.7584 2.37245 14.7944 2.777C14.8751 3.60989 14.8995 4.62185 14.7334 5.59114C14.5658 6.56272 14.2155 7.44209 13.5908 8.06695C13.0279 8.63084 12.2304 8.99966 11.3239 9.22445C10.4213 9.44849 9.45161 9.51936 8.59086 9.51936C7.82913 9.51936 7.20452 10.1374 7.20071 10.9017C7.19461 12.1933 7.03313 13.6907 6.48773 14.8405C6.45781 14.8131 6.43751 14.7768 6.42984 14.7369C6.26718 14.0513 6.07119 13.3741 5.84255 12.7076C5.7327 12.39 5.60373 12.0793 5.45635 11.7772C5.32077 11.5059 5.15776 11.2377 4.96047 11.0403C4.76242 10.8422 4.49429 10.6792 4.22312 10.5435C3.92088 10.3961 3.61004 10.2671 3.29229 10.1572C2.62558 9.92797 1.94811 9.73139 1.26228 9.56813C1.2228 9.56051 1.18677 9.54049 1.15945 9.51097C2.30966 8.96461 3.81026 8.80458 5.10291 8.79925C5.47035 8.79723 5.82207 8.64985 6.08125 8.38929C6.34043 8.12872 6.48601 7.77615 6.48621 7.40856ZM7.12758 1.6012C6.36509 2.36399 5.92405 3.38052 5.67116 4.4001C5.41751 5.42426 5.34286 6.49337 5.34362 7.41008C5.34303 7.47505 5.31702 7.53719 5.27117 7.5832C5.22532 7.62921 5.16328 7.65542 5.09834 7.65622C3.74932 7.66155 2.03925 7.82386 0.655949 8.48453C0.136451 8.73295 -0.0806408 9.24503 0.0267628 9.73044C0.128072 10.1846 0.495225 10.5572 0.991871 10.6784C1.59744 10.8262 2.29976 11.0175 2.91066 11.2347C3.21611 11.3429 3.48957 11.4541 3.712 11.5654C3.94204 11.6804 4.08296 11.7787 4.15228 11.8481C4.22159 11.9182 4.31986 12.0584 4.43488 12.2885C4.54609 12.511 4.6573 12.7839 4.76547 13.0887C4.9818 13.6998 5.17223 14.4016 5.32 15.0074C5.44112 15.5043 5.8136 15.8716 6.26835 15.9729C6.75357 16.0811 7.26546 15.8639 7.51378 15.3442C8.1742 13.9619 8.33644 12.255 8.34406 10.907C8.34406 10.7744 8.45604 10.6624 8.5901 10.6624C9.5057 10.6624 10.5752 10.5877 11.5989 10.334C12.6196 10.0802 13.6358 9.63899 14.399 8.87545C15.2522 8.02199 15.6696 6.88658 15.8593 5.7847C16.0497 4.67824 16.0185 3.55502 15.9316 2.66575C15.8699 1.99759 15.5763 1.37212 15.1019 0.897787C14.6275 0.423454 14.0021 0.130168 13.3341 0.0687817C12.446 -0.0188506 11.3232 -0.0493314 10.2171 0.140412C9.11493 0.330155 7.98072 0.747742 7.12758 1.6012ZM11.4275 2.28474C11.6296 2.28474 11.8233 2.36502 11.9662 2.50793C12.109 2.65083 12.1893 2.84466 12.1893 3.04676C12.1893 3.24886 12.109 3.44268 11.9662 3.58559C11.8233 3.72849 11.6296 3.80878 11.4275 3.80878C11.2255 3.80878 11.0318 3.72849 10.8889 3.58559C10.7461 3.44268 10.6658 3.24886 10.6658 3.04676C10.6658 2.84466 10.7461 2.65083 10.8889 2.50793C11.0318 2.36502 11.2255 2.28474 11.4275 2.28474Z" fill="white"/>
</svg>
