<svg width="14" height="14" viewBox="0 0 14 14" fill="none" xmlns="http://www.w3.org/2000/svg">
<path d="M5.88333 1.94184C6.16733 0.771176 7.83267 0.771176 8.11667 1.94184C8.15928 2.11771 8.24281 2.28103 8.36047 2.41851C8.47813 2.55599 8.62659 2.66375 8.79377 2.73301C8.96094 2.80227 9.14211 2.83108 9.32252 2.81709C9.50294 2.8031 9.6775 2.74671 9.832 2.65251C10.8607 2.02584 12.0387 3.20318 11.412 4.23251C11.3179 4.38695 11.2616 4.5614 11.2477 4.74169C11.2337 4.92198 11.2625 5.10302 11.3317 5.2701C11.4009 5.43717 11.5085 5.58556 11.6458 5.70321C11.7831 5.82086 11.9463 5.90445 12.122 5.94718C13.2927 6.23118 13.2927 7.89651 12.122 8.18051C11.9461 8.22312 11.7828 8.30666 11.6453 8.42432C11.5079 8.54198 11.4001 8.69044 11.3308 8.85761C11.2616 9.02479 11.2328 9.20595 11.2468 9.38637C11.2607 9.56678 11.3171 9.74134 11.4113 9.89584C12.038 10.9245 10.8607 12.1025 9.83133 11.4758C9.6769 11.3818 9.50244 11.3255 9.32215 11.3115C9.14186 11.2976 8.96082 11.3263 8.79375 11.3955C8.62667 11.4647 8.47828 11.5723 8.36063 11.7097C8.24298 11.847 8.1594 12.0101 8.11667 12.1858C7.83267 13.3565 6.16733 13.3565 5.88333 12.1858C5.84072 12.01 5.75719 11.8467 5.63953 11.7092C5.52187 11.5717 5.37341 11.4639 5.20623 11.3947C5.03906 11.3254 4.85789 11.2966 4.67748 11.3106C4.49706 11.3246 4.3225 11.381 4.168 11.4752C3.13933 12.1018 1.96133 10.9245 2.588 9.89518C2.68207 9.74074 2.73837 9.56629 2.75232 9.38599C2.76628 9.2057 2.7375 9.02466 2.66831 8.85759C2.59913 8.69052 2.49151 8.54212 2.35418 8.42447C2.21686 8.30683 2.05371 8.22324 1.878 8.18051C0.707333 7.89651 0.707333 6.23118 1.878 5.94718C2.05387 5.90456 2.21719 5.82103 2.35467 5.70337C2.49215 5.58571 2.5999 5.43725 2.66916 5.27007C2.73843 5.1029 2.76723 4.92173 2.75325 4.74132C2.73926 4.56091 2.68287 4.38634 2.58867 4.23184C1.962 3.20318 3.13933 2.02518 4.16867 2.65184C4.83533 3.05718 5.69933 2.69851 5.88333 1.94184Z" stroke="#54B676" stroke-linecap="round" stroke-linejoin="round"/>
<path d="M5 7.06384C5 7.59428 5.21071 8.10298 5.58579 8.47806C5.96086 8.85313 6.46957 9.06384 7 9.06384C7.53043 9.06384 8.03914 8.85313 8.41421 8.47806C8.78929 8.10298 9 7.59428 9 7.06384C9 6.53341 8.78929 6.0247 8.41421 5.64963C8.03914 5.27456 7.53043 5.06384 7 5.06384C6.46957 5.06384 5.96086 5.27456 5.58579 5.64963C5.21071 6.0247 5 6.53341 5 7.06384Z" stroke="#54B676" stroke-linecap="round" stroke-linejoin="round"/>
</svg>
