<svg width="82" height="84" viewBox="0 0 82 109" fill="none" xmlns="http://www.w3.org/2000/svg">
<g id="graphics" clip-path="url(#clip0_1_965)">
<path id="Vector" d="M42.6701 0C43.7165 0.141425 44.7696 0.243875 45.8081 0.432071C51.8974 1.53786 56.2874 5.61804 57.4456 11.6804C58.8519 19.0445 58.0235 26.1882 54.4395 32.8797C53.7162 34.2294 52.8241 35.5033 51.8895 36.7194C51.1674 37.6592 51.1841 38.6759 51.2311 39.7283C51.2378 39.8886 51.4793 40.0668 51.6481 40.1882C55.2779 42.8185 59.2745 44.7595 63.3828 46.5267C66.3117 47.7862 69.2284 49.1269 71.9851 50.7172C78.1381 54.2673 81.1867 59.8831 81.7054 66.784C82.062 71.5267 81.9625 76.3062 81.9826 81.069C82.0195 90.1726 81.9949 99.2762 81.996 108.38C81.996 108.565 81.996 108.749 81.996 108.977H78.611C78.611 108.771 78.611 108.54 78.611 108.31C78.5652 95.0345 78.4992 81.7595 78.4992 68.4844C78.4992 66.6125 78.2074 64.843 77.5624 63.1125C77.1376 61.9733 76.6714 60.8486 76.1617 59.559C68.4917 66.8463 61.2275 74.2717 53.7274 81.6793C54.0874 81.7082 54.3132 81.7305 54.539 81.745C55.3741 81.7996 56.2192 81.7873 57.042 81.9176C59.4019 82.2906 61.1861 84.1036 61.2521 86.5256C61.3549 90.3029 61.327 94.088 61.1951 97.8641C61.1179 100.08 59.2186 101.813 56.9693 101.885C52.9918 102.014 49.0109 102.099 45.0312 102.122C35.8777 102.176 26.7231 102.182 17.5696 102.206C17.4042 102.206 17.2387 102.206 17.0185 102.206V108.981H13.5787V102.171C12.33 102.171 11.145 102.189 9.96 102.167C8.23059 102.135 6.50007 102.104 4.77401 102.016C2.05189 101.878 0.230813 100.073 0.150323 97.3664C0.0508287 94.1804 0.0072301 90.9922 0.00164054 87.804C-0.00953859 80.9621 0.0407675 74.1214 0.021763 67.2795C0.0128197 64.1002 0.524823 61.0535 1.92445 58.1737C3.52195 54.8853 6.05737 52.5167 9.17858 50.6949C11.9152 49.098 14.833 47.8931 17.7641 46.7227C22.1419 44.9755 26.3844 42.9844 30.2255 40.2194C30.5441 39.99 30.6704 39.7695 30.6973 39.3719C30.7733 38.1971 30.3865 37.2561 29.6699 36.3096C26.4973 32.1214 24.6237 27.4053 24.1172 22.1659C23.8311 19.206 23.7763 16.2494 24.1217 13.2873C24.9154 6.48664 29.453 1.62138 36.2444 0.337416C36.8603 0.22049 37.4774 0.112472 38.0934 0C39.6193 0 41.1453 0 42.6701 0ZM10.8018 85.6837C11.9421 84.4844 13.0477 83.3363 14.1343 82.1704C14.4216 81.8619 14.7234 81.7405 15.1516 81.7416C19.3192 81.7572 23.4867 81.745 27.6532 81.7606C28.0601 81.7617 28.3374 81.6403 28.6236 81.3552C39.2068 70.7951 49.7979 60.2439 60.3924 49.696C60.5344 49.5546 60.7434 49.48 60.9212 49.3742C60.8787 49.3129 60.8351 49.2517 60.7926 49.1904C59.1314 48.4176 57.4702 47.6459 55.7955 46.8675C55.7195 46.9811 55.6625 47.0535 55.6211 47.1336C54.425 49.451 52.5279 51.0802 50.2518 52.2205C46.0127 54.3441 41.5187 54.941 36.8547 54.0223C33.5267 53.3664 30.4882 52.0768 28.0925 49.598C27.3033 48.7806 26.675 47.8085 25.9394 46.8641C25.9428 46.863 25.859 46.8942 25.7773 46.931C22.8652 48.2383 19.9564 49.5546 17.0386 50.8508C14.577 51.9454 12.1254 53.0523 9.89964 54.5969C6.90587 56.6748 4.70358 59.3641 3.92775 62.9488C3.50853 64.8864 3.41686 66.9187 3.39562 68.9109C3.31625 76.2884 3.3196 83.667 3.30954 91.0457C3.30731 93.0479 3.33973 95.0501 3.40345 97.0512C3.44705 98.4321 3.72988 98.6782 5.10267 98.7617C5.34414 98.7762 5.58561 98.7795 5.8282 98.7806C7.42793 98.7851 9.02878 98.8029 10.6274 98.7739C10.9035 98.7695 11.2445 98.6336 11.439 98.441C15.7418 94.1815 20.0279 89.9053 24.3162 85.6314C24.4392 85.5089 24.5499 85.3764 24.7567 85.1503C24.4258 85.1503 24.2257 85.1503 24.0267 85.1503C21.6265 85.1503 19.2264 85.1693 16.8273 85.137C16.2539 85.1292 15.8492 85.2918 15.468 85.7071C14.7335 86.5089 13.9543 87.2706 13.2098 88.0323C12.3322 87.1771 11.5351 86.3998 10.7996 85.6849L10.8018 85.6837ZM73.9158 56.755C73.8353 56.6225 73.823 56.5846 73.7962 56.5601C71.1087 54.1626 68.0512 52.3586 64.7355 50.9766C64.5711 50.9087 64.2604 50.98 64.1206 51.1025C63.4801 51.6659 62.8652 52.2617 62.2593 52.863C46.9897 68.029 31.7235 83.1982 16.4562 98.3675C16.3466 98.4766 16.2494 98.5991 16.0973 98.7695C16.293 98.7784 16.3992 98.7884 16.5065 98.7884C21.4175 98.7884 26.3285 98.7951 31.2395 98.7728C31.5066 98.7717 31.832 98.5869 32.0309 98.3886C45.8517 84.6359 59.6613 70.8719 73.4742 57.1114C73.605 56.9811 73.7626 56.8764 73.9158 56.7539V56.755ZM54.4809 14.4265C54.2785 14.4933 54.1041 14.5445 53.9342 14.6091C52.5111 15.1503 51.0869 15.686 49.6683 16.2372C42.5941 18.99 35.5222 21.7494 28.4469 24.4978C28.0791 24.6403 27.8466 24.7829 27.9539 25.2483C28.8986 29.363 30.6492 33.0546 33.7279 36.0223C38.0408 40.1804 44.025 40.1314 48.2887 35.9154C51.0399 33.1938 52.7369 29.8597 53.6994 26.1604C54.6653 22.4465 54.6217 18.6359 54.5714 14.8341C54.5703 14.7105 54.5189 14.588 54.482 14.4265H54.4809ZM34.2467 40.6214C34.0667 41.0479 33.9884 41.4555 33.7548 41.7305C33.4239 42.1192 32.9957 42.4354 32.5776 42.7394C31.6162 43.4365 30.6414 44.1147 29.6621 44.7873C29.1523 45.137 29.0316 45.608 29.386 46.069C29.9796 46.8408 30.5799 47.6347 31.3099 48.2684C33.1097 49.833 35.3355 50.4477 37.6395 50.7829C41.133 51.2918 44.5806 51.1036 47.9064 49.8352C49.7689 49.1247 51.344 47.9933 52.406 46.2684C52.8923 45.4777 52.8342 45.2361 52.0874 44.686C51.192 44.0256 50.2563 43.4176 49.3519 42.7695C48.5906 42.2238 47.7253 41.7472 47.7443 40.5367C47.4 40.6949 47.1328 40.8074 46.8746 40.9365C45.0446 41.8575 43.1195 42.4766 41.0614 42.5022C39.0403 42.5267 37.1387 41.9555 35.3254 41.0791C34.9677 40.9065 34.5932 40.7673 34.2455 40.6214H34.2467ZM32.4066 19.1793C32.6737 19.1114 32.7978 19.0924 32.9119 19.0501C35.6027 18.0334 38.2946 17.02 40.9776 15.9822C41.1688 15.9087 41.3543 15.686 41.4382 15.4889C42.9697 11.9154 44.4856 8.33408 46.0015 4.7539C46.1066 4.50557 46.1826 4.24388 46.2899 3.93653C45.9109 3.83519 45.5968 3.70045 45.2726 3.67149C43.7746 3.5412 42.2744 3.44878 40.7764 3.32294C40.3974 3.29176 40.2275 3.44321 40.0643 3.77171C38.3069 7.30401 36.5261 10.8241 34.7631 14.353C33.9862 15.9087 33.2361 17.4777 32.4066 19.1782V19.1793ZM57.2376 85.3552C57.2019 85.2996 57.1661 85.2439 57.1303 85.1882C57.061 85.1759 56.9906 85.1548 56.9213 85.1548C54.8017 85.1526 52.6821 85.1437 50.5626 85.1648C50.3558 85.167 50.1054 85.3096 49.9522 85.4621C45.6058 89.7773 41.2683 94.1013 36.9308 98.4254C36.838 98.5178 36.7664 98.6314 36.6423 98.7895C38.8502 98.7895 40.9698 98.7795 43.0882 98.7984C43.475 98.8018 43.7388 98.6815 44.0083 98.4131C48.2597 94.1615 52.5212 89.9176 56.7838 85.6771C56.9134 85.5479 57.0856 85.4621 57.2388 85.3552H57.2376ZM27.3178 20.7494L27.49 20.8062C30.5262 15.2584 33.3322 9.59466 36.0241 3.8118C35.8509 3.8029 35.7938 3.78842 35.7424 3.79955C31.2987 4.79287 28.419 7.77394 27.7102 12.1281C27.2698 14.8296 27.2765 17.5557 27.272 20.2806C27.272 20.4365 27.3022 20.5935 27.3178 20.7494ZM57.9676 89.5568C54.8777 92.6771 51.8269 95.7595 48.8276 98.7895C49.8527 98.7895 51.0042 98.7984 52.1545 98.7873C53.6592 98.7717 55.165 98.7784 56.6664 98.7004C57.6267 98.6503 57.9576 98.2884 57.9721 97.3229C58.0112 94.843 58.0045 92.363 58.0124 89.882C58.0124 89.7739 57.9833 89.667 57.9665 89.5568H57.9676ZM45.8718 13.9154C46.12 13.8831 46.1781 13.8864 46.2284 13.8675C48.6577 12.9555 51.0846 12.039 53.5161 11.1336C53.9186 10.9844 53.8984 10.6871 53.7699 10.4154C53.3518 9.53341 52.9538 8.63252 52.4396 7.80735C51.7397 6.68597 50.7448 5.83519 49.5855 5.06347C48.3446 8.02227 47.1328 10.912 45.8729 13.9154H45.8718Z" fill="#53545D"/>
<path id="Vector_2" d="M68.2773 109H64.9258V78.373H68.2773V109Z" fill="#53545D"/>
<path id="Vector_3" d="M13.6055 71.5446H16.9503V78.2829H13.6055V71.5446Z" fill="#53545D"/>
</g>
<defs>
<clipPath id="clip0_1_965">
<rect width="82" height="109" fill="white"/>
</clipPath>
</defs>
</svg>
