<svg width="125" height="84" viewBox="0 0 125 103" fill="none" xmlns="http://www.w3.org/2000/svg">
<g id="Group 14825">
<path id="Vector" d="M122.583 22.5828C121.575 22.6254 120.554 22.6147 119.566 22.6053C119.13 22.6005 118.695 22.597 118.259 22.597H109.71L110.364 21.8174C112.852 18.8507 113.936 15.6554 113.679 12.0466C113.421 8.42954 111.85 5.38351 109.011 2.99502C106.853 1.17996 104.09 0.11959 101.232 0.00940694C98.3794 -0.0995916 95.5459 0.741593 93.2558 2.37894C90.7842 4.14543 89.1224 6.43321 88.3162 9.17713C86.9949 13.6745 87.8836 17.8141 91.0353 21.8293L91.6376 22.597H90.6652C90.0535 22.597 89.4689 22.5958 88.902 22.5934C88.3751 22.5922 87.8601 22.5899 87.3532 22.5899C86.6873 22.5899 86.0343 22.5922 85.3861 22.6005C83.9175 22.6195 83.2834 23.2296 83.195 24.7035C83.1738 25.0601 83.1573 25.4072 83.195 25.7331C83.3058 26.7271 82.9039 27.31 81.8891 27.6216C79.6709 28.304 77.7886 29.5835 76.4438 31.3204C75.0907 33.0691 74.3482 35.2041 74.2987 37.493C74.1773 43.0425 74.1773 48.6476 74.2987 54.1509C74.4012 58.8342 77.3007 62.6219 81.8679 64.0354C82.8344 64.3339 83.2233 64.8623 83.2115 65.8599C83.1915 67.5766 83.1915 69.323 83.1927 71.0136C83.1927 72.9294 83.195 74.9091 83.1644 76.8593C83.1526 77.6045 82.8874 78.4374 82.4713 79.0333C80.3109 82.1279 78.0868 85.2545 75.937 88.2781C74.8597 89.7922 73.7836 91.3063 72.7099 92.8228C71.6361 94.3405 71.7575 95.1426 73.2308 96.2586C75.4361 97.9292 77.8004 99.7122 80.8967 102.041C81.8926 102.79 82.535 103.072 83.0442 102.985C83.5639 102.895 84.092 102.395 84.8109 101.31C85.9141 99.6471 87.0173 97.9837 88.1193 96.3202C91.0754 91.8584 94.1327 87.2449 97.1642 82.7239C97.7712 81.8187 98.0305 80.9444 98.0069 79.8899C97.9704 78.2632 97.9774 76.6306 97.9845 74.902C97.9881 74.158 97.9916 73.3938 97.9916 72.5989V71.0966L98.8496 72.3264C98.9628 72.4887 99.0465 72.6036 99.1113 72.6925C99.2233 72.8465 99.2904 72.9389 99.3494 73.0562L100.411 75.1805C102.051 78.4599 103.747 81.8507 105.386 85.2C105.603 85.6431 105.71 86.2166 105.713 86.9535C105.725 89.6026 105.725 92.2944 105.725 94.8985C105.725 96.7811 105.725 98.6637 105.728 100.546C105.733 102.435 106.274 102.982 108.144 102.987C111.104 102.995 114.114 102.992 117.024 102.989H117.856C119.972 102.987 120.52 102.425 120.522 100.261C120.522 99.1743 120.527 98.0879 120.531 97.0015C120.541 93.6166 120.553 90.1168 120.489 86.6786C120.469 85.5993 120.21 84.469 119.779 83.5793C117.571 79.0298 115.274 74.4293 113.052 69.9805C112.247 68.3681 111.441 66.7556 110.638 65.1419C110.504 64.8706 110.38 64.6005 110.249 64.3138C110.188 64.1787 110.124 64.0413 110.058 63.8979L109.875 63.5034L110.251 63.2866C113.221 61.5687 115.042 59.1518 115.816 55.8972L115.902 55.5335H116.275C116.913 55.5335 117.543 55.5287 118.165 55.5252C119.628 55.5157 121.008 55.5062 122.414 55.5489C123.761 55.5903 124.542 55.1781 125 54.1769V23.9713C124.56 22.9607 123.812 22.5306 122.589 22.5828H122.583ZM91.2863 13.0833C91.2828 10.5562 92.2681 8.17363 94.0585 6.37516C95.8535 4.57313 98.2261 3.58622 100.753 3.59214C103.282 3.59925 105.664 4.60867 107.461 6.43558C109.242 8.2459 110.21 10.6225 110.189 13.1283C110.144 18.2951 105.923 22.5366 100.778 22.5851C100.75 22.5851 100.721 22.5851 100.692 22.5851C98.2474 22.5851 95.9195 21.6077 94.128 19.8258C92.2988 18.006 91.2887 15.6116 91.2852 13.0833H91.2863ZM94.4392 79.2383C94.4345 79.6423 94.3708 80.4076 93.9878 80.9906C90.8396 85.79 87.6102 90.65 84.488 95.3511L82.9699 97.6365C82.8815 97.7692 82.7825 97.8818 82.6682 98.0109C82.6139 98.0725 82.5527 98.1412 82.4855 98.2218L82.1979 98.5642L76.2057 94.0384L82.4572 85.2462C82.7966 84.7688 83.1479 84.2889 83.4873 83.8245C84.3124 82.6966 85.1657 81.5296 85.9012 80.3295C86.4044 79.5084 86.7156 78.5357 86.7345 77.7277C86.8052 74.6947 86.7946 71.7233 86.784 68.5766C86.7804 67.4463 86.7757 66.3113 86.7757 65.168V64.6941H94.4545V69.849C94.4545 70.6286 94.4545 71.407 94.4569 72.1866C94.4604 74.498 94.4628 76.8877 94.438 79.2383H94.4392ZM116.642 85.2249C116.82 85.5839 116.919 86.0365 116.92 86.4997C116.936 90.5682 116.929 94.8156 116.923 98.2289C116.923 98.4066 116.89 98.5654 116.857 98.7336C116.843 98.8047 116.827 98.8805 116.813 98.9646L116.748 99.3615H109.253V97.5311C109.253 96.5205 109.257 95.5099 109.261 94.5005C109.27 91.8549 109.279 89.1192 109.222 86.4322C109.202 85.4915 108.967 84.4915 108.579 83.6918C106.531 79.4669 104.402 75.1911 102.344 71.0575C101.603 69.5682 100.862 68.0778 100.121 66.5874C100.002 66.348 99.8904 66.1028 99.7489 65.7924C99.67 65.6194 99.5804 65.4239 99.4731 65.1917L99.1608 64.5176H99.901C100.405 64.5176 100.896 64.5164 101.373 64.5152C102.87 64.5116 104.284 64.5081 105.685 64.5436C106.169 64.5555 106.6 65.0637 106.759 65.3801C109.965 71.7802 113.29 78.4563 116.642 85.2237V85.2249ZM111.841 56.0974C111.337 58.6992 108.572 60.8685 105.675 60.9336C103.087 60.9917 100.456 60.9858 97.9114 60.9799C96.9308 60.9775 95.9502 60.9751 94.9696 60.9775C94.2141 60.9775 93.4597 60.9799 92.7042 60.9822C91.5951 60.9846 90.4695 60.9881 89.3381 60.9881C88.018 60.9881 86.6908 60.9846 85.3755 60.9727C80.7765 60.9313 77.7933 57.9113 77.7757 53.2789C77.7568 48.2306 77.758 43.1171 77.778 38.0783C77.7886 35.3664 78.9496 33.2528 81.2267 31.7979C81.4612 31.6474 81.7241 31.5112 82.0517 31.3678C82.2085 31.2991 82.3546 31.3003 82.4961 31.2991C82.5503 31.2991 82.6139 31.2991 82.6894 31.2955L83.1879 31.2671V38.6695C83.1879 43.3683 83.1868 48.0671 83.1879 52.7647C83.1879 55.0157 83.703 55.5335 85.9342 55.5335C91.7024 55.5335 97.4718 55.5335 103.24 55.5335H111.947L111.837 56.0974H111.841ZM121.364 51.8927H104.816V45.239H101.226V51.8797H86.8688V26.2141H121.364V51.8927Z" fill="#53545D"/>
<path id="Vector_2" d="M81.7895 7.75369C80.8439 4.05198 78.1047 2.01252 74.0789 2.01014C52.9946 1.99586 31.5587 1.99943 10.8273 2.00419L0.596291 2.00657C0.409289 2.00657 0.217582 2.02442 0.0164656 2.04584V5.63571H4.32458V47.3838H0V50.9927H26.2062C28.7149 50.9927 31.2224 50.9951 33.731 50.9963C39.5787 51.0011 45.6263 51.0046 51.5739 50.9844C54.2037 50.9749 56.5453 49.9314 57.999 48.1204C59.3339 46.4569 59.8149 44.3032 59.3563 42.0567C59.1634 41.1132 58.7047 40.2005 58.2178 39.2343C57.9837 38.7691 57.7415 38.2872 57.5203 37.7851L57.4027 37.5185L57.585 37.2925C60.336 33.868 60.2595 30.3126 57.358 26.7263L57.0993 26.4062L57.3769 26.1016C59.6044 23.6576 60.0925 20.8709 58.8705 17.5809L58.6318 16.9372H59.3116C59.5397 16.9372 59.7503 16.9372 59.949 16.9372C60.343 16.9372 60.6911 16.9384 61.0381 16.936C62.5094 16.9229 64.0054 16.9253 65.4521 16.9265C68.7864 16.9312 72.2324 16.9348 75.6067 16.7587C77.512 16.6588 79.3079 15.6331 80.5334 13.9434C81.8471 12.1325 82.3152 9.81813 81.7872 7.7525L81.7895 7.75369ZM13.3242 47.2982H8.09168V5.67735H13.3242V47.2982ZM56.0079 32.2462C55.9526 34.5117 54.2378 36.0407 51.7385 36.0514C48.2255 36.0657 44.6536 36.0621 41.1994 36.0597C39.7633 36.0597 38.3273 36.0586 36.8924 36.0574H35.8763V39.6222H36.7219C38.1768 39.6222 39.6292 39.6222 41.0818 39.6199C44.6395 39.6175 48.3172 39.6151 51.9361 39.6282C54.1978 39.6365 55.8279 41.0763 55.9914 43.2121C56.149 45.2718 54.7494 47.0304 52.7359 47.3041C52.316 47.3612 51.8938 47.3684 51.5727 47.3684C46.0697 47.3695 40.5137 47.3707 34.8189 47.3707C29.5441 47.3707 24.1516 47.3707 18.5685 47.3684C18.338 47.3684 18.1087 47.3541 17.8652 47.3374C17.7441 47.3303 17.6159 47.322 17.4771 47.3148L17.0302 47.2922V5.68568H17.5006C18.5227 5.68568 19.5623 5.66426 20.5679 5.64404C22.8731 5.59763 25.2559 5.54885 27.5858 5.75231C30.8766 6.04027 33.4958 9.07922 33.5499 12.6727C33.6181 17.1847 33.597 21.5849 33.564 26.4562C33.5499 28.6325 31.8869 30.3483 29.7793 30.3638C29.7699 30.3638 29.7605 30.3638 29.7522 30.3638C27.6552 30.3638 25.9922 28.6706 25.9628 26.4955C25.931 24.1907 25.9357 21.849 25.9404 19.5835C25.9428 18.6173 25.944 17.6523 25.944 16.6861V15.7033H22.4027C22.4062 16.7706 22.4003 17.8534 22.3944 18.9005C22.3803 21.611 22.365 24.4144 22.5038 27.1571C22.6732 30.4994 25.1536 33.2457 28.5373 33.837C31.8057 34.4082 35.0248 32.6698 36.3632 29.6106C36.8089 28.5932 37.3982 28.2184 38.5284 28.2315C41.07 28.2589 43.6563 28.2565 46.1579 28.2541C47.9985 28.2529 49.9026 28.2506 51.7762 28.2601C53.0864 28.2672 54.2296 28.711 54.9976 29.5106C55.6868 30.2281 56.0361 31.1741 56.0102 32.2462H56.0079ZM52.4877 24.6417C50.3554 24.675 48.1937 24.6833 46.0485 24.6833C44.6572 24.6833 43.2717 24.6797 41.905 24.6762C40.496 24.6726 39.0824 24.6678 37.6581 24.6678H37.1876V17.1418L37.5852 17.0788C37.6816 17.0633 37.7745 17.0455 37.8627 17.0276C38.0685 16.9872 38.2814 16.9443 38.5084 16.9443C39.3482 16.9431 40.1879 16.9408 41.0277 16.9396C44.5866 16.9324 48.2655 16.9241 51.8856 16.9491C53.1417 16.9574 54.2472 17.3941 54.9987 18.177C55.675 18.8814 56.0349 19.8452 56.0126 20.89C55.9667 22.9639 54.4189 24.6119 52.4889 24.6417H52.4877ZM78.1624 10.9164C77.5637 12.3442 76.457 13.1641 74.9622 13.2866C74.6046 13.3164 74.2494 13.3164 73.906 13.3152H73.8225C64.8734 13.3152 55.9232 13.3152 46.9741 13.3152H37.3558L37.2782 12.9368C37.1947 12.5346 37.1253 12.1443 37.0571 11.7672C36.9124 10.9604 36.7748 10.1989 36.5408 9.49092C36.3055 8.78056 35.9621 8.09519 35.5999 7.36936C35.434 7.03857 35.2635 6.69589 35.0977 6.3413L34.8083 5.72138L35.4834 5.66307C35.574 5.65474 35.6622 5.64523 35.7481 5.63571C35.9398 5.61429 36.1374 5.59287 36.3408 5.59287H40.2632C51.3904 5.5893 62.8964 5.58573 74.213 5.59406C75.7737 5.59525 77.1521 6.28062 77.9013 7.42647C78.5693 8.44739 78.6646 9.71937 78.1635 10.914L78.1624 10.9164Z" fill="#53545D"/>
</g>
</svg>
