<svg width="82" height="111" viewBox="0 0 82 111" fill="none" xmlns="http://www.w3.org/2000/svg">
<g id="graphics" clip-path="url(#clip0_1_983)">
<path id="Vector" d="M69.5723 92.9088C73.3701 92.313 77.1134 91.7661 80.699 91.2847C81.4445 91.1848 81.6001 90.9053 81.7134 90.5791C82.2268 89.1082 82.0523 87.7703 81.1834 86.4901C80.859 86.0131 80.6001 85.9044 80.0279 86.0075C78.9279 86.205 77.8223 86.3403 76.7534 86.4712C75.7134 86.5988 74.7312 86.7186 73.7501 86.8917C73.3901 86.9549 72.2934 87.1479 71.3656 86.4224C70.7412 85.9343 70.4723 85.2498 70.2923 84.6441C68.6579 79.1584 66.9579 73.5895 65.3123 68.2036L64.3312 64.9921C63.8668 63.4701 63.0956 62.8477 61.6701 62.8444C56.1168 62.8333 50.469 62.8444 45.0068 62.8544C42.7523 62.8588 40.499 62.8633 38.2445 62.8655C36.9212 62.8666 35.5979 62.8666 34.2779 62.8655H30.7956V42.6953H48.2334V37.4382H30.6779V35.7741C30.6779 35.1241 30.6823 34.494 30.6868 33.8783C30.6956 32.5459 30.7045 31.2868 30.6679 30.0399C30.629 28.7121 29.7623 27.7236 28.4056 27.4607C27.2779 27.2422 26.1256 27.8579 25.6679 28.9262C25.4701 29.3865 25.3601 30.0366 25.3579 30.7555C25.3412 35.5367 25.3434 40.399 25.3456 45.1015C25.3468 48.5017 25.349 52.0172 25.3434 55.4761C25.3423 56.1994 25.3479 56.9394 25.3534 57.6538C25.3723 60.0111 25.3912 62.4484 25.1734 64.8645C25.0779 65.9306 25.4356 66.929 26.1556 67.6035C26.7901 68.197 27.6301 68.4477 28.5201 68.3101L28.629 68.2935C29.0679 68.2247 29.5668 68.1471 30.1001 68.146C32.9512 68.1426 35.8023 68.1415 38.6534 68.1404C44.7301 68.1382 51.0134 68.136 57.1912 68.106C57.2001 68.106 57.209 68.106 57.2168 68.106C58.919 68.106 59.9868 68.9081 60.4801 70.5566C61.8423 75.1093 63.2568 79.732 64.6245 84.2015C65.3323 86.5123 66.039 88.8242 66.7423 91.1371C67.2056 92.6581 67.9968 93.155 69.5668 92.9088H69.5723Z" fill="#53545D"/>
<path id="Vector_2" d="M58.4629 90.1842C54.5929 97.4759 48.2862 102.606 40.6895 104.638C38.3429 105.266 35.954 105.576 33.5673 105.576C28.1818 105.576 22.8062 103.997 17.9318 100.917C13.454 98.0883 9.77176 93.6842 7.56287 88.5169C5.35843 83.3595 4.71287 77.6586 5.74509 72.4657C7.38398 64.2211 11.8995 57.7691 19.1651 53.2874C19.2195 53.2541 19.264 53.2253 19.2984 53.2008C19.5751 51.5657 18.3973 49.5822 16.744 48.9986C16.5462 48.9288 16.4118 48.8988 16.304 48.8988C16.1584 48.8988 16.0629 48.9554 15.9284 49.043C9.98287 52.9446 5.64843 57.6737 3.04509 63.1006C0.429536 68.5531 -0.508241 74.8542 0.259536 81.8286C1.13176 89.7516 5.03398 97.1121 11.2451 102.553C17.4073 107.951 25.2373 110.949 33.3029 111C33.9618 110.927 34.6251 110.865 35.2673 110.806C36.7351 110.67 38.1206 110.543 39.4795 110.279C44.5995 109.286 49.1551 107.369 53.0218 104.58C56.854 101.815 60.1318 98.1038 62.7629 93.5511C62.8751 93.358 62.8818 93.3458 62.7506 93.0774C61.9484 91.4333 60.624 90.5392 58.4618 90.1853L58.4629 90.1842Z" fill="#53545D"/>
<path id="Vector_3" d="M29.2229 18.5583H29.2395C31.664 18.5538 33.9718 17.5865 35.7362 15.8326C37.5029 14.0787 38.4873 11.7768 38.5084 9.34958C38.5306 6.89681 37.5718 4.56275 35.8084 2.77782C34.0529 0.999535 31.7395 0.0122172 29.2973 1.44438e-05C26.7984 -0.0132977 24.4495 0.947396 22.6773 2.70349C20.9273 4.43851 19.9606 6.73929 19.9551 9.18318C19.9506 11.7214 20.9229 14.0931 22.6951 15.8625C24.4351 17.6009 26.7529 18.5571 29.2218 18.5571L29.2229 18.5583Z" fill="#53545D"/>
</g>
<defs>
<clipPath id="clip0_1_983">
<rect width="82" height="111" fill="white"/>
</clipPath>
</defs>
</svg>
