<svg width="133" height="84" viewBox="0 0 133 84" fill="none" xmlns="http://www.w3.org/2000/svg">
<g id="graphics" clip-path="url(#clip0_1_989)">
<path id="Vector" d="M36.8368 42.384C36.0768 40.3219 35.3169 38.4922 34.7258 36.6076C31.3451 25.8745 33.232 15.9352 40.6754 7.65134C50.6258 -3.42389 68.5003 -2.08466 76.8692 9.10996C78.0286 7.87077 79.0354 6.44119 80.3636 5.4279C87.4887 -0.0128987 95.3673 -1.49089 103.895 1.57481C113.748 5.11488 118.448 12.7468 120.302 22.5054C121.37 28.1269 120.344 33.5258 118.314 38.7891C117.908 39.8411 117.509 40.8931 117.015 42.1872C117.701 42.242 118.256 42.3227 118.811 42.3292C122.384 42.3647 125.956 42.3808 129.528 42.4163C130.122 42.4228 130.72 42.455 131.308 42.5357C132.438 42.6906 133.126 43.3392 132.984 44.4977C132.844 45.6304 132.341 46.5501 130.954 46.5566C126.95 46.576 122.926 46.8503 118.944 46.5631C115.739 46.3307 113.998 47.5054 112.235 50.1322C103.476 63.1727 92.032 73.6347 79.4251 82.9028C77.4116 84.384 76.7718 84.355 74.7778 82.906C61.268 73.0926 49.1579 61.9012 40.0388 47.7958C39.4023 46.8083 38.6586 46.6437 37.6194 46.6405C25.9834 46.6244 14.3475 46.5986 2.71154 46.505C1.9646 46.4985 0.987094 46.1403 0.525942 45.5982C-0.571728 44.3138 0.145979 42.7067 1.8347 42.597C4.31583 42.4357 6.80994 42.4002 9.29756 42.3937C17.7964 42.3711 26.292 42.384 34.7908 42.384C35.4208 42.384 36.0476 42.384 36.84 42.384H36.8368ZM87.0795 39.783C87.3491 39.5959 87.6154 39.4087 87.8849 39.2183C88.8527 37.1885 89.7685 35.1361 90.8012 33.1385C91.7495 31.3088 93.1167 31.1345 94.5034 32.6577C95.9908 34.2938 97.6568 35.8525 98.7642 37.7274C101.099 41.6773 104.327 42.8229 108.832 42.526C111.524 42.3485 112.729 41.5999 113.745 39.2022C116.947 31.6444 117.603 24.1028 114.125 16.5225C110.605 8.8518 104.659 4.37911 96.0168 4.37266C87.82 4.3662 81.2794 7.1931 78.847 15.9255C78.6879 16.4934 77.6876 17.1905 77.0868 17.1808C76.3951 17.1711 75.6612 16.5063 75.0571 15.9965C74.7746 15.7577 74.7129 15.222 74.6122 14.8057C73.9757 12.1853 72.4623 10.1458 70.4001 8.4581C62.0052 1.5974 48.2454 3.38841 42.1855 12.3499C35.7521 21.8632 35.9891 31.7283 41.3346 41.6515C41.5035 41.9645 41.9419 42.3292 42.2666 42.3388C44.3061 42.4002 46.3488 42.3711 48.3266 42.3711C49.6905 36.9465 50.9506 31.7186 52.3633 26.5296C52.5971 25.6744 53.3278 24.6675 54.1007 24.3093C55.299 23.7511 56.0135 24.8805 56.6565 25.768C60.0307 30.444 63.4017 35.1232 66.7921 39.7895C68.4613 42.0904 70.1631 44.3654 71.9849 46.8341C72.4981 46.0435 72.8878 45.482 73.2417 44.8947C75.1253 41.7515 76.9699 38.589 78.8795 35.4652C80.1363 33.4096 81.2729 33.2257 82.9974 34.965C84.475 36.4559 85.7286 38.1663 87.0828 39.7798L87.0795 39.783ZM44.2801 46.818C44.8647 47.6764 45.2317 48.2637 45.6473 48.8155C54.0812 60.0812 64.1778 69.6752 75.3494 78.2139C76.6289 79.1917 77.4668 79.1788 78.7041 78.2236C88.0441 70.995 96.767 63.1339 104.256 53.9853C106.078 51.7618 107.734 49.4061 109.468 47.1084C109.387 46.9535 109.302 46.7954 109.221 46.6405C108.159 46.6405 107.075 46.505 106.035 46.6631C102.22 47.244 99.5209 45.7337 97.423 42.6228C96.3026 40.9609 94.8282 39.5345 93.3246 37.7823C92.4737 39.5765 91.7625 41.0706 91.061 42.568C89.4243 46.0661 88.398 46.2694 85.6603 43.6071C85.157 43.1166 84.6796 42.6035 84.1762 42.1162C83.3026 41.2739 82.4128 40.4478 81.4288 39.5152C81.0034 40.167 80.6981 40.6027 80.4253 41.0577C78.3631 44.53 76.3399 48.0249 74.2355 51.4746C72.9397 53.5948 71.7414 53.6464 70.293 51.6779C65.7302 45.4659 61.2031 39.228 56.6598 33.003C56.322 32.5415 55.9486 32.1027 55.4127 31.4282C55.1951 32.2285 55.049 32.7319 54.9191 33.2354C53.9708 36.9335 52.9771 40.6221 52.1002 44.3364C51.7105 45.9951 50.7947 46.6405 49.1222 46.5985C47.6186 46.5631 46.1117 46.7244 44.2801 46.818Z" fill="#53545D"/>
</g>
<defs>
<clipPath id="clip0_1_989">
<rect width="133" height="84" fill="white"/>
</clipPath>
</defs>
</svg>
