<svg width="124" height="84" viewBox="0 0 182 170" fill="none" xmlns="http://www.w3.org/2000/svg">
<path d="M178.41 162.76H172.15V3.13C172.15 2.29987 171.82 1.50375 171.233 0.916756C170.646 0.329768 169.85 0 169.02 0H12.52C11.6899 0 10.8937 0.329768 10.3068 0.916756C9.71977 1.50375 9.39 2.29987 9.39 3.13V162.76H3.13C2.29987 162.76 1.50374 163.09 0.916756 163.677C0.329767 164.264 0 165.06 0 165.89C0 166.72 0.329767 167.516 0.916756 168.103C1.50374 168.69 2.29987 169.02 3.13 169.02H178.41C179.24 169.02 180.036 168.69 180.623 168.103C181.21 167.516 181.54 166.72 181.54 165.89C181.54 165.06 181.21 164.264 180.623 163.677C180.036 163.09 179.24 162.76 178.41 162.76ZM75.12 162.76V125.2H106.42V162.76H75.12ZM112.68 162.76V122.07C112.68 121.24 112.35 120.444 111.763 119.857C111.176 119.27 110.38 118.94 109.55 118.94H71.99C71.1599 118.94 70.3637 119.27 69.7768 119.857C69.1898 120.444 68.86 121.24 68.86 122.07V162.76H15.65V6.26H165.89V162.76H112.68Z" fill="#53545D"/>
<path d="M84.5196 139.194C83.6895 139.194 82.8934 139.524 82.3064 140.111C81.7194 140.698 81.3896 141.494 81.3896 142.324V145.454C81.3896 146.284 81.7194 147.081 82.3064 147.668C82.8934 148.255 83.6895 148.584 84.5196 148.584C85.3498 148.584 86.1459 148.255 86.7329 147.668C87.3199 147.081 87.6496 146.284 87.6496 145.454V142.324C87.6496 141.494 87.3199 140.698 86.7329 140.111C86.1459 139.524 85.3498 139.194 84.5196 139.194Z" fill="#53545D"/>
<path d="M97.0196 139.194C96.1895 139.194 95.3934 139.524 94.8064 140.111C94.2194 140.698 93.8896 141.494 93.8896 142.324V145.454C93.8896 146.284 94.2194 147.081 94.8064 147.668C95.3934 148.255 96.1895 148.584 97.0196 148.584C97.8498 148.584 98.6459 148.255 99.2329 147.668C99.8199 147.081 100.15 146.284 100.15 145.454V142.324C100.15 141.494 99.8199 140.698 99.2329 140.111C98.6459 139.524 97.8498 139.194 97.0196 139.194Z" fill="#53545D"/>
<path d="M109.549 25.1195H100.159V15.7295H81.3793V25.1195H71.9893V43.8995H81.3793V53.2895H100.159V43.8995H109.549V25.1195ZM103.289 37.6395H93.8993V47.0295H87.6393V37.6395H78.2493V31.3795H87.6393V21.9895H93.8993V31.3795H103.289V37.6395Z" fill="#53545D"/>
<path d="M68.9098 62.6201H56.3898C55.5596 62.6201 54.7635 62.9499 54.1765 63.5369C53.5895 64.1239 53.2598 64.92 53.2598 65.7501V78.2701C53.2598 79.1002 53.5895 79.8964 54.1765 80.4834C54.7635 81.0704 55.5596 81.4001 56.3898 81.4001H68.9098C69.7399 81.4001 70.536 81.0704 71.123 80.4834C71.71 79.8964 72.0398 79.1002 72.0398 78.2701V65.7501C72.0398 64.92 71.71 64.1239 71.123 63.5369C70.536 62.9499 69.7399 62.6201 68.9098 62.6201ZM65.7798 75.1401H59.5198V68.8801H65.7798V75.1401Z" fill="#53545D"/>
<path d="M125.16 62.6201H112.64C111.81 62.6201 111.014 62.9499 110.427 63.5369C109.84 64.1239 109.51 64.92 109.51 65.7501V78.2701C109.51 79.1002 109.84 79.8964 110.427 80.4834C111.014 81.0704 111.81 81.4001 112.64 81.4001H125.16C125.99 81.4001 126.786 81.0704 127.373 80.4834C127.96 79.8964 128.29 79.1002 128.29 78.2701V65.7501C128.29 64.92 127.96 64.1239 127.373 63.5369C126.786 62.9499 125.99 62.6201 125.16 62.6201ZM122.03 75.1401H115.77V68.8801H122.03V75.1401Z" fill="#53545D"/>
<path d="M68.9098 90.75H56.3898C55.5596 90.75 54.7635 91.0798 54.1765 91.6668C53.5895 92.2537 53.2598 93.0499 53.2598 93.88V106.4C53.2598 107.23 53.5895 108.026 54.1765 108.613C54.7635 109.2 55.5596 109.53 56.3898 109.53H68.9098C69.7399 109.53 70.536 109.2 71.123 108.613C71.71 108.026 72.0398 107.23 72.0398 106.4V93.88C72.0398 93.0499 71.71 92.2537 71.123 91.6668C70.536 91.0798 69.7399 90.75 68.9098 90.75ZM65.7798 103.27H59.5198V97.01H65.7798V103.27Z" fill="#53545D"/>
<path d="M40.7799 62.6201H28.2599C27.4298 62.6201 26.6336 62.9499 26.0466 63.5369C25.4597 64.1239 25.1299 64.92 25.1299 65.7501V78.2701C25.1299 79.1002 25.4597 79.8964 26.0466 80.4834C26.6336 81.0704 27.4298 81.4001 28.2599 81.4001H40.7799C41.61 81.4001 42.4061 81.0704 42.9931 80.4834C43.5801 79.8964 43.9099 79.1002 43.9099 78.2701V65.7501C43.9099 64.92 43.5801 64.1239 42.9931 63.5369C42.4061 62.9499 41.61 62.6201 40.7799 62.6201ZM37.6499 75.1401H31.3899V68.8801H37.6499V75.1401Z" fill="#53545D"/>
<path d="M40.7799 90.75H28.2599C27.4298 90.75 26.6336 91.0798 26.0466 91.6668C25.4597 92.2537 25.1299 93.0499 25.1299 93.88V106.4C25.1299 107.23 25.4597 108.026 26.0466 108.613C26.6336 109.2 27.4298 109.53 28.2599 109.53H40.7799C41.61 109.53 42.4061 109.2 42.9931 108.613C43.5801 108.026 43.9099 107.23 43.9099 106.4V93.88C43.9099 93.0499 43.5801 92.2537 42.9931 91.6668C42.4061 91.0798 41.61 90.75 40.7799 90.75ZM37.6499 103.27H31.3899V97.01H37.6499V103.27Z" fill="#53545D"/>
<path d="M125.16 90.75H112.64C111.81 90.75 111.014 91.0798 110.427 91.6668C109.84 92.2537 109.51 93.0499 109.51 93.88V106.4C109.51 107.23 109.84 108.026 110.427 108.613C111.014 109.2 111.81 109.53 112.64 109.53H125.16C125.99 109.53 126.786 109.2 127.373 108.613C127.96 108.026 128.29 107.23 128.29 106.4V93.88C128.29 93.0499 127.96 92.2537 127.373 91.6668C126.786 91.0798 125.99 90.75 125.16 90.75ZM122.03 103.27H115.77V97.01H122.03V103.27Z" fill="#53545D"/>
<path d="M153.28 62.6201H140.76C139.93 62.6201 139.134 62.9499 138.547 63.5369C137.96 64.1239 137.63 64.92 137.63 65.7501V78.2701C137.63 79.1002 137.96 79.8964 138.547 80.4834C139.134 81.0704 139.93 81.4001 140.76 81.4001H153.28C154.11 81.4001 154.906 81.0704 155.493 80.4834C156.08 79.8964 156.41 79.1002 156.41 78.2701V65.7501C156.41 64.92 156.08 64.1239 155.493 63.5369C154.906 62.9499 154.11 62.6201 153.28 62.6201ZM150.15 75.1401H143.89V68.8801H150.15V75.1401Z" fill="#53545D"/>
<path d="M153.28 90.75H140.76C139.93 90.75 139.134 91.0798 138.547 91.6668C137.96 92.2537 137.63 93.0499 137.63 93.88V106.4C137.63 107.23 137.96 108.026 138.547 108.613C139.134 109.2 139.93 109.53 140.76 109.53H153.28C154.11 109.53 154.906 109.2 155.493 108.613C156.08 108.026 156.41 107.23 156.41 106.4V93.88C156.41 93.0499 156.08 92.2537 155.493 91.6668C154.906 91.0798 154.11 90.75 153.28 90.75ZM150.15 103.27H143.89V97.01H150.15V103.27Z" fill="#53545D"/>
</svg>
