<svg width="6" height="10" viewBox="0 0 6 10" fill="none" xmlns="http://www.w3.org/2000/svg">
<path fill-rule="evenodd" clip-rule="evenodd" d="M5.64531 0.210307C5.78576 0.350932 5.86465 0.541556 5.86465 0.740307C5.86465 0.939058 5.78576 1.12968 5.64531 1.27031L1.92531 4.99031L5.64531 8.71031C5.71899 8.77897 5.7781 8.86177 5.81909 8.95377C5.86008 9.04577 5.88212 9.14508 5.8839 9.24578C5.88568 9.34649 5.86715 9.44652 5.82943 9.5399C5.79171 9.63329 5.73556 9.71813 5.66434 9.78934C5.59313 9.86056 5.50829 9.91671 5.4149 9.95443C5.32152 9.99215 5.22149 10.0107 5.12078 10.0089C5.02008 10.0071 4.92077 9.98508 4.82877 9.94409C4.73677 9.9031 4.65397 9.84399 4.58531 9.77031L0.335307 5.52031C0.194856 5.37968 0.115967 5.18906 0.115967 4.99031C0.115967 4.79156 0.194856 4.60093 0.335307 4.46031L4.58531 0.210307C4.72593 0.0698562 4.91656 -0.0090332 5.11531 -0.0090332C5.31406 -0.0090332 5.50468 0.0698562 5.64531 0.210307Z" fill="#373737"/>
</svg>
