<svg width="86" height="90" viewBox="0 0 86 90" fill="none" xmlns="http://www.w3.org/2000/svg">
<path d="M75.8676 68.7975C78.102 66.6337 80.3897 66.4126 82.765 67.5958C85.0679 68.7422 86.168 70.7179 85.9815 73.2097C85.7264 76.6415 83.4882 78.3924 80.3973 79.0375C80.6752 80.6336 81.231 82.1338 81.1358 83.5972C80.8808 87.4529 77.6757 89.9299 73.2183 89.9373C60.5313 89.952 47.848 89.9447 35.161 89.9447C27.8031 89.9447 20.4413 89.7714 13.091 89.9963C7.24042 90.1769 2.52037 85.5803 5.61886 79.1517C3.03806 78.4661 0.579065 77.3824 0.110867 74.5773C-0.144168 73.0549 0.0309303 71.1934 0.738937 69.8443C2.4785 66.5305 6.31164 66.0956 9.97348 68.6279C12.8893 65.8007 15.8545 62.9661 18.7398 60.0614C19.1205 59.678 19.1662 58.9335 19.2537 58.34C19.8818 54.0899 20.3576 49.814 21.1151 45.5861C22.0553 40.3407 26.4327 36.4998 31.8798 35.851C34.8869 35.4935 36.2915 36.6878 36.3182 39.6256C36.3258 40.5471 36.2915 41.4724 36.3639 42.3865C36.6037 45.5492 39.3786 48.0852 42.6636 48.1811C46.0019 48.2769 48.9101 45.9842 49.3478 42.8178C49.5039 41.6677 49.4468 40.4882 49.481 39.3234C49.5534 36.7468 50.7867 35.6594 53.455 35.8216C59.3094 36.1828 64.0751 40.6577 64.9049 46.6034C65.4493 50.496 65.9136 54.3959 66.5227 58.2773C66.6559 59.1251 67.0594 60.0725 67.6532 60.6844C70.2911 63.4047 73.0432 66.0255 75.8714 68.7938L75.8676 68.7975ZM33.4443 38.8184C30.2621 38.505 29.9195 38.7962 30.2392 41.465C30.9967 47.8088 31.7161 54.1563 32.565 60.489C32.9799 63.5853 32.9228 66.5895 31.9902 69.5974C31.3431 71.6874 30.9168 73.8364 30.361 76.0849H55.4344C55.0499 74.5589 54.715 73.2061 54.3648 71.8533C53.4702 68.3994 52.5643 64.9897 53.082 61.3331C54.0184 54.7018 54.734 48.0447 55.56 41.3986C55.8835 38.8036 55.3887 38.3723 52.3397 38.8921C52.3397 39.8247 52.3511 40.7978 52.3397 41.7672C52.2598 46.8467 48.2135 50.8793 43.1356 50.9493C37.8522 51.0194 33.6727 47.1932 33.4519 42.0585C33.4062 40.971 33.4443 39.88 33.4443 38.8184ZM39.5156 87.0216C51.4452 87.0216 63.0283 87.0769 74.6077 86.9331C75.6811 86.9184 77.0895 85.8789 77.7328 84.9279C79.5637 82.226 77.3179 78.9859 73.6979 78.9711C65.6548 78.938 57.6155 78.9601 49.5724 78.9601C46.7213 78.9601 43.8703 78.9195 41.0268 79.0043C40.5167 79.0191 39.6032 79.5425 39.5842 79.8669C39.4585 82.1744 39.5156 84.4929 39.5156 87.0179V87.0216ZM27.2435 41.0116C25.1576 42.3791 24.1374 44.189 23.7339 47.0273C23.1325 51.2811 22.5692 55.5422 21.9106 59.7886C21.7964 60.5258 21.4691 61.3737 20.9476 61.8934C17.5484 65.2846 14.0921 68.6205 10.6054 71.927C9.24263 73.2208 8.42424 72.9738 7.73526 71.2119C7.16048 69.7411 6.04138 69.284 4.5873 69.9844C3.20174 70.6553 2.45947 71.7906 2.64599 73.2724C2.85154 74.9164 3.94781 75.9559 5.6417 76.1549C6.95493 76.3098 8.30624 76.1291 9.62709 76.2471C11.1459 76.3835 12.2536 75.9043 13.2927 74.8132C15.2683 72.7416 17.2477 70.6295 19.4745 68.8233C23.9052 65.2293 26.7715 60.9239 27.1369 55.2142C27.2093 54.0604 27.548 52.9177 27.8221 51.7861C28.709 48.1553 27.5442 44.6719 27.2435 41.0079V41.0116ZM58.5747 40.8199C58.0152 45.2543 57.0217 49.3127 58.2664 53.4891C58.8793 55.5422 58.9706 57.7465 59.6634 59.7665C60.2877 61.5727 61.0946 63.5005 62.3812 64.8791C65.7309 68.4694 69.3775 71.798 72.9442 75.1966C73.4086 75.6426 74.0633 76.1365 74.661 76.1734C76.4881 76.2913 78.338 76.295 80.1651 76.1549C81.8172 76.0296 83.0467 74.6289 83.1609 73.0586C83.2712 71.5473 82.213 70.0987 80.7019 69.7595C79.5142 69.4905 78.6045 69.7817 78.102 70.9833C77.1999 73.1434 76.5528 73.2613 74.8018 71.5768C71.6082 68.51 68.3917 65.4689 65.2894 62.3173C64.5623 61.5801 63.9914 60.4927 63.8201 59.4901C63.1577 55.557 62.6857 51.5981 62.1452 47.6466C61.7988 45.1105 61.0794 42.7514 58.5747 40.8162V40.8199ZM36.2687 86.9405C36.2839 86.8078 36.2992 86.6751 36.3144 86.5424C36.0365 86.4429 35.7662 86.3102 35.4808 86.2475C32.5802 85.6135 29.6835 84.9758 26.7791 84.375C24.2592 83.8552 22.4892 82.6867 22.1847 79.9664C22.1428 79.5904 21.4348 79.0006 21.0275 78.9932C17.8034 78.9232 14.5717 78.8974 11.3514 79.008C9.55857 79.0707 8.27579 80.0659 7.67817 81.7431C7.13003 83.2765 7.36223 84.832 8.67927 85.7536C9.72225 86.4834 11.1763 86.9847 12.4591 87.0032C19.9236 87.1174 27.392 87.0621 34.8565 87.0548C35.3285 87.0548 35.8005 86.981 36.2725 86.9405H36.2687ZM29.261 59.7149C28.7128 63.4932 26.3985 66.1693 23.6806 68.6427C21.4691 70.659 19.3679 72.7895 17.2325 74.8832C16.9127 75.1966 16.6653 75.5836 16.1628 76.2176C19.8018 76.2176 23.0754 76.2655 26.3452 76.1623C26.7905 76.1476 27.4491 75.4472 27.6051 74.9459C28.2142 73.0144 28.5834 71.0165 29.181 69.085C30.1365 65.9813 30.2316 62.896 29.261 59.7186V59.7149ZM56.3936 59.3721C56.2528 60.0024 56.2071 60.2236 56.1538 60.4448C54.8672 65.679 57.1701 70.4488 58.2512 75.3735C58.3235 75.7089 58.9325 76.1697 59.298 76.1771C62.621 76.2397 65.9441 76.2139 69.7582 76.2139C69.0197 75.4288 68.6353 74.9865 68.2166 74.5773C65.5863 72.0154 62.7695 69.6047 60.379 66.8475C58.8907 65.1261 58.0304 62.8923 56.9151 60.8723C56.7248 60.5295 56.6487 60.1241 56.3936 59.3721ZM36.657 83.6304C36.657 82.4987 36.5846 81.6546 36.6722 80.8252C36.8245 79.4172 36.3601 78.8495 34.7918 78.9195C32.1387 79.0412 29.4741 78.9158 26.821 78.9859C26.2424 79.0006 25.6791 79.3987 25.1081 79.6199C25.4925 80.1986 25.7742 81.157 26.2843 81.2897C29.615 82.1486 32.9989 82.8268 36.657 83.6304Z" fill="white"/>
<path d="M53.9419 22.9534C54.1588 26.8901 53.1768 30.2224 50.2001 32.7621C48.2359 34.4356 45.9292 35.3498 43.2837 35.4198C39.7665 35.5156 36.8774 34.2476 34.5364 31.7263C32.2373 29.2493 31.712 26.2119 31.8033 23.0787C29.6641 22.7445 28.6313 21.5748 28.7048 19.5695C28.899 14.6523 31.2552 10.9256 35.4956 8.32691C36.4168 7.76294 36.7518 7.22477 36.7365 6.15948C36.6909 2.72034 39.5191 -0.0258055 42.9183 -2.75641e-06C46.2718 0.0258 49.081 2.7056 49.0391 6.03784C49.0239 7.16948 49.3398 7.75188 50.3333 8.36009C55.0724 11.2611 57.1621 15.5443 57.166 20.9223C57.166 23.0713 55.7461 23.0308 53.9419 22.9534ZM51.0984 23.8639C51.1098 22.3857 48.9972 19.5216 47.4784 19.024C47.2234 18.9429 46.8808 19.0461 46.5991 19.1309C42.9906 20.2146 39.3744 21.291 35.7849 22.4336C35.3662 22.5663 34.8028 23.064 34.7724 23.4289C34.5592 25.9576 35.0883 28.3019 36.9954 30.204C39.3516 32.5483 42.7812 33.2745 45.9064 32.0802C49.2294 30.8122 51.068 27.9038 51.0946 23.8639H51.0984ZM31.4836 19.9013C32.2982 19.9013 32.8044 19.9529 33.2993 19.8939C37.6044 19.3705 41.8144 18.4674 45.6437 16.4179C47.2805 15.5406 48.392 15.4964 49.7052 17.0446C50.7673 18.2978 52.3584 19.1309 53.7135 20.1519C53.881 19.9898 54.0484 19.8313 54.2159 19.6691C54.136 16.0604 52.4954 13.1631 49.4312 11.0915C45.6018 8.50385 41.4756 8.29374 37.3912 10.4501C33.6761 12.4148 31.7805 15.5885 31.4798 19.905L31.4836 19.9013ZM46.0091 6.39539C46.5459 5.10526 45.8759 3.92201 44.7416 3.49443C43.6567 3.08527 42.1532 3.07052 41.0683 3.47231C39.9416 3.89253 39.226 5.06471 39.7665 6.39539H46.0091Z" fill="white"/>
</svg>
