<svg width="141" height="102" viewBox="0 0 141 102" fill="none" xmlns="http://www.w3.org/2000/svg">
<g id="graphics" clip-path="url(#clip0_1_3107)">
<path id="Vector" d="M48.1718 102H31.9715C31.5282 101.68 31.0934 101.346 30.6399 101.041C29.5408 100.304 29.0271 99.2507 28.9582 97.9593C28.8879 96.6477 28.842 95.3362 28.7774 94.0247C28.7602 93.6774 28.7171 93.3316 28.6841 92.9629C28.3799 92.9485 28.1446 92.927 27.9078 92.9255C21.6487 92.8768 15.3882 92.8294 9.12902 92.7777C8.43739 92.772 7.67688 92.9141 7.06704 92.6787C4.98353 91.8781 2.97895 90.8937 1.70904 88.9207C1.1939 88.12 0.72325 87.2863 0.284164 86.4411C0.116278 86.1197 0.0115283 85.7251 0.0115283 85.3649C-0.00138595 59.3799 4.89683e-05 33.3949 0.00291881 7.40994C0.00291881 7.17604 0.00148389 6.92063 0.0847094 6.70969C0.921269 4.59892 2.18687 2.81675 4.06662 1.49375C5.34944 0.591188 6.70257 0.0875302 8.32403 0.0947049C14.2015 0.121968 20.0789 0.0258286 25.9564 0.0172191C40.0301 0 54.1038 -0.00430477 68.1775 0.00430477C80.7933 0.0129143 93.4092 0.0487873 106.025 0.0774858C106.305 0.0774858 106.618 0.0832255 106.859 0.200889C110.864 2.15525 113.357 5.09828 113.276 9.81343C113.215 13.2515 113.289 16.691 113.276 20.1305C113.274 20.6012 113.428 20.8207 113.838 21.0604C115.464 22.0074 117.166 22.8755 118.637 24.0321C127.58 31.0603 130.998 40.2682 129.185 51.442C128.682 54.5385 127.332 57.3452 125.877 60.0931C125.615 60.5881 125.625 60.8809 126.052 61.3027C128.86 64.0678 131.647 66.8573 134.411 69.6669C136.069 71.3515 137.699 73.0662 139.292 74.814C139.743 75.309 140.137 75.9275 140.34 76.5603C140.734 77.7957 140.525 78.9996 139.575 79.9452C138.275 81.2381 136.995 82.5697 135.567 83.7105C134.244 84.768 132.937 84.6116 131.671 83.5383C131.053 83.0131 130.434 82.4836 129.855 81.9154C125.731 77.8646 121.613 73.8081 117.506 69.7386C117.17 69.4057 116.93 69.2909 116.481 69.5578C115.662 70.0443 114.807 70.4762 113.941 70.8765C113.465 71.0975 113.297 71.3816 113.291 71.9125C113.256 75.949 113.149 79.984 113.139 84.0204C113.132 87.0094 111.765 89.2593 109.426 90.9123C108.087 91.858 106.697 92.7849 104.886 92.7864C98.3396 92.7935 91.7934 92.8739 85.2473 92.9284C84.9718 92.9313 84.6977 92.96 84.3691 92.9801C84.3691 93.7219 84.3935 94.3877 84.3634 95.0521C84.3161 96.124 84.2357 97.193 84.1654 98.2635C84.1582 98.3811 84.1396 98.5016 84.108 98.6164C83.5599 100.575 82.7089 101.709 80.1275 101.719C71.0732 101.756 62.0174 101.838 52.963 101.91C51.3659 101.923 49.7703 101.971 48.1732 102.003L48.1718 102ZM55.6549 27.1344C55.5473 27.1258 55.4383 27.1172 55.3306 27.1085C54.9418 27.7198 54.4826 28.2981 54.177 28.9481C52.4924 32.5282 50.8192 36.1156 49.1906 39.7215C46.9134 44.7624 44.7108 49.8363 42.4034 54.8628C41.8625 56.0423 41.1177 57.1587 40.3041 58.1732C39.2696 59.4632 37.5448 59.512 36.3093 58.3985C35.8717 58.0038 35.4699 57.5346 35.1729 57.0281C34.5831 56.0222 34.0091 54.9963 33.5471 53.9272C31.9486 50.228 30.4118 46.5044 28.8291 42.798C28.3699 41.7247 27.8648 40.6686 27.3339 39.6282C26.7958 38.5736 26.7111 38.5707 25.8229 39.3958C25.3149 39.8664 24.807 40.3414 24.3492 40.8594C22.6532 42.7707 20.9614 44.6849 19.3026 46.6278C18.2867 47.8173 17.0728 48.5621 15.4814 48.5793C11.9946 48.618 8.5077 48.6467 5.02084 48.6783C4.74247 48.6812 4.46409 48.6783 4.17424 48.6783V76.9778H109.005V72.729C108.731 72.7778 108.503 72.8122 108.278 72.8582C101.633 74.1941 95.2688 73.4623 89.2321 70.2839C86.411 68.7988 84.0233 66.754 81.7633 64.5414C81.4864 64.2702 81.1736 64.0363 80.9167 63.8182C80.1203 65.2531 79.4775 66.6794 78.595 67.9378C77.1027 70.0701 74.8657 70.1289 73.1839 68.1401C72.5267 67.3638 71.9112 66.5029 71.4936 65.5817C69.7903 61.8279 68.0713 58.0756 66.5417 54.2487C63.4193 46.4341 60.4289 38.5678 57.3524 30.7346C56.8689 29.502 56.2246 28.334 55.6535 27.1358L55.6549 27.1344ZM4.18428 14.7036V44.375C4.33064 44.3893 4.42391 44.4051 4.51718 44.4051C8.10162 44.4065 11.6846 44.4166 15.2691 44.3879C15.5446 44.385 15.8875 44.1741 16.0798 43.9545C17.2119 42.6602 18.2867 41.3171 19.4217 40.0257C21.0446 38.1775 22.6302 36.2777 24.7496 34.9576C26.7384 33.7178 28.588 34.0507 29.9483 35.962C30.6758 36.9851 31.3086 38.1029 31.8094 39.2552C33.4352 42.9931 34.9748 46.7698 36.559 50.5265C37.0655 51.7289 37.6094 52.9156 38.1891 54.2257C38.3627 53.8828 38.4775 53.6761 38.5736 53.4623C39.5766 51.2468 40.5868 49.0342 41.574 46.8115C44.2645 40.7532 46.9119 34.6763 49.6469 28.6382C50.561 26.6207 51.5941 24.6433 53.2213 23.0621C54.5902 21.7319 56.1873 21.6358 57.5777 22.9702C58.288 23.6504 58.9309 24.4755 59.3685 25.3536C60.3988 27.4214 61.3731 29.5264 62.2197 31.6745C65.3148 39.5264 68.321 47.4127 71.4204 55.2631C72.4794 57.9436 73.7005 60.5623 74.8743 63.1954C75.0752 63.646 75.4138 64.0363 75.6879 64.4538C75.7725 64.4409 75.8572 64.4294 75.9404 64.4165C76.4512 63.1394 76.9319 61.8494 77.483 60.5896C77.8431 59.7659 77.8259 59.0226 77.46 58.1961C76.3566 55.7051 75.4425 53.1509 75.0651 50.4303C73.999 42.7305 75.4468 35.6478 80.3083 29.4446C86.6579 21.3416 95.0005 17.7945 105.246 18.7229C106.494 18.8362 107.733 19.04 108.998 19.2064V14.7051H4.18428V14.7036ZM125.313 50.3141C124.833 50.2825 124.573 50.2538 124.315 50.251C119.873 50.2007 115.431 50.139 110.99 50.1089C107.51 50.0859 107.487 50.1233 105.287 47.4371C103.398 45.1283 101.617 42.7291 99.6984 40.4461C98.0741 38.5133 96.3177 36.6895 94.6217 34.8169C94.2586 34.4166 93.9128 34.474 93.6187 34.8772C93.1839 35.4741 92.6946 36.051 92.3731 36.7067C90.5508 40.4304 88.7098 44.1482 86.9965 47.9235C85.6477 50.8952 84.4911 53.9545 83.2097 56.9578C82.7003 58.1516 82.7778 59.159 83.6445 60.1878C89.829 67.526 97.6063 70.7402 107.088 68.7643C115.054 67.1041 120.509 62.1221 123.791 54.7466C124.405 53.3676 124.784 51.8825 125.315 50.3155L125.313 50.3141ZM109.127 81.0243H4.17711C4.17711 82.0632 4.09962 83.0662 4.19146 84.0534C4.45118 86.8142 6.64087 88.4156 8.82195 88.4228C16.417 88.4486 24.012 88.6222 31.6071 88.6351C50.2395 88.6667 68.872 88.6595 87.5045 88.6251C93.2126 88.615 98.9193 88.4931 104.627 88.374C106.744 88.3295 108.602 86.6277 108.886 84.5312C109.04 83.4005 109.047 82.2512 109.126 81.0243H109.127ZM4.20581 10.3601H109.073C109.033 9.61398 109.014 8.92665 108.957 8.24219C108.793 6.2907 106.134 3.93025 104.058 3.9776C99.2593 4.08809 94.4552 4.00774 89.654 4.00343C77.6379 3.99339 65.6233 3.96038 53.6073 3.98047C38.7013 4.00487 23.7968 4.07374 8.89083 4.13258C8.46896 4.13401 8.02126 4.17562 7.62809 4.31625C5.06963 5.23029 3.72367 7.61943 4.20581 10.3601ZM80.0931 53.283C80.5379 52.2929 80.9153 51.4506 81.297 50.6083C83.3934 45.9849 85.4267 41.3315 87.6207 36.7541C88.4386 35.0494 89.4947 33.4122 90.6871 31.9442C92.4205 29.8105 94.7336 29.6469 96.8831 31.3617C97.9794 32.2355 99.0384 33.1998 99.9338 34.2745C102.607 37.483 105.285 40.6958 107.768 44.0492C108.915 45.5961 110.203 46.1543 112.044 46.1241C116.344 46.0538 120.644 46.1112 124.944 46.1141C125.147 46.1141 125.349 46.0854 125.547 46.0696C125.475 34.4855 117.476 26.8488 110.978 24.3908C101.119 20.66 91.3902 23.3261 84.9001 30.3902C78.3382 37.5318 77.9163 47.031 80.0931 53.2844V53.283ZM80.0457 92.9385H33.1439V97.7871H80.0457V92.9385ZM120.387 66.9032C120.426 66.9463 120.529 67.0726 120.645 67.1873C123.544 70.0916 126.437 73.0045 129.35 75.8945C130.585 77.1213 131.855 78.3137 133.139 79.4904C133.307 79.6439 133.766 79.7401 133.9 79.631C134.719 78.9566 135.482 78.2162 136.028 77.7168C131.608 73.1911 127.265 68.7442 122.849 64.2228C122.016 65.1311 121.212 66.0064 120.389 66.9047L120.387 66.9032Z" fill="#53545D"/>
</g>
<defs>
<clipPath id="clip0_1_3107">
<rect width="140.528" height="102" fill="white"/>
</clipPath>
</defs>
</svg>
