<svg width="32" height="33" viewBox="0 0 32 33" fill="none" xmlns="http://www.w3.org/2000/svg">
<path d="M28.2047 19.2693C28.0765 19.1407 27.9156 19.0496 27.7394 19.0055C27.5632 18.9615 27.3784 18.9662 27.2047 19.0193C25.2979 19.5957 23.2705 19.6441 21.3384 19.1591C19.4063 18.6742 17.642 17.6742 16.2334 16.2656C14.8248 14.857 13.8248 13.0927 13.3399 11.1606C12.8549 9.22852 12.9033 7.20107 13.4797 5.29428C13.5332 5.12053 13.5384 4.93549 13.4945 4.75905C13.4507 4.58261 13.3597 4.42144 13.2311 4.29289C13.1026 4.16434 12.9414 4.07327 12.765 4.02946C12.5885 3.98566 12.4035 3.99078 12.2297 4.04428C9.59352 4.85184 7.27915 6.47027 5.61598 8.66928C4.1615 10.6004 3.2743 12.8987 3.05406 15.3062C2.83383 17.7137 3.28927 20.135 4.36924 22.2979C5.44921 24.4608 7.11091 26.2797 9.16765 27.5503C11.2244 28.8209 13.5947 29.4928 16.0122 29.4905C18.8327 29.4992 21.5781 28.5823 23.8272 26.8805C26.0262 25.2174 27.6447 22.903 28.4522 20.2668C28.5051 20.0937 28.51 19.9095 28.4664 19.7338C28.4228 19.5581 28.3324 19.3976 28.2047 19.2693ZM22.6247 25.283C20.5067 26.8784 17.8836 27.6549 15.2384 27.4697C12.5932 27.2845 10.104 26.15 8.22891 24.275C6.35382 22.4001 5.21913 19.9109 5.03369 17.2658C4.84826 14.6206 5.62458 11.9975 7.21973 9.87928C8.25899 8.50686 9.60256 7.39434 11.1447 6.62928C11.0569 7.24581 11.0126 7.86777 11.0122 8.49053C11.0159 11.9372 12.3867 15.2417 14.8239 17.6789C17.261 20.1161 20.5655 21.4869 24.0122 21.4905C24.6362 21.4903 25.2595 21.4461 25.8772 21.358C25.1115 22.9005 23.9981 24.2441 22.6247 25.283Z" fill="white"/>
</svg>
