<svg width="18" height="18" viewBox="0 0 18 18" fill="none" xmlns="http://www.w3.org/2000/svg">
<path d="M17.7945 10.7801C17.7039 10.6893 17.5903 10.6249 17.466 10.5938C17.3416 10.5627 17.2111 10.5661 17.0885 10.6036C15.7423 11.0105 14.3109 11.0447 12.9469 10.7023C11.5828 10.3599 10.3372 9.65392 9.34275 8.65947C8.34831 7.66503 7.64229 6.41942 7.29993 5.05537C6.95756 3.69132 6.99169 2.25994 7.39866 0.913759C7.43643 0.791093 7.44005 0.660452 7.40912 0.535885C7.37819 0.411318 7.31389 0.297538 7.22314 0.206782C7.13238 0.116026 7.0186 0.0517269 6.89404 0.0208009C6.76947 -0.0101251 6.63883 -0.00650823 6.51616 0.0312623C4.655 0.601394 3.02107 1.744 1.84688 3.2965C0.820014 4.65983 0.193655 6.28249 0.038168 7.98218C-0.117319 9.68186 0.204227 11.3912 0.966681 12.9183C1.72913 14.4453 2.90229 15.7294 4.35434 16.6265C5.80639 17.5235 7.47981 17.9978 9.18659 17.9962C11.1778 18.0024 13.116 17.3551 14.704 16.1536C16.2565 14.9794 17.3991 13.3455 17.9692 11.4843C18.0065 11.3621 18.01 11.232 17.9792 11.108C17.9484 10.984 17.8846 10.8706 17.7945 10.7801ZM13.855 15.0258C12.3596 16.1521 10.5078 16.7003 8.64029 16.5695C6.7728 16.4388 5.01539 15.6378 3.69159 14.3141C2.36779 12.9904 1.5667 11.2331 1.43578 9.36559C1.30487 7.49812 1.85294 5.6462 2.97912 4.15075C3.71283 3.18183 4.66139 2.39639 5.75015 1.85626C5.68813 2.29153 5.65687 2.73063 5.65661 3.1703C5.65918 5.60366 6.62697 7.93662 8.34761 9.65726C10.0683 11.3779 12.4012 12.3457 14.8346 12.3483C15.2751 12.3481 15.7151 12.3169 16.1513 12.2547C15.6106 13.3437 14.8246 14.2922 13.855 15.0258Z" fill="white"/>
</svg>
