<svg width="90" height="90" viewBox="0 0 90 90" fill="none" xmlns="http://www.w3.org/2000/svg">
<g clip-path="url(#clip0_1791_1856)">
<g clip-path="url(#clip1_1791_1856)">
<path d="M1.97952 0C6.1365 1.31344 10.2878 2.63812 14.4476 3.93469C17.3632 4.84312 20.29 5.71781 23.2141 6.59531C26.9525 7.7175 29.9501 10.1222 32.9618 12.4031C36.327 14.9513 39.4376 17.8284 42.701 20.5172C43.2864 21.0009 44.0216 21.4341 44.754 21.5972C48.8375 22.5028 52.9492 23.2931 57.0327 24.1931C57.7227 24.345 58.4636 24.7219 58.9585 25.2141C63.6471 29.8941 68.3018 34.6078 72.9113 39.3638C73.3581 39.825 73.819 40.8487 73.6013 41.2284C73.3072 41.7431 72.3627 42.1397 71.6924 42.1509C67.0773 42.2297 62.4594 42.1509 57.8415 42.2325C57.1034 42.2466 56.2268 42.6403 55.6697 43.1409C53.8938 44.7384 52.2395 46.4681 50.4353 48.2456C52.7032 50.4787 54.8977 52.5994 57.0299 54.7791C57.4116 55.17 57.6859 55.8028 57.7227 56.3456C57.7453 56.6691 57.2165 57.3047 56.9196 57.3131C56.3371 57.33 55.5877 57.1753 55.1833 56.8013C53.2575 55.0097 51.4278 53.1169 49.5586 51.2634C49.2278 50.9372 48.8828 50.625 48.4557 50.2256C46.5187 52.1634 44.6042 54.0309 42.766 55.9688C42.4719 56.2781 42.438 56.9109 42.4352 57.3975C42.4126 62.0353 42.455 66.6759 42.3843 71.3138C42.373 72.0056 42.0619 72.9394 41.5557 73.3247C40.7102 73.9659 40.0315 73.1503 39.4178 72.5484C34.749 67.9838 30.0519 63.4444 25.4198 58.8403C24.8033 58.2272 24.3056 57.3384 24.1105 56.4947C23.1801 52.4362 22.394 48.3469 21.5004 44.28C21.3703 43.6838 21.0394 43.0509 20.6153 42.615C15.576 37.4456 11.2578 31.7222 7.51368 25.5797C6.73036 24.2944 6.40798 22.7138 5.96117 21.2456C4.12305 15.2044 2.32169 9.15469 0.494879 3.11344C0.376108 2.71969 0.166845 2.35125 0 1.96875V0H1.97952ZM54.53 39.8363C46.9343 27.9394 37.1895 17.8453 24.8825 10.3837C20.0553 15.1987 15.3045 19.9378 10.4603 24.7725C17.793 37.0856 28.0017 46.6875 39.9749 54.2081C42.1298 52.0875 44.18 50.0681 46.3801 47.9025C46.1114 47.6916 45.7099 47.4328 45.379 47.1066C43.1365 44.8959 40.9081 42.6713 38.6769 40.4494C37.9869 39.7631 37.7352 38.9953 38.5186 38.2472C39.2369 37.5609 39.9778 37.7887 40.6338 38.4272C40.9364 38.7225 41.2362 39.0206 41.5331 39.3216C43.818 41.6166 46.1001 43.9144 48.4614 46.2909C50.489 44.1366 52.412 42.0891 54.53 39.8391V39.8363ZM21.6333 9.06188C15.7598 7.29844 9.84103 5.52656 3.69321 3.68156C5.57658 9.86625 7.35815 15.7247 9.09447 21.4284C13.2854 17.2941 17.4395 13.1962 21.6333 9.06188ZM47.1747 25.1325C47.22 25.3294 47.2171 25.4363 47.2652 25.5037C50.5625 29.9278 53.8513 34.3575 57.1939 38.7478C57.4965 39.1444 58.1639 39.4566 58.6701 39.4734C61.1614 39.5466 63.6556 39.5072 66.147 39.5072C66.9642 39.5072 67.7815 39.5072 68.5959 39.5072C68.7147 39.3131 68.8306 39.1191 68.9494 38.925C64.9677 35.1056 60.9861 31.2862 56.9959 27.4781C56.8008 27.2925 56.5378 27.1153 56.2805 27.0619C53.2631 26.4094 50.2401 25.7822 47.1719 25.1381L47.1747 25.1325ZM25.0579 46.8112C25.7903 50.1637 26.4294 53.2069 27.1392 56.2331C27.2353 56.6409 27.6425 57.0066 27.9649 57.33C31.4489 60.8091 34.9441 64.2797 38.4422 67.7475C38.6826 67.9866 38.9654 68.1834 39.4207 68.5575C39.4207 64.8366 39.4489 61.38 39.3811 57.9263C39.3726 57.5438 38.8805 57.0825 38.5016 56.8125C35.7981 54.8719 33.0325 53.0072 30.3488 51.0384C28.621 49.77 26.9921 48.3666 25.055 46.8084L25.0579 46.8112Z" fill="white"/>
<path d="M81.4431 90C72.9906 81.8719 64.5381 73.7409 56.0855 65.6128C55.9498 65.4834 55.8141 65.3513 55.684 65.2191C55.0251 64.5441 54.895 63.8325 55.6161 63.135C56.2835 62.4881 56.9876 62.6147 57.6154 63.2109C59.0463 64.5666 60.4603 65.9391 61.8827 67.3031C68.7488 73.9041 75.6177 80.5022 82.4781 87.1088C83.7648 88.3491 83.7648 88.6753 82.5743 90H81.4431Z" fill="white"/>
<path d="M89.3126 78.6487C88.9195 79.1747 88.7046 79.695 88.3172 79.9172C87.9807 80.1112 87.3925 80.1028 87.022 79.9397C86.5724 79.7428 86.2217 79.3041 85.8541 78.9441C75.6002 68.8837 65.3491 58.8206 55.0981 48.7575C55.0641 48.7237 55.033 48.69 54.9963 48.6591C54.2101 47.9587 53.7435 47.1375 54.6201 46.26C55.4572 45.4219 56.2292 45.9253 56.9277 46.6172C59.4671 49.1231 62.0179 51.615 64.5658 54.1153C72.3397 61.7428 80.1135 69.3675 87.8817 77.0034C88.3681 77.4816 88.7781 78.0328 89.3126 78.6487Z" fill="white"/>
<path d="M64.9308 63.1069C65.4314 63.4078 65.881 63.5794 66.1949 63.8887C68.9125 66.5522 71.6046 69.2437 74.3053 71.9241C74.9953 72.6103 75.2583 73.3641 74.4636 74.1206C73.6577 74.8884 72.9337 74.5228 72.2607 73.8506C69.6025 71.1928 66.9132 68.5659 64.303 65.8631C63.9298 65.475 63.7601 64.7072 63.8251 64.1503C63.8675 63.7875 64.501 63.4922 64.9337 63.1097L64.9308 63.1069Z" fill="white"/>
<path d="M54.9574 61.3491C54.6718 61.6837 54.4257 62.2209 54.027 62.3784C53.6255 62.5359 52.9015 62.4965 52.6159 62.2294C50.84 60.5756 49.098 58.8769 47.4663 57.0825C47.1751 56.7619 47.2316 55.7269 47.537 55.3809C47.834 55.0434 48.9227 54.8803 49.2111 55.1362C51.0832 56.8209 52.8365 58.635 54.6067 60.4294C54.7821 60.6066 54.8047 60.9328 54.9602 61.3491H54.9574Z" fill="white"/>
<path d="M77.7155 75.9431C78.643 75.9093 80.6621 77.9625 80.583 78.8569C80.4925 79.8609 79.3302 80.5247 78.5158 79.9284C77.7749 79.3856 77.0905 78.6994 76.5589 77.9512C75.9905 77.1497 76.7257 75.9797 77.7127 75.9431H77.7155Z" fill="white"/>
<path d="M35.9314 27.6441C35.9172 32.2369 32.1731 35.9972 27.6089 35.9972C22.9457 35.9972 19.1846 32.1497 19.2101 27.4022C19.2355 22.6941 22.9485 18.9788 27.6146 18.99C32.2862 19.0041 35.9455 22.8094 35.9314 27.6441ZM27.5382 32.9119C30.6913 32.9203 33.1233 30.5747 33.1685 27.4838C33.2138 24.3984 30.581 21.6984 27.4986 21.6647C24.4728 21.6338 21.8174 24.2381 21.7863 27.27C21.7552 30.4481 24.2579 32.9006 27.5382 32.9119Z" fill="white"/>
</g>
</g>
<defs>
<clipPath id="clip0_1791_1856">
<rect width="90" height="90" fill="white"/>
</clipPath>
<clipPath id="clip1_1791_1856">
<rect width="89.313" height="90" fill="white"/>
</clipPath>
</defs>
</svg>
