<svg width="103" height="108" viewBox="0 0 103 108" fill="none" xmlns="http://www.w3.org/2000/svg">
<g id="_&#208;&#161;&#208;&#187;&#208;&#190;&#208;&#185;_1" clip-path="url(#clip0_1_3057)">
<path id="Vector" d="M0.0291428 53.4736C0.0291428 37.9679 0.07627 22.4645 -3.12207e-05 6.95878C-0.0202286 2.66507 3.33029 0.00662705 6.99275 0.00662705C19.6318 0.013403 32.2687 0.00888571 44.9077 0.00662705C49.8808 0.00662705 54.8538 0.0224377 59.8269 -0.00240758C61.2946 -0.00918355 62.5154 0.519342 63.5454 1.51315C69.2097 6.9791 74.8537 12.4654 80.527 17.9223C81.6962 19.0471 82.1338 20.4226 82.1338 21.9721C82.1405 38.1531 82.1338 54.3364 82.1338 70.5174C82.1338 79.9405 82.1158 89.3637 82.154 98.7868C82.1652 101.513 81.7164 104.013 79.5867 105.933C78.1818 107.2 76.584 107.968 74.6562 107.968C52.2955 107.964 29.937 107.934 7.57623 107.993C3.44475 108.004 0.0156779 104.404 0.0224103 100.32C0.0493402 84.7018 0.0336311 69.0854 0.0336311 53.4668L0.0291428 53.4736ZM58.9202 4.27323C58.4288 4.27323 58.0944 4.27323 57.7623 4.27323C41.0837 4.27323 24.4074 4.27323 7.72884 4.27323C7.39221 4.27323 7.05559 4.27775 6.71897 4.29808C5.12786 4.39294 4.27508 5.28963 4.27508 6.89328C4.27508 37.9792 4.27733 69.0651 4.28406 100.151C4.28406 102.448 5.52283 103.699 7.77148 103.699C29.8719 103.702 51.9701 103.704 74.0705 103.699C76.5211 103.699 77.8991 102.279 77.8991 99.7783C77.8991 74.5243 77.8991 49.2725 77.8991 24.0184V22.792C74.1289 22.792 70.5405 22.7965 66.9498 22.7897C65.2824 22.7852 63.7115 22.3967 62.3089 21.4594C59.975 19.9031 58.9 17.6851 58.9113 14.8844C58.927 11.3903 58.9158 7.89612 58.9158 4.26871L58.9202 4.27323ZM74.001 18.5299C70.5629 14.8821 66.896 10.9882 63.0921 6.952C63.0921 9.89277 63.0472 12.5964 63.1078 15.3C63.1482 17.0956 64.6563 18.4983 66.492 18.5208C69.1828 18.5547 71.8735 18.5299 74.0032 18.5299H74.001Z" fill="#53545D"/>
<path id="Vector_2" d="M98.3231 25.3467H96.75C96.75 25.8278 96.75 26.2682 96.75 26.7086C96.75 43.1923 96.75 59.6783 96.7455 76.162C96.7455 76.6453 96.7836 77.1761 96.6108 77.6052C95.5426 80.2659 94.4856 82.9379 93.2581 85.5241C92.9888 86.0933 92.0821 86.5721 91.4044 86.6783C90.5583 86.8138 89.8941 86.1881 89.5687 85.3366C88.7024 83.0757 87.807 80.8261 86.9924 78.5494C86.7837 77.9666 86.7657 77.2935 86.7657 76.6611C86.75 59.0865 86.7455 41.5096 86.7433 23.935C86.7433 21.7689 87.3268 21.202 89.4475 21.2043C92.8833 21.2088 96.3213 21.1907 99.7571 21.2043C101.719 21.2111 102.488 21.9383 102.497 23.8921C102.52 29.5229 102.506 35.156 102.491 40.7868C102.486 42.1036 101.945 42.9055 100.998 43.1426C99.4991 43.5176 98.3276 42.5983 98.3254 41.0285C98.3209 36.2492 98.3254 31.4699 98.3254 26.6883C98.3254 26.2795 98.3254 25.8707 98.3254 25.3444L98.3231 25.3467ZM91.5099 78.791C91.6827 78.791 91.8555 78.791 92.0283 78.791C92.2145 77.8966 92.5579 77.0044 92.5601 76.11C92.5983 66.5175 92.5803 56.9227 92.5758 47.3302C92.5758 47.0817 92.5265 46.831 92.5018 46.5961H91.0229C91.0229 47.1043 91.0229 47.5493 91.0229 47.9965C91.0229 57.1011 91.0027 66.2058 91.0408 75.3104C91.0453 76.4714 91.346 77.6301 91.5099 78.7888V78.791ZM92.5153 42.2708V25.4415H91.0992V42.2708H92.5153Z" fill="#53545D"/>
<path id="Vector_3" d="M40.9019 53.5144C31.968 53.5144 23.0362 53.5166 14.1023 53.5144C12.3496 53.5144 11.4362 52.7555 11.4407 51.3461C11.4452 50.0473 12.2059 49.2636 13.521 49.2568C15.9133 49.2433 18.3056 49.2523 20.6978 49.2523C36.4697 49.2523 52.2439 49.2523 68.0158 49.2523C69.3309 49.2523 70.0827 49.7921 70.3295 50.8966C70.5427 51.8407 70.1029 52.8955 69.2232 53.2366C68.6846 53.4444 68.0607 53.5053 67.475 53.5053C58.6173 53.5212 49.7596 53.5166 40.8997 53.5166L40.9019 53.5144Z" fill="#53545D"/>
<path id="Vector_4" d="M40.9379 70.9309C49.9123 70.9309 58.8889 70.9603 67.8633 70.9038C69.5464 70.8925 70.352 71.8954 70.388 72.9705C70.4328 74.3031 69.4319 75.202 67.879 75.202C49.8741 75.2088 31.8715 75.2111 13.8667 75.2088C12.3272 75.2088 11.425 74.3821 11.4385 73.0337C11.452 71.665 12.3025 70.9309 13.9003 70.9286C22.9129 70.9264 31.9254 70.9286 40.9379 70.9286V70.9309Z" fill="#53545D"/>
<path id="Vector_5" d="M40.8863 60.8595C31.9545 60.8595 23.0228 60.8595 14.0888 60.8573C12.3092 60.8573 11.5417 60.2926 11.4564 58.9668C11.3622 57.4919 12.0691 56.7081 13.539 56.7059C17.0152 56.6968 20.4914 56.7036 23.9654 56.7036C38.6893 56.7036 53.4154 56.7081 68.1393 56.6901C69.1536 56.6901 69.9099 57.004 70.2398 57.9798C70.5697 58.9555 70.3992 59.9222 69.4925 60.4575C68.9562 60.7737 68.2156 60.8415 67.567 60.8437C61.1016 60.8708 54.6362 60.8595 48.1708 60.8595C45.7426 60.8595 43.3122 60.8595 40.884 60.8595H40.8863Z" fill="#53545D"/>
<path id="Vector_6" d="M40.985 68.2182C31.9343 68.2182 22.8837 68.2182 13.8307 68.2182C12.2396 68.2182 11.4654 67.5678 11.443 66.2193C11.4183 64.7964 12.1947 64.0623 13.815 64.0601C31.8423 64.0555 49.8696 64.0578 67.8969 64.0668C69.7192 64.0668 70.655 65.1329 70.2892 66.714C70.0423 67.7756 69.4252 68.216 68.137 68.216C59.0864 68.2182 50.0357 68.216 40.9828 68.216L40.985 68.2182Z" fill="#53545D"/>
<path id="Vector_7" d="M31.7839 35.4677C25.8369 35.4677 19.8899 35.4677 13.9429 35.4677C12.354 35.4677 11.4676 34.7314 11.4406 33.401C11.4137 32.0029 12.3181 31.1808 13.9384 31.1808C25.8706 31.1763 37.8005 31.1763 49.7326 31.1808C51.1958 31.1808 52.2528 32.0707 52.2865 33.2881C52.3224 34.623 51.3417 35.4677 49.7371 35.4677C43.752 35.4677 37.7691 35.4677 31.7839 35.4677Z" fill="#53545D"/>
<path id="Vector_8" d="M23.337 16.9467C20.157 16.9467 16.9793 16.9512 13.7994 16.9467C12.3272 16.9445 11.4565 16.1607 11.4385 14.8529C11.4206 13.5407 12.2846 12.6711 13.7298 12.6666C20.1638 12.6507 26.5955 12.6485 33.0295 12.6666C34.4613 12.6711 35.2871 13.5452 35.2624 14.8981C35.24 16.1494 34.376 16.9399 32.9891 16.9445C29.7732 16.9512 26.5551 16.9467 23.3393 16.9467H23.337Z" fill="#53545D"/>
<path id="Vector_9" d="M23.3774 23.7837C20.1727 23.7837 16.9703 23.7905 13.7657 23.7814C12.2239 23.7769 11.416 23.0519 11.4228 21.7125C11.4295 20.3279 12.1678 19.6323 13.732 19.63C20.1615 19.6165 26.5888 19.6165 33.0183 19.6277C34.5286 19.63 35.2781 20.3844 35.2624 21.7848C35.2467 23.0925 34.5039 23.7701 32.9891 23.7769C29.7844 23.7927 26.582 23.7814 23.3774 23.7814V23.7859V23.7837Z" fill="#53545D"/>
<path id="Vector_10" d="M23.3258 45.5165C20.1503 45.5165 16.9748 45.5278 13.8016 45.512C12.3721 45.5029 11.627 45.0196 11.4654 44.0868C11.2231 42.6841 12.0287 41.8055 13.6243 41.801C17.5875 41.7874 21.5529 41.7965 25.5161 41.7965C28.0587 41.7965 30.6013 41.7829 33.1462 41.8032C34.6161 41.8145 35.3746 42.6028 35.2624 43.9309C35.1772 44.9383 34.4904 45.4871 33.0744 45.5097C30.6844 45.5504 28.2943 45.5233 25.9043 45.5233C25.0448 45.5233 24.1875 45.5233 23.328 45.5233C23.328 45.5233 23.328 45.521 23.328 45.5187L23.3258 45.5165Z" fill="#53545D"/>
</g>
<defs>
<clipPath id="clip0_1_3057">
<rect width="102.508" height="108" fill="white"/>
</clipPath>
</defs>
</svg>
