<svg width="91" height="90" viewBox="0 0 91 90" fill="none" xmlns="http://www.w3.org/2000/svg">
<path d="M15.5 39V36H12.5V39H15.5ZM39.5 39V36H36.5V39H39.5ZM39.5 63H36.5V66H39.5V63ZM81.5 21H84.5V19.758L83.624 18.876L81.5 21ZM63.5 3L65.624 0.876L64.742 0H63.5V3ZM15.5 42H21.5V36H15.5V42ZM18.5 66V51H12.5V66H18.5ZM18.5 51V39H12.5V51H18.5ZM21.5 48H15.5V54H21.5V48ZM24.5 45C24.5 45.7957 24.1839 46.5587 23.6213 47.1213C23.0587 47.6839 22.2956 48 21.5 48V54C23.8869 54 26.1761 53.0518 27.864 51.364C29.5518 49.6761 30.5 47.3869 30.5 45H24.5ZM21.5 42C22.2956 42 23.0587 42.3161 23.6213 42.8787C24.1839 43.4413 24.5 44.2043 24.5 45H30.5C30.5 42.6131 29.5518 40.3239 27.864 38.636C26.1761 36.9482 23.8869 36 21.5 36V42ZM36.5 39V63H42.5V39H36.5ZM39.5 66H45.5V60H39.5V66ZM54.5 57V45H48.5V57H54.5ZM45.5 36H39.5V42H45.5V36ZM54.5 45C54.5 42.6131 53.5518 40.3239 51.864 38.636C50.1761 36.9482 47.8869 36 45.5 36V42C46.2957 42 47.0587 42.3161 47.6213 42.8787C48.1839 43.4413 48.5 44.2043 48.5 45H54.5ZM45.5 66C47.8869 66 50.1761 65.0518 51.864 63.364C53.5518 61.6761 54.5 59.3869 54.5 57H48.5C48.5 57.7957 48.1839 58.5587 47.6213 59.1213C47.0587 59.6839 46.2957 60 45.5 60V66ZM60.5 36V66H66.5V36H60.5ZM63.5 42H78.5V36H63.5V42ZM63.5 54H72.5V48H63.5V54ZM12.5 30V9H6.5V30H12.5ZM78.5 21V30H84.5V21H78.5ZM15.5 6H63.5V0H15.5V6ZM61.376 5.124L79.376 23.124L83.624 18.876L65.624 0.876L61.376 5.124ZM12.5 9C12.5 8.20435 12.8161 7.44129 13.3787 6.87868C13.9413 6.31607 14.7044 6 15.5 6V0C13.1131 0 10.8239 0.948211 9.13604 2.63604C7.44821 4.32387 6.5 6.61305 6.5 9H12.5ZM6.5 72V81H12.5V72H6.5ZM15.5 90H75.5V84H15.5V90ZM84.5 81V72H78.5V81H84.5ZM75.5 90C77.8869 90 80.1761 89.0518 81.864 87.364C83.5518 85.6761 84.5 83.3869 84.5 81H78.5C78.5 81.7956 78.1839 82.5587 77.6213 83.1213C77.0587 83.6839 76.2956 84 75.5 84V90ZM6.5 81C6.5 83.3869 7.44821 85.6761 9.13604 87.364C10.8239 89.0518 13.1131 90 15.5 90V84C14.7044 84 13.9413 83.6839 13.3787 83.1213C12.8161 82.5587 12.5 81.7956 12.5 81H6.5Z" fill="#5CC280"/>
</svg>
