<svg width="90" height="90" viewBox="0 0 90 90" fill="none" xmlns="http://www.w3.org/2000/svg">
<g clip-path="url(#clip0_1791_1870)">
<g clip-path="url(#clip1_1791_1870)">
<path d="M89.843 55.3003C89.7281 55.9968 89.6502 56.7023 89.4933 57.3888C88.7948 60.4557 87.6346 63.3666 86.4004 66.2456C83.5065 72.9939 80.0579 79.4634 76.4744 85.8629C75.9238 86.8472 75.3242 87.8035 74.7326 88.7648C74.5857 89.0027 74.4008 89.2245 74.202 89.4224C73.4815 90.1389 72.5591 90.1499 71.8896 89.3774C71.4139 88.8298 70.9972 88.2172 70.6375 87.5857C66.4304 80.2218 62.4252 72.7541 59.1565 64.9165C58.0523 62.2704 57.022 59.5893 56.4924 56.7513C55.7729 52.89 56.5243 49.2825 58.495 45.9338C61.3649 41.0562 65.6869 38.2542 71.263 37.5757C74.6866 37.159 78.0163 37.7975 81.0672 39.5243C85.4781 42.0206 88.3061 45.727 89.4953 50.6615C89.6571 51.332 89.7301 52.0236 89.844 52.7051V55.3003H89.843ZM73.0438 84.205C73.2956 83.7943 73.4835 83.5215 73.6374 83.2297C75.628 79.4594 77.6535 75.707 79.5882 71.9086C81.7337 67.6966 83.7163 63.4086 85.2243 58.9147C86.0667 56.4065 86.4224 53.8623 85.7699 51.2771C84.4858 46.1936 81.1691 42.9919 76.1866 41.6638C72.8009 40.7614 69.4833 41.2791 66.3934 43.0718C61.5308 45.8919 58.8567 52.1695 60.4486 57.4158C61.8856 62.1525 63.9022 66.6343 66.0886 71.0482C67.7964 74.4958 69.6172 77.8875 71.4039 81.2961C71.9026 82.2464 72.4562 83.1678 73.0428 84.206L73.0438 84.205Z" fill="white"/>
<path d="M12.9821 0C13.6206 0.0609573 14.2592 0.118917 14.8977 0.181873C17.7827 0.463675 20.19 1.77476 22.2396 3.74038C24.9917 6.37953 26.2708 9.66723 26.1339 13.4646C26.0639 15.3902 25.4204 17.203 24.6979 18.9767C22.9021 23.3926 20.5078 27.4898 17.9806 31.5119C16.8684 33.2827 15.6782 35.0065 14.485 36.7253C13.8315 37.6666 12.4375 37.7066 11.7659 36.7723C10.6137 35.1684 9.50152 33.5325 8.44026 31.8667C6.40568 28.6749 4.49302 25.4102 2.84617 21.9976C1.8149 19.8591 0.847574 17.6916 0.311948 15.3652C-0.457513 12.0236 0.222011 8.92375 2.06872 6.09573C4.07032 3.02888 6.87635 1.04227 10.4788 0.258819C11.1664 0.108924 11.8809 0.0829419 12.5834 0C12.7163 0 12.8492 0 12.9831 0H12.9821ZM13.048 32.2085C13.166 32.1005 13.1959 32.0825 13.2129 32.0556C16.0489 27.6596 18.756 23.1868 20.8456 18.3791C21.4691 16.9441 22.0707 15.4452 22.3205 13.9163C22.7323 11.402 21.9058 9.08764 20.284 7.15999C17.5679 3.93125 12.6983 2.50225 8.35032 5.06545C5.00466 7.03707 3.15496 10.9513 4.04633 14.7147C4.43107 16.3416 5.08661 17.9394 5.84807 19.4334C7.43596 22.5502 9.15876 25.5991 10.8626 28.6549C11.5311 29.8531 12.2976 30.9973 13.047 32.2094L13.048 32.2085Z" fill="white"/>
<path d="M44.0903 57.3448C44.0484 58.1333 43.7486 58.7848 42.9721 59.1216C42.1907 59.4604 41.4262 59.2825 40.9316 58.6719C40.5858 58.2462 40.4429 57.6027 40.351 57.0341C39.9892 54.7756 39.6834 52.5082 39.3577 50.2438C39.2377 49.4074 39.9083 48.4241 40.7857 48.1473C41.4922 47.9244 42.4735 48.4071 42.8202 49.2975C43.112 50.046 43.2909 50.8554 43.4058 51.6538C43.6656 53.4576 43.8555 55.2713 44.0724 57.082C44.0824 57.164 44.0834 57.2479 44.0893 57.3448H44.0903Z" fill="white"/>
<path d="M40.9559 65.782C40.9439 65.5501 40.9709 65.3073 40.9139 65.0874C40.6781 64.1771 41.3276 63.7644 41.9062 63.3457C42.4908 62.923 43.1154 63.0219 43.7359 63.3397C44.1646 63.5595 44.3805 63.9123 44.4524 64.354C44.6203 65.3822 44.7692 66.4145 44.9141 67.4468C45.107 68.8248 45.3018 70.2029 45.4687 71.5849C45.5217 72.0246 45.5707 72.4923 45.4767 72.916C45.3168 73.6395 44.4954 74.1621 43.686 74.1661C42.8805 74.1701 42.192 73.7394 42.0211 72.9469C41.7104 71.5099 41.4705 70.056 41.2477 68.603C41.1048 67.6696 41.0428 66.7243 40.9459 65.784C40.9499 65.784 40.9539 65.784 40.9569 65.783L40.9559 65.782Z" fill="white"/>
<path d="M64.2269 90C62.2843 89.7772 60.3387 89.5753 58.4 89.3185C57.7025 89.2255 56.989 89.0876 56.5923 88.3532C56.2086 87.6427 56.1846 86.9681 56.6512 86.2966C57.1009 85.649 57.7365 85.4812 58.485 85.5781C59.5202 85.712 60.5565 85.8419 61.5948 85.9468C63.0138 86.0907 64.4358 86.2087 65.8568 86.3406C66.6153 86.4105 67.1139 86.8122 67.3418 87.5377C67.5516 88.2053 67.3418 88.7579 66.9021 89.2785C66.4934 89.7612 66.0687 90.0859 65.3791 89.951C65.0114 89.8791 64.6177 89.938 64.2359 89.938C64.2329 89.958 64.2299 89.979 64.226 89.999L64.2269 90Z" fill="white"/>
<path d="M53.0214 84.6228C53.0154 86.2346 51.6264 87.0641 50.2973 86.3046C48.6895 85.3852 47.4004 84.0831 46.2402 82.6641C45.6236 81.9107 45.079 81.0892 44.5763 80.2548C43.8868 79.1116 44.6743 77.7616 46.0523 77.4958C46.5989 77.3898 47.1196 77.6866 47.5073 78.1093C47.7082 78.3282 47.887 78.573 48.0449 78.8248C49.0662 80.4487 50.3613 81.8107 51.9132 82.9349C52.0871 83.0609 52.238 83.2197 52.4129 83.3467C52.8845 83.6874 53.1254 84.1251 53.0224 84.6228H53.0214Z" fill="white"/>
<path d="M38.3556 45.0485C37.9808 44.8306 37.5571 44.6657 37.2453 44.3799C36.8326 44.0022 36.4949 43.5385 36.1471 43.0938C35.1918 41.8727 34.0056 40.9234 32.7065 40.0969C32.3308 39.8581 31.966 39.5813 31.6592 39.2615C31.1376 38.7199 31.1456 38.0664 31.4234 37.4078C31.6892 36.7743 32.1089 36.2186 32.8424 36.2846C33.431 36.3376 34.0486 36.5494 34.5632 36.8472C36.245 37.8185 37.718 39.0597 38.9381 40.5796C39.3529 41.0962 39.7336 41.6448 40.0794 42.2095C40.7789 43.3507 39.8095 44.9445 38.4265 44.9295C38.4035 44.9695 38.3795 45.0095 38.3566 45.0495L38.3556 45.0485Z" fill="white"/>
<path d="M24.875 37.7406C23.1802 37.5937 21.6733 37.4948 20.1743 37.3209C19.2999 37.2199 18.7773 36.5114 18.7803 35.6081C18.7833 34.6587 19.3029 33.9462 20.1703 33.8353C20.8578 33.7464 21.5643 33.6994 22.2529 33.7544C23.6539 33.8653 25.0539 34.0182 26.4419 34.233C27.2384 34.357 27.6701 34.9126 27.76 35.658C27.8529 36.4295 27.4142 37.3099 26.7557 37.6257C26.5978 37.7016 26.4059 37.7306 26.2281 37.7356C25.7144 37.7496 25.1998 37.7406 24.874 37.7406H24.875Z" fill="white"/>
<path d="M63.7445 54.263C63.5686 48.8258 68.8859 44.6977 73.3877 44.9855C78.4402 45.3083 82.7981 49.4684 82.3465 55.1983C82.0397 59.0966 78.704 63.7544 72.9141 63.6544C67.5348 63.5615 63.6825 59.2195 63.7455 54.263H63.7445ZM73.062 59.7951C76.1008 60.1878 78.657 57.177 78.6371 54.293C78.6171 51.4729 76.1838 48.6579 72.8221 48.7299C70.0141 48.7898 67.5418 51.343 67.4779 54.249C67.4139 57.117 69.9312 60.1699 73.063 59.7951H73.062Z" fill="white"/>
<path d="M13.0535 18.6769C9.95166 18.6479 7.51136 16.0977 7.48838 12.9599C7.46939 10.2798 10.1885 7.40981 12.9985 7.48376C16.2293 7.5687 18.7175 10.039 18.6835 13.2407C18.6596 15.5131 16.7359 18.7129 13.0535 18.6769ZM14.8982 13.0968C14.8922 12.0885 14.0638 11.2271 13.0855 11.2112C12.2421 11.1972 11.1908 12.2644 11.2158 13.1068C11.2467 14.1461 12.1331 14.9295 13.2643 14.9196C14.2037 14.9106 14.9052 14.1281 14.8982 13.0968Z" fill="white"/>
</g>
</g>
<defs>
<clipPath id="clip0_1791_1870">
<rect width="90" height="90" fill="white"/>
</clipPath>
<clipPath id="clip1_1791_1870">
<rect width="89.8431" height="90" fill="white"/>
</clipPath>
</defs>
</svg>
