<svg width="32" height="33" viewBox="0 0 32 33" fill="none" xmlns="http://www.w3.org/2000/svg">
<g clip-path="url(#clip0_2956_3083)">
<path d="M15.6137 11.453C15.0322 11.267 14.4735 11.0849 13.9119 10.9135C13.8584 10.897 13.7739 10.9321 13.7223 10.9694C12.5507 11.8179 11.3834 12.6718 10.2103 13.5177C10.1027 13.5952 9.96221 13.627 9.83653 13.6782C9.77585 13.7031 9.71048 13.7173 9.65306 13.748C8.89679 14.1545 8.08598 14.0145 7.49874 13.3744C6.75619 12.5647 6.78436 11.4552 7.53558 10.6554C8.00075 10.16 8.57138 9.81348 9.10662 9.41684C10.1478 8.64514 11.2057 7.89683 12.2484 7.12768C12.8078 6.71532 13.4149 6.58774 14.0852 6.73689C15.6064 7.07504 17.1215 7.44389 18.6514 7.73671C19.425 7.88476 20.0693 8.26751 20.7356 8.63453C21.3207 8.9566 21.8466 9.35067 22.2655 9.87855C22.4988 10.1725 22.6137 10.5197 22.7166 10.8806C22.8311 11.2801 22.9943 11.6665 23.1522 12.0522C23.578 13.094 24.0139 14.1319 24.4393 15.1737C24.4913 15.3017 24.5592 15.3375 24.6903 15.3364C25.8045 15.3298 26.9191 15.3203 28.0332 15.3324C29.1344 15.3445 29.8842 16.1981 29.9849 17.0809C30.1197 18.2598 29.2933 19.146 28.35 19.3061C28.2557 19.3222 28.1589 19.3295 28.0632 19.3295C26.5362 19.3306 25.0092 19.3295 23.4819 19.3295C22.5797 19.3295 21.9589 18.8864 21.5811 18.0785C21.2813 17.4373 20.9982 16.7884 20.6916 16.1078C20.3152 16.8564 19.9512 17.5806 19.5806 18.3183C19.9024 18.6086 20.2192 18.8948 20.537 19.1796C21.2741 19.8405 22.0401 20.4715 22.7401 21.1704C23.2609 21.6906 23.5299 22.3417 23.375 23.1266C23.0557 24.7446 22.7589 26.3669 22.454 27.9879C22.3283 28.6554 22.2254 29.3284 22.0719 29.9889C22.0112 30.2503 21.8487 30.4898 21.7191 30.7314C21.4096 31.309 20.9729 31.7462 20.3322 31.925C19.3123 32.2097 18.1909 31.6618 17.7174 30.6751C17.4426 30.1023 17.4632 29.5159 17.5816 28.9142C17.8355 27.623 18.0815 26.33 18.331 25.0378C18.3978 24.6923 18.4636 24.3468 18.5372 24.0028C18.5658 23.8687 18.5441 23.7872 18.4148 23.7078C17.461 23.1215 16.5137 22.5252 15.5638 21.9323C15.5335 21.9133 15.501 21.8979 15.4508 21.8712C15.1972 22.2328 14.9444 22.5932 14.692 22.954C14.3034 23.5093 13.9249 24.0719 13.5243 24.6184C12.8262 25.5707 11.8724 26.0072 10.7098 26.0054C9.40458 26.0032 8.09935 26.0072 6.79447 26.0039C6.21915 26.0025 5.64165 26.0186 5.06885 25.9751C4.01354 25.8954 3.17492 25.0293 3.02215 23.9718C2.82388 22.6002 3.95575 21.3159 5.32491 21.3313C6.83384 21.3485 8.34277 21.3335 9.85206 21.3382C9.98569 21.3386 10.0641 21.3042 10.1392 21.1832C10.79 20.1341 11.4426 19.086 12.1126 18.0489C12.2484 17.8383 12.2393 17.6135 12.2859 17.3934C12.425 16.7391 12.7645 16.1812 13.1018 15.6223C13.918 14.2701 14.7371 12.9197 15.5548 11.5682C15.5732 11.5378 15.5873 11.5053 15.614 11.4534L15.6137 11.453ZM20.8653 29.2991C21.0083 28.5439 21.1477 27.8113 21.2857 27.0783C21.5403 25.7261 21.7881 24.3724 22.0524 23.022C22.1232 22.6616 22.099 22.3487 21.8112 22.095C21.753 22.0438 21.6891 21.9992 21.6317 21.9473C20.5453 20.9709 19.4597 19.9933 18.3733 19.0165C18.0898 18.7617 18.0313 18.4719 18.1996 18.1341C19.1209 16.2872 20.0418 14.4404 20.9657 12.5951C21.0238 12.4788 21.1199 12.3819 21.1759 12.2649C21.2405 12.1304 21.273 11.9805 21.3319 11.8427C21.5363 11.3624 21.4493 10.7848 21.0751 10.4276C20.8689 10.2306 20.6309 10.0595 20.3846 9.9162C20.0241 9.70637 19.6442 9.53126 19.2718 9.343C19.1599 9.28633 19.0508 9.21066 18.9316 9.18361C17.2537 8.80452 15.5743 8.43238 13.8953 8.05914C13.6211 7.99809 13.3492 7.9619 13.1029 8.15053C13.027 8.20865 12.9501 8.26568 12.8728 8.32198C11.4448 9.36018 10.0164 10.3976 8.58872 11.4362C8.24092 11.6892 8.16761 12.0734 8.40128 12.4031C8.61689 12.7076 9.02211 12.7431 9.35908 12.4974C10.669 11.543 11.9818 10.5921 13.2921 9.63764C13.5088 9.47972 13.7335 9.44645 13.9884 9.52943C14.9072 9.82847 15.8282 10.1191 16.7477 10.4152C17.2674 10.5826 17.4328 11.0187 17.1489 11.4885C16.2634 12.9548 15.376 14.4199 14.4839 15.8822C14.3507 16.1004 14.1773 16.2935 14.0437 16.5113C13.9408 16.6795 13.8815 16.8743 13.7844 17.0469C13.369 17.7857 13.4871 18.7504 14.0776 19.3547C14.3348 19.6179 14.6454 19.8047 14.9607 19.9879C15.2673 20.1662 15.5627 20.3644 15.8639 20.5526C17.1197 21.3375 18.3762 22.1205 19.6308 22.9069C19.8985 23.0747 20.0028 23.3353 19.9443 23.6402C19.5694 25.5923 19.1949 27.5441 18.8218 29.4965C18.7254 30.0021 19.0382 30.4934 19.5348 30.6272C20.0343 30.7617 20.5514 30.504 20.7085 30.0109C20.8028 29.7151 20.8902 29.4351 21.2059 29.2999H20.8649L20.8653 29.2991ZM12.6857 19.6153C12.6615 19.6508 12.6474 19.6702 12.6348 19.6903C12.0873 20.5611 11.539 21.4315 10.993 22.3033C10.8471 22.5366 10.6509 22.6627 10.3696 22.6612C9.79897 22.6579 9.2287 22.6685 8.65806 22.6696C7.55327 22.6711 6.44812 22.6696 5.34333 22.6704C4.75572 22.6704 4.31691 23.094 4.31872 23.6574C4.32053 24.2364 4.73983 24.6594 5.32925 24.6605C7.169 24.6641 9.00839 24.6656 10.8481 24.6619C11.5622 24.6605 12.1136 24.3373 12.5214 23.751C12.8461 23.2845 13.1718 22.8184 13.4976 22.3523C13.7732 21.9579 14.0498 21.5638 14.3193 21.1792C13.7154 20.7175 13.1097 20.281 12.6857 19.6157V19.6153ZM22.173 13.1386C21.9412 13.6011 21.7202 14.0314 21.5118 14.4675C21.4814 14.5314 21.4865 14.6338 21.5143 14.7014C21.6389 15.0034 21.7794 15.2988 21.9112 15.5974C22.1821 16.2116 22.4497 16.8268 22.7217 17.4406C22.8788 17.7952 23.1135 18.0043 23.5368 18.0003C25.0204 17.9868 26.5041 17.9995 27.9877 17.9992C28.2268 17.9992 28.4374 17.9239 28.5735 17.7056C28.714 17.4808 28.7274 17.2465 28.605 17.0133C28.4775 16.7705 28.2644 16.6638 27.9964 16.6638C26.7226 16.6638 25.4484 16.6645 24.1746 16.663C23.7578 16.6627 23.5798 16.5347 23.4212 16.1502C23.0109 15.1547 22.5971 14.1608 22.173 13.139V13.1386Z" fill="white" stroke="white" stroke-width="0.5"/>
<path d="M23.4161 2.00004C25.3345 2.01027 26.7792 3.63484 26.707 5.46851C26.6376 7.22394 25.1626 8.73299 23.2911 8.66427C21.5062 8.59883 20.0811 7.05652 20.1255 5.251C20.1689 3.46741 21.6623 1.97627 23.4161 2.00004ZM23.364 7.33105C24.4855 7.3603 25.3757 6.47929 25.3959 5.32082C25.4144 4.27786 24.532 3.36103 23.4836 3.33361C22.3802 3.30473 21.4618 4.17587 21.438 5.27439C21.4138 6.39009 22.2683 7.30291 23.3637 7.33142L23.364 7.33105Z" fill="white" stroke="white" stroke-width="0.5"/>
</g>
<defs>
<clipPath id="clip0_2956_3083">
<rect width="27" height="30" fill="white" transform="translate(3 2)"/>
</clipPath>
</defs>
</svg>
