<svg width="19" height="20" viewBox="0 0 19 20" fill="none" xmlns="http://www.w3.org/2000/svg">
<path d="M8.94226 6.82917C8.57615 6.71895 8.22437 6.61112 7.87076 6.50956C7.83711 6.49982 7.7839 6.52061 7.75138 6.54269C7.0137 7.04528 6.27875 7.55111 5.54016 8.05218C5.4724 8.09808 5.38394 8.11692 5.3048 8.14724C5.2666 8.16196 5.22544 8.1704 5.18929 8.18859C4.71311 8.42938 4.20261 8.34645 3.83286 7.96729C3.36533 7.48766 3.38306 6.83047 3.85605 6.35669C4.14894 6.06328 4.50823 5.858 4.84523 5.62306C5.50082 5.16595 6.16687 4.72269 6.82337 4.2671C7.17561 4.02284 7.55786 3.94727 7.97992 4.03562C8.93772 4.23592 9.89165 4.4544 10.8549 4.62785C11.342 4.71555 11.7477 4.94226 12.1672 5.15967C12.5356 5.35044 12.8667 5.58386 13.1305 5.89654C13.2774 6.07064 13.3497 6.27635 13.4145 6.49007C13.4866 6.72675 13.5894 6.95563 13.6887 7.18408C13.9568 7.80121 14.2313 8.41596 14.4992 9.03309C14.5319 9.10888 14.5747 9.1301 14.6572 9.12945C15.3588 9.12555 16.0605 9.11992 16.762 9.12707C17.4554 9.13421 17.9274 9.63983 17.9909 10.1628C18.0757 10.8611 17.5554 11.386 16.9615 11.4808C16.9021 11.4904 16.8412 11.4947 16.7809 11.4947C15.8195 11.4953 14.858 11.4947 13.8964 11.4947C13.3283 11.4947 12.9374 11.2322 12.6996 10.7537C12.5108 10.3739 12.3325 9.98954 12.1395 9.58635C11.9025 10.0298 11.6733 10.4588 11.44 10.8957C11.6426 11.0677 11.842 11.2372 12.0422 11.4059C12.5063 11.7974 12.9886 12.1712 13.4293 12.5852C13.7572 12.8933 13.9266 13.279 13.8291 13.7439C13.628 14.7023 13.4411 15.6633 13.2492 16.6234C13.1701 17.0188 13.1052 17.4174 13.0086 17.8087C12.9704 17.9635 12.8681 18.1054 12.7864 18.2485C12.5915 18.5906 12.3166 18.8496 11.9132 18.9555C11.271 19.1242 10.565 18.7996 10.2669 18.2152C10.0938 17.8758 10.1068 17.5285 10.1814 17.1721C10.3412 16.4073 10.4961 15.6414 10.6532 14.8759C10.6953 14.6713 10.7367 14.4667 10.7831 14.2629C10.801 14.1834 10.7874 14.1351 10.706 14.0882C10.1054 13.7408 9.50894 13.3877 8.91088 13.0364C8.89178 13.0252 8.87132 13.0161 8.83971 13.0003C8.68007 13.2144 8.5209 13.4279 8.36194 13.6417C8.11726 13.9706 7.87895 14.3038 7.62677 14.6276C7.18721 15.1916 6.58665 15.4502 5.85465 15.4491C5.03284 15.4478 4.21102 15.4502 3.38943 15.4482C3.02718 15.4474 2.66357 15.4569 2.30292 15.4311C1.63846 15.3839 1.11045 14.8709 1.01426 14.2445C0.889414 13.4321 1.60208 12.6714 2.46415 12.6805C3.41422 12.6906 4.36429 12.6817 5.31458 12.6846C5.39872 12.6848 5.44806 12.6644 5.49536 12.5928C5.90514 11.9713 6.31604 11.3505 6.73787 10.7362C6.82337 10.6114 6.81768 10.4783 6.84702 10.3479C6.93457 9.96031 7.14832 9.62987 7.36071 9.29878C7.87463 8.49781 8.39037 7.69792 8.9052 6.89738C8.9168 6.87941 8.92566 6.86014 8.94249 6.82939L8.94226 6.82917ZM12.2489 17.4001C12.3389 16.9527 12.4267 16.5188 12.5136 16.0846C12.6739 15.2837 12.8299 14.4818 12.9963 13.6819C13.0409 13.4684 13.0257 13.2831 12.8444 13.1328C12.8078 13.1025 12.7676 13.0761 12.7314 13.0453C12.0474 12.4669 11.3638 11.8879 10.6798 11.3093C10.5013 11.1584 10.4645 10.9867 10.5704 10.7866C11.1505 9.69266 11.7304 8.59872 12.3121 7.50563C12.3487 7.43678 12.4092 7.37939 12.4444 7.3101C12.4851 7.23042 12.5056 7.14163 12.5427 7.06C12.6714 6.77547 12.6166 6.43334 12.381 6.22178C12.2511 6.10507 12.1013 6.00373 11.9462 5.91885C11.7193 5.79455 11.48 5.69083 11.2456 5.57932C11.1751 5.54575 11.1064 5.50093 11.0314 5.48491C9.97488 5.26036 8.91748 5.03992 7.8603 4.81884C7.68771 4.78267 7.51648 4.76124 7.36139 4.87297C7.31364 4.9074 7.2652 4.94118 7.21654 4.97453C6.31741 5.58949 5.41805 6.20403 4.51914 6.81921C4.30016 6.96905 4.254 7.19664 4.40112 7.39195C4.53688 7.57233 4.79202 7.59333 5.00418 7.44782C5.82896 6.88244 6.65555 6.31923 7.48055 5.75385C7.61699 5.6603 7.75843 5.6406 7.91897 5.68975C8.49747 5.86688 9.07734 6.03903 9.65629 6.21442C9.98352 6.3136 10.0877 6.57192 9.90893 6.85018C9.35135 7.71871 8.79264 8.58659 8.23096 9.45274C8.14705 9.58201 8.0379 9.69635 7.95376 9.8254C7.88896 9.92501 7.85166 10.0404 7.79049 10.1426C7.52898 10.5803 7.60334 11.1517 7.97514 11.5096C8.13705 11.6655 8.33261 11.7762 8.53113 11.8847C8.72419 11.9903 8.9102 12.1077 9.09985 12.2192C9.89051 12.6841 10.6816 13.148 11.4716 13.6137C11.6401 13.7131 11.7058 13.8675 11.669 14.0481C11.433 15.2044 11.1971 16.3605 10.9622 17.517C10.9015 17.8165 11.0985 18.1075 11.4111 18.1868C11.7256 18.2665 12.0513 18.1138 12.1502 17.8217C12.2095 17.6465 12.2646 17.4807 12.4633 17.4005H12.2486L12.2489 17.4001ZM7.09875 11.664C7.08351 11.685 7.07464 11.6965 7.06668 11.7084C6.72195 12.2242 6.37676 12.7398 6.03293 13.2562C5.94106 13.3944 5.81759 13.4691 5.64044 13.4682C5.28115 13.4663 4.92209 13.4725 4.5628 13.4732C3.86719 13.4741 3.17135 13.4732 2.47574 13.4736C2.10577 13.4736 1.82948 13.7246 1.83062 14.0583C1.83175 14.4013 2.09576 14.6518 2.46688 14.6525C3.62524 14.6546 4.78338 14.6555 5.94175 14.6533C6.39131 14.6525 6.73855 14.461 6.99528 14.1137C7.19971 13.8374 7.40483 13.5613 7.60994 13.2852C7.78344 13.0516 7.95763 12.8182 8.12727 12.5904C7.74706 12.3169 7.36571 12.0583 7.09875 11.6642V11.664ZM13.0723 7.82763C12.9263 8.10155 12.7871 8.35641 12.6559 8.61474C12.6368 8.65263 12.64 8.71326 12.6575 8.75332C12.7359 8.93218 12.8244 9.10715 12.9074 9.28406C13.078 9.64784 13.2465 10.0123 13.4177 10.3758C13.5166 10.5859 13.6644 10.7097 13.9309 10.7074C14.8651 10.6993 15.7992 10.7069 16.7334 10.7067C16.8839 10.7067 17.0165 10.6621 17.1022 10.5328C17.1907 10.3997 17.1991 10.2609 17.122 10.1227C17.0417 9.97893 16.9076 9.9157 16.7388 9.9157C15.9368 9.9157 15.1345 9.91613 14.3325 9.91527C14.0701 9.91505 13.958 9.83926 13.8582 9.61146C13.5998 9.02183 13.3392 8.43306 13.0723 7.82784V7.82763Z" fill="white" stroke="white" stroke-width="0.3"/>
<path d="M13.9994 1.00017C15.1648 1.00631 16.0423 1.98103 15.9984 3.08122C15.9563 4.13446 15.0603 5.03988 13.9235 4.99864C12.8393 4.95938 11.9736 4.03401 12.0006 2.95071C12.0269 1.88058 12.9341 0.985911 13.9994 1.00017ZM13.9678 4.19873C14.649 4.21628 15.1898 3.68768 15.2021 2.99261C15.2133 2.36684 14.6773 1.81675 14.0404 1.8003C13.3702 1.78297 12.8123 2.30565 12.7979 2.96475C12.7832 3.63416 13.3022 4.18184 13.9676 4.19895L13.9678 4.19873Z" fill="white" stroke="white" stroke-width="0.3"/>
</svg>
