<svg width="25" height="24" viewBox="0 0 25 24" fill="none" xmlns="http://www.w3.org/2000/svg">
<path fill-rule="evenodd" clip-rule="evenodd" d="M12.5 3.75C12.6989 3.75 12.8897 3.82902 13.0303 3.96967C13.171 4.11032 13.25 4.30109 13.25 4.5V11.25H20C20.1989 11.25 20.3897 11.329 20.5303 11.4697C20.671 11.6103 20.75 11.8011 20.75 12C20.75 12.1989 20.671 12.3897 20.5303 12.5303C20.3897 12.671 20.1989 12.75 20 12.75H13.25V19.5C13.25 19.6989 13.171 19.8897 13.0303 20.0303C12.8897 20.171 12.6989 20.25 12.5 20.25C12.3011 20.25 12.1103 20.171 11.9697 20.0303C11.829 19.8897 11.75 19.6989 11.75 19.5V12.75H5C4.80109 12.75 4.61032 12.671 4.46967 12.5303C4.32902 12.3897 4.25 12.1989 4.25 12C4.25 11.8011 4.32902 11.6103 4.46967 11.4697C4.61032 11.329 4.80109 11.25 5 11.25H11.75V4.5C11.75 4.30109 11.829 4.11032 11.9697 3.96967C12.1103 3.82902 12.3011 3.75 12.5 3.75Z" fill="white"/>
</svg>
