<svg width="108" height="110" viewBox="0 0 108 110" fill="none" xmlns="http://www.w3.org/2000/svg">
<g id="graphics" clip-path="url(#clip0_1_3098)">
<path id="Vector" d="M80.2493 109.912C79.3153 109.532 78.8366 108.842 78.7073 107.836C78.5958 106.977 78.417 106.121 78.1942 105.283C77.538 102.821 74.6961 101.703 72.5502 103.071C71.7221 103.6 70.9532 104.217 70.1554 104.795C69.0632 105.586 68.1732 105.534 67.2158 104.59C66.0906 103.483 64.975 102.364 63.8649 101.24C62.8827 100.245 62.8181 99.4275 63.609 98.2459C64.0671 97.5622 64.5513 96.8951 64.9901 96.1976C66.5005 93.8014 65.2927 90.9306 62.5196 90.3487C61.5581 90.1479 60.5786 90.0406 59.6102 89.8728C58.496 89.6802 57.8743 88.9745 57.8619 87.8466C57.844 86.1532 57.8454 84.4585 57.8619 82.7652C57.8729 81.6194 58.4438 80.9371 59.5772 80.6991C60.4053 80.5244 61.2403 80.3896 62.0711 80.2273C64.9956 79.6564 66.2281 76.582 64.5045 74.1459C63.9763 73.399 63.4151 72.6754 62.8882 71.9271C62.2362 71.0014 62.305 70.0591 63.0918 69.2599C64.2968 68.037 65.5101 66.8224 66.7343 65.6188C67.5046 64.8622 68.3754 64.7755 69.2874 65.3684C70.2461 65.9915 71.176 66.6573 72.1348 67.2818C74.6686 68.9311 77.5986 67.6849 78.1735 64.7205C78.373 63.6888 78.5587 62.653 78.7554 61.62C78.9961 60.3558 79.6894 59.7781 80.9948 59.7698C82.5974 59.7616 84.1999 59.7602 85.8024 59.7698C87.0748 59.7781 87.7599 60.3613 87.9676 61.598C88.1079 62.4316 88.2372 63.2679 88.3624 64.1043C88.8163 67.1401 91.8316 68.5033 94.4039 66.8279C95.1123 66.3657 95.8001 65.8719 96.5085 65.4097C97.4962 64.7659 98.3435 64.8457 99.1688 65.6545C100.297 66.7591 101.423 67.8651 102.539 68.9834C103.661 70.1086 103.719 70.9133 102.795 72.183C102.323 72.8309 101.84 73.4691 101.377 74.1211C99.6448 76.56 100.846 79.6138 103.774 80.2163C104.468 80.3593 105.161 80.5327 105.862 80.6097C106.891 80.7211 107.612 81.1998 108.007 82.16V88.4793C107.547 89.4739 106.734 89.892 105.675 89.9883C104.88 90.0612 104.086 90.1905 103.305 90.3556C100.588 90.9278 99.3752 93.8275 100.866 96.1701C101.357 96.9418 101.897 97.6819 102.395 98.4494C103.009 99.3958 102.948 100.258 102.162 101.066C100.967 102.297 99.7535 103.513 98.5209 104.707C97.6915 105.51 96.8015 105.55 95.8523 104.888C95.2333 104.457 94.6487 103.972 94.0063 103.579C91.7683 102.205 88.936 103.401 88.3445 105.96C88.2166 106.516 88.1189 107.083 88.0694 107.649C87.98 108.688 87.5357 109.465 86.5728 109.912H80.2534H80.2493ZM66.9283 70.9477C69.0054 73.4045 69.7991 76.1515 68.6106 79.2355C67.4111 82.3498 64.9117 83.7941 61.752 84.2123V86.3142C64.9406 86.592 67.4799 87.9277 68.8197 90.9567C70.1705 94.0119 69.4731 96.8084 67.5487 99.2927C68.0659 99.825 68.5391 100.311 69.0466 100.832C71.4718 98.7741 74.216 97.9694 77.3042 99.1551C80.4253 100.353 81.8862 102.842 82.292 106.038H84.3746C84.8272 103.096 86.3059 100.899 89.0818 99.7494C91.8742 98.5925 94.496 99.0767 96.8909 100.844C97.3957 100.345 97.8662 99.88 98.3834 99.3697C96.3792 96.8194 95.701 94.016 97.0381 90.9677C98.3765 87.914 100.945 86.5824 104.12 86.3128V84.1903C100.912 83.7914 98.4535 82.3264 97.2554 79.2328C96.0518 76.124 96.8785 73.3605 98.8937 70.9876C98.3779 70.4277 97.9198 69.9325 97.437 69.4098C94.8826 71.4085 92.1026 72.0702 89.0722 70.7427C86.0184 69.4043 84.6827 66.8416 84.398 63.6572H82.3167C82.2218 64.1318 82.1049 64.594 82.0389 65.063C81.1654 71.1719 74.4389 73.8309 69.6698 70.2751C69.2695 69.9766 68.8417 69.7124 68.4579 69.4525C67.9448 69.9545 67.4744 70.4154 66.9324 70.9463L66.9283 70.9477Z" fill="#53545D"/>
<path id="Vector_2" d="M0.0178382 51.8919C0.0178382 42.4363 -0.0303067 32.9806 0.0315939 23.525C0.0879922 15.1161 3.73462 8.55602 10.6606 3.85846C14.6099 1.17885 19.0557 -1.14663e-05 23.8262 -1.14663e-05C39.8749 0.00686638 55.9251 0.00273967 71.9738 0.00273967C74.8364 0.00273967 77.6976 -0.00688931 80.5601 0.00411524C91.9031 0.0467579 101.412 7.82835 103.642 18.9526C103.954 20.5138 104.121 22.1301 104.125 23.723C104.162 36.9106 104.147 50.0982 104.146 63.2858C104.146 64.7205 103.389 65.572 102.157 65.5513C101.174 65.5348 100.414 64.8457 100.313 63.8649C100.283 63.5705 100.294 63.2706 100.294 62.9721C100.294 49.9675 100.306 36.9629 100.287 23.9583C100.279 18.5894 98.5663 13.8396 94.8179 9.93434C91.1699 6.13365 86.6718 4.12944 81.4047 3.86534C81.0622 3.84883 80.7183 3.84883 80.3744 3.84883C61.5085 3.84883 42.644 3.84333 23.778 3.84883C15.3637 3.85158 8.14882 8.7376 5.15146 16.4669C4.30136 18.6596 3.8653 20.9403 3.8653 23.3049C3.87218 42.3304 3.85292 61.3572 3.87906 80.3827C3.88869 87.2151 6.6976 92.6954 12.2274 96.6997C15.5205 99.0835 19.2703 100.256 23.3489 100.264C30.2405 100.279 37.132 100.272 44.0236 100.261C44.6935 100.261 45.2974 100.364 45.7706 100.879C46.7418 101.935 46.2782 103.619 44.8944 104.011C44.5711 104.103 44.219 104.131 43.8806 104.131C37.1499 104.137 30.4179 104.144 23.6872 104.133C12.8381 104.115 3.71262 97.1564 0.818419 86.7021C0.235178 84.5933 0.015087 82.4378 0.0164626 80.2534C0.0219649 70.7977 0.0192137 61.3421 0.0192137 51.8864L0.0178382 51.8919Z" fill="#53545D"/>
<path id="Vector_3" d="M69.4318 27.001C63.7796 27.001 58.1274 26.9969 52.4752 27.0052C51.599 27.0052 50.841 26.8332 50.3912 25.9817C49.7626 24.7933 50.4903 23.3599 51.8259 23.1907C52.0969 23.1563 52.3734 23.1536 52.6472 23.1536C63.8374 23.1522 75.0277 23.1481 86.2179 23.1646C86.7475 23.1646 87.3266 23.2526 87.7929 23.4823C88.5536 23.8579 88.8397 24.7066 88.643 25.5347C88.4546 26.3311 87.8397 26.8759 87.0047 26.9653C86.7104 26.9969 86.4105 26.9983 86.1134 26.9983C80.5519 26.9997 74.9919 26.9983 69.4305 26.9983L69.4318 27.001Z" fill="#53545D"/>
<path id="Vector_4" d="M69.3933 50.1491C75.1143 50.1491 80.8367 50.1464 86.5576 50.1505C88.0047 50.1505 88.9154 51.1657 88.654 52.4601C88.4862 53.2937 87.8534 53.8838 87.0116 53.9787C86.808 54.0021 86.6003 53.9952 86.394 53.9952C75.0882 53.9952 63.7824 53.9952 52.4766 53.9993C51.8177 53.9993 51.189 53.9471 50.7131 53.423C50.1766 52.8329 49.9909 52.1506 50.2894 51.394C50.5948 50.6196 51.1863 50.178 52.0212 50.1588C53.3019 50.1299 54.5839 50.1477 55.866 50.1477C60.3751 50.1477 64.8828 50.1477 69.3919 50.1477L69.3933 50.1491Z" fill="#53545D"/>
<path id="Vector_5" d="M24.9487 55.2167C27.521 52.2179 30.0672 49.2508 32.612 46.2823C34.0261 44.633 35.4374 42.9796 36.8557 41.3331C37.6851 40.3702 38.8021 40.2312 39.7003 40.9644C40.5546 41.6618 40.6055 42.8641 39.776 43.8407C37.8516 46.1076 35.9079 48.3581 33.9738 50.6154C31.6367 53.3418 29.2969 56.0654 26.9639 58.7959C25.9419 59.9913 25.0299 60.1027 23.7602 59.1549C20.9747 57.0764 18.1947 54.9911 15.4105 52.9126C14.7792 52.4408 14.4091 51.841 14.5013 51.0363C14.5907 50.2646 15.0391 49.7405 15.7558 49.4558C16.5234 49.1518 17.1809 49.4104 17.7985 49.874C19.9926 51.5219 22.188 53.1684 24.3834 54.8136C24.5622 54.9484 24.7493 55.0736 24.9501 55.2167H24.9487Z" fill="#53545D"/>
<path id="Vector_6" d="M24.9445 84.1394C27.4233 81.2493 29.8498 78.4198 32.2777 75.5902C33.8417 73.7662 35.4044 71.9408 36.9753 70.1237C37.5186 69.4951 38.2105 69.2557 39.0138 69.5185C39.7773 69.7674 40.2188 70.3259 40.344 71.1155C40.4568 71.8349 40.1102 72.3893 39.6617 72.9092C37.3783 75.5627 35.1004 78.2217 32.821 80.8793C30.854 83.1724 28.8924 85.4682 26.9198 87.7558C25.9349 88.8975 25.0037 89.0034 23.8152 88.1162C21.0104 86.0239 18.2001 83.9372 15.4118 81.8229C14.0679 80.8036 14.1958 79.0952 15.6347 78.4321C16.4009 78.08 17.1024 78.2726 17.7517 78.7609C19.8907 80.369 22.0325 81.9742 24.1742 83.5809C24.4094 83.7583 24.6515 83.9275 24.9445 84.1408V84.1394Z" fill="#53545D"/>
<path id="Vector_7" d="M24.9376 28.2308C26.8524 25.9996 28.7287 23.8124 30.605 21.6267C32.6904 19.1947 34.7702 16.7585 36.8638 14.3348C37.619 13.4613 38.5283 13.2673 39.3605 13.7515C40.4651 14.3953 40.703 15.7172 39.8502 16.7503C38.7291 18.1093 37.5667 19.434 36.4195 20.7711C33.2763 24.4356 30.1359 28.1028 26.9872 31.7632C25.8964 33.0315 25.0271 33.1099 23.6749 32.0975C20.965 30.0699 18.2565 28.0382 15.5411 26.0175C14.8781 25.5236 14.4022 24.9363 14.4943 24.0669C14.6594 22.5304 16.3624 21.8371 17.6664 22.7945C19.6761 24.2691 21.661 25.7795 23.6556 27.2747C24.0573 27.576 24.4603 27.8745 24.9376 28.2308Z" fill="#53545D"/>
<path id="Vector_8" d="M73.2834 84.8492C73.1747 79.7004 77.5229 75.2752 82.783 75.1817C88.0955 75.0868 92.4258 79.3318 92.5743 84.7818C92.7146 89.9347 88.2578 94.4369 82.9577 94.496C77.7072 94.5552 73.3962 90.2565 73.2834 84.8492ZM82.922 79.0773C79.765 79.0842 77.1253 81.6702 77.1418 84.7405C77.1597 88.0254 79.7293 90.6527 82.9234 90.6499C86.0473 90.6472 88.7282 87.9758 88.7172 84.8794C88.7049 81.6592 86.1174 79.069 82.922 79.0759V79.0773Z" fill="#53545D"/>
</g>
<defs>
<clipPath id="clip0_1_3098">
<rect width="108" height="109.912" fill="white"/>
</clipPath>
</defs>
</svg>
