<svg width="18" height="22" viewBox="0 0 18 22" fill="none" xmlns="http://www.w3.org/2000/svg">
<path d="M17.7797 21.9756H15.5846V19.9547C15.5846 19.1507 15.2377 18.3797 14.6202 17.8112C14.0027 17.2427 13.1652 16.9233 12.2919 16.9233H5.70655C4.83328 16.9233 3.99577 17.2427 3.37828 17.8112C2.76078 18.3797 2.41387 19.1507 2.41387 19.9547V21.9756H0.21875V19.9547C0.21875 18.6148 0.796928 17.3297 1.82609 16.3822C2.85525 15.4347 4.2511 14.9024 5.70655 14.9024H12.2919C13.7474 14.9024 15.1432 15.4347 16.1724 16.3822C17.2015 17.3297 17.7797 18.6148 17.7797 19.9547V21.9756ZM8.99924 12.8815C8.13444 12.8815 7.2781 12.7247 6.47913 12.42C5.68015 12.1154 4.95419 11.6688 4.34268 11.1058C3.73117 10.5428 3.2461 9.87449 2.91515 9.13892C2.58421 8.40336 2.41387 7.61499 2.41387 6.81882C2.41387 6.02265 2.58421 5.23428 2.91515 4.49872C3.2461 3.76316 3.73117 3.09481 4.34268 2.53183C4.95419 1.96886 5.68015 1.52228 6.47913 1.2176C7.2781 0.91292 8.13444 0.756104 8.99924 0.756104C10.7458 0.756104 12.4208 1.39485 13.6558 2.53183C14.8908 3.66881 15.5846 5.21089 15.5846 6.81882C15.5846 8.42675 14.8908 9.96883 13.6558 11.1058C12.4208 12.2428 10.7458 12.8815 8.99924 12.8815ZM8.99924 10.8606C10.1636 10.8606 11.2803 10.4348 12.1036 9.67681C12.9269 8.91883 13.3895 7.89078 13.3895 6.81882C13.3895 5.74687 12.9269 4.71882 12.1036 3.96083C11.2803 3.20284 10.1636 2.77701 8.99924 2.77701C7.83487 2.77701 6.7182 3.20284 5.89487 3.96083C5.07154 4.71882 4.60899 5.74687 4.60899 6.81882C4.60899 7.89078 5.07154 8.91883 5.89487 9.67681C6.7182 10.4348 7.83487 10.8606 8.99924 10.8606Z" fill="#54B676"/>
</svg>
