<svg width="15" height="19" viewBox="0 0 15 19" fill="none" xmlns="http://www.w3.org/2000/svg">
<path d="M15 19H13.125V17.1905C13.125 16.4706 12.8287 15.7802 12.3012 15.2712C11.7738 14.7622 11.0584 14.4762 10.3125 14.4762H4.6875C3.94158 14.4762 3.22621 14.7622 2.69876 15.2712C2.17132 15.7802 1.875 16.4706 1.875 17.1905V19H0V17.1905C0 15.9907 0.49386 14.84 1.37294 13.9917C2.25201 13.1433 3.4443 12.6667 4.6875 12.6667H10.3125C11.5557 12.6667 12.748 13.1433 13.6271 13.9917C14.5061 14.84 15 15.9907 15 17.1905V19ZM7.5 10.8571C6.76131 10.8571 6.02986 10.7167 5.34741 10.4439C4.66495 10.1711 4.04485 9.77124 3.52252 9.26715C3.00019 8.76306 2.58586 8.16462 2.30318 7.506C2.02049 6.84737 1.875 6.14146 1.875 5.42857C1.875 4.71568 2.02049 4.00977 2.30318 3.35115C2.58586 2.69252 3.00019 2.09408 3.52252 1.58999C4.04485 1.0859 4.66495 0.686037 5.34741 0.413225C6.02986 0.140414 6.76131 -1.06229e-08 7.5 0C8.99184 2.14539e-08 10.4226 0.571937 11.4775 1.58999C12.5324 2.60805 13.125 3.98882 13.125 5.42857C13.125 6.86832 12.5324 8.2491 11.4775 9.26715C10.4226 10.2852 8.99184 10.8571 7.5 10.8571ZM7.5 9.04762C8.49456 9.04762 9.44839 8.66633 10.1517 7.98762C10.8549 7.30892 11.25 6.3884 11.25 5.42857C11.25 4.46874 10.8549 3.54822 10.1517 2.86952C9.44839 2.19082 8.49456 1.80952 7.5 1.80952C6.50544 1.80952 5.55161 2.19082 4.84835 2.86952C4.14509 3.54822 3.75 4.46874 3.75 5.42857C3.75 6.3884 4.14509 7.30892 4.84835 7.98762C5.55161 8.66633 6.50544 9.04762 7.5 9.04762Z" fill="#54B676"/>
</svg>
