<svg width="16" height="16" viewBox="0 0 16 16" fill="none" xmlns="http://www.w3.org/2000/svg">
<rect x="0.25" y="0.25" width="15.5" height="15.5" rx="7.75002" stroke="#9E9E9E" stroke-width="0.5"/>
<path d="M7.53525 9.54533C7.53525 9.2106 7.57702 8.92422 7.66057 8.68619C7.74413 8.44072 7.8416 8.23989 7.953 8.08368C8.07137 7.92004 8.22802 7.7378 8.42298 7.53696C8.67363 7.28405 8.85814 7.05346 8.9765 6.84519C9.10183 6.63691 9.16449 6.36541 9.16449 6.03068C9.16449 5.64389 9.06005 5.33147 8.85118 5.09344C8.64926 4.84798 8.35683 4.72524 7.97389 4.72524C7.57006 4.72524 7.25675 4.86285 7.03394 5.13808C6.81114 5.4133 6.69626 5.79637 6.6893 6.28731H6V6.03068C6.04178 5.35379 6.24369 4.84798 6.60574 4.51325C6.97476 4.17108 7.43777 4 7.99478 4C8.57963 4 9.06005 4.1748 9.43603 4.52441C9.81201 4.86657 10 5.33519 10 5.93026C10 6.24268 9.95474 6.52162 9.86423 6.76708C9.78068 7.00511 9.67276 7.20595 9.54047 7.3696C9.41514 7.53324 9.24804 7.72664 9.03916 7.94979C8.76762 8.23245 8.56223 8.48907 8.42298 8.71967C8.28373 8.94282 8.2141 9.21804 8.2141 9.54533H7.53525ZM7.30548 11.4086C7.30548 11.2301 7.35422 11.0851 7.4517 10.9735C7.55614 10.8545 7.69887 10.795 7.8799 10.795C8.06092 10.795 8.20366 10.8545 8.30809 10.9735C8.41253 11.0851 8.46475 11.2301 8.46475 11.4086C8.46475 11.5723 8.41253 11.7136 8.30809 11.8326C8.20366 11.9442 8.06092 12 7.8799 12C7.70583 12 7.56658 11.9442 7.46214 11.8326C7.3577 11.7211 7.30548 11.5797 7.30548 11.4086Z" fill="#9E9E9E"/>
</svg>
