<svg width="56" height="56" viewBox="0 0 56 56" fill="none" xmlns="http://www.w3.org/2000/svg">
<path d="M1.6001 23.6H19.2001C20.3671 23.6 21.4862 23.1364 22.3114 22.3112C23.1365 21.4861 23.6001 20.3669 23.6001 19.2V5.99998C23.6001 4.83302 23.1365 3.71387 22.3114 2.88871C21.4862 2.06355 20.3671 1.59998 19.2001 1.59998H6.0001C4.83315 1.59998 3.71399 2.06355 2.88883 2.88871C2.06367 3.71387 1.6001 4.83302 1.6001 5.99998V23.6ZM1.6001 23.6V39C1.6001 43.0843 3.22259 47.0014 6.11065 49.8894C8.99871 52.7775 12.9158 54.4 17.0001 54.4M32.4001 23.6H50.0001C51.1671 23.6 52.2862 23.1364 53.1114 22.3112C53.9365 21.4861 54.4001 20.3669 54.4001 19.2V5.99998C54.4001 4.83302 53.9365 3.71387 53.1114 2.88871C52.2862 2.06355 51.1671 1.59998 50.0001 1.59998H36.8001C35.6331 1.59998 34.514 2.06355 33.6888 2.88871C32.8637 3.71387 32.4001 4.83302 32.4001 5.99998V23.6ZM32.4001 23.6V39C32.4001 43.0843 34.0226 47.0014 36.9107 49.8894C39.7987 52.7775 43.7158 54.4 47.8001 54.4" stroke="#5CC280" stroke-width="2"/>
</svg>

