<svg width="33" height="33" viewBox="0 0 33 33" fill="none" xmlns="http://www.w3.org/2000/svg">
<path d="M1.69995 14.0333H11.5666C12.2208 14.0333 12.8482 13.7734 13.3108 13.3109C13.7734 12.8483 14.0333 12.2209 14.0333 11.5667V4.16666C14.0333 3.51246 13.7734 2.88506 13.3108 2.42247C12.8482 1.95988 12.2208 1.7 11.5666 1.7H4.16662C3.51242 1.7 2.88501 1.95988 2.42242 2.42247C1.95983 2.88506 1.69995 3.51246 1.69995 4.16666V14.0333ZM1.69995 14.0333V22.6667C1.69995 24.9564 2.60953 27.1523 4.2286 28.7714C5.84766 30.3904 8.04358 31.3 10.3333 31.3M18.9666 14.0333H28.8333C29.4875 14.0333 30.1149 13.7734 30.5775 13.3109C31.0401 12.8483 31.3 12.2209 31.3 11.5667V4.16666C31.3 3.51246 31.0401 2.88506 30.5775 2.42247C30.1149 1.95988 29.4875 1.7 28.8333 1.7H21.4333C20.7791 1.7 20.1517 1.95988 19.6891 2.42247C19.2265 2.88506 18.9666 3.51246 18.9666 4.16666V14.0333ZM18.9666 14.0333V22.6667C18.9666 24.9564 19.8762 27.1523 21.4953 28.7714C23.1143 30.3904 25.3102 31.3 27.6 31.3" stroke="#5CC280" stroke-width="2"/>
</svg>
