<svg width="66" height="66" viewBox="0 0 66 66" fill="none" xmlns="http://www.w3.org/2000/svg">
<path d="M6.6001 28.6001H24.2001C25.3671 28.6001 26.4862 28.1365 27.3114 27.3114C28.1365 26.4862 28.6001 25.3671 28.6001 24.2001V11.0001C28.6001 9.83315 28.1365 8.71399 27.3114 7.88883C26.4862 7.06367 25.3671 6.6001 24.2001 6.6001H11.0001C9.83315 6.6001 8.71399 7.06367 7.88883 7.88883C7.06367 8.71399 6.6001 9.83315 6.6001 11.0001V28.6001ZM6.6001 28.6001V44.0001C6.6001 48.0844 8.22259 52.0015 11.1107 54.8895C13.9987 57.7776 17.9158 59.4001 22.0001 59.4001M37.4001 28.6001H55.0001C56.1671 28.6001 57.2862 28.1365 58.1114 27.3114C58.9365 26.4862 59.4001 25.3671 59.4001 24.2001V11.0001C59.4001 9.83315 58.9365 8.71399 58.1114 7.88883C57.2862 7.06367 56.1671 6.6001 55.0001 6.6001H41.8001C40.6331 6.6001 39.514 7.06367 38.6888 7.88883C37.8637 8.71399 37.4001 9.83315 37.4001 11.0001V28.6001ZM37.4001 28.6001V44.0001C37.4001 48.0844 39.0226 52.0015 41.9107 54.8895C44.7987 57.7776 48.7158 59.4001 52.8001 59.4001" stroke="#5CC280" stroke-width="2"/>
</svg>
