<svg width="90" height="90" viewBox="0 0 90 90" fill="none" xmlns="http://www.w3.org/2000/svg">
<g clip-path="url(#clip0_1791_1830)">
<path d="M2.02439 44.5613C2.02439 31.6399 2.06366 18.7204 2.00008 5.79898C1.98324 2.22089 4.77535 0.00552255 7.8274 0.00552255C18.36 0.0111692 28.8907 0.00740476 39.4232 0.00552255C43.5674 0.00552255 47.7116 0.0186981 51.8558 -0.00200631C53.0789 -0.00765296 54.0962 0.432785 54.9546 1.26096C59.6748 5.81592 64.3782 10.3878 69.1059 14.9353C70.0802 15.8726 70.4449 17.0189 70.4449 18.3101C70.4505 31.7943 70.4449 45.2803 70.4449 58.7645C70.4449 66.6171 70.4299 74.4697 70.4617 82.3223C70.4711 84.5942 70.0971 86.6778 68.3223 88.2776C67.1516 89.3336 65.8201 89.9735 64.2136 89.9735C45.5797 89.9698 26.9476 89.9453 8.31363 89.9942C4.87072 90.0036 2.01317 87.0034 2.01878 83.6003C2.04122 70.5848 2.02813 57.5712 2.02813 44.5557L2.02439 44.5613ZM51.1003 3.56103C50.6907 3.56103 50.4121 3.56103 50.1353 3.56103C36.2365 3.56103 22.3396 3.56103 8.4408 3.56103C8.16028 3.56103 7.87976 3.56479 7.59924 3.58173C6.27332 3.66078 5.56267 4.40802 5.56267 5.7444C5.56267 31.6493 5.56454 57.5542 5.57015 83.4592C5.57015 85.3734 6.60246 86.4161 8.47633 86.4161C26.8934 86.418 45.3085 86.4199 63.7255 86.4161C65.7677 86.4161 66.916 85.2322 66.916 83.1486C66.916 62.1036 66.916 41.0604 66.916 20.0154V18.9933C63.7742 18.9933 60.7838 18.9971 57.7916 18.9914C56.4021 18.9877 55.093 18.6639 53.9242 17.8828C51.9793 16.586 51.0835 14.7376 51.0928 12.4037C51.1059 9.49189 51.0966 6.5801 51.0966 3.55726L51.1003 3.56103ZM63.6676 15.4416C60.8025 12.4018 57.7467 9.15685 54.5769 5.79333C54.5769 8.24398 54.5395 10.497 54.59 12.75C54.6236 14.2464 55.8804 15.4152 57.4101 15.434C59.6524 15.4623 61.8947 15.4416 63.6694 15.4416H63.6676Z" fill="white"/>
<path d="M83.936 21.1222H82.625C82.625 21.5231 82.625 21.8902 82.625 22.2572C82.625 35.9936 82.625 49.7319 82.6213 63.4683C82.6213 63.8711 82.6531 64.3134 82.5091 64.671C81.6189 66.8883 80.7381 69.1149 79.7151 71.2701C79.4907 71.7444 78.7352 72.1434 78.1704 72.2319C77.4653 72.3448 76.9118 71.8235 76.6406 71.1139C75.9188 69.2298 75.1726 67.3551 74.4937 65.4578C74.3198 64.9722 74.3048 64.4113 74.3048 63.8843C74.2917 49.2388 74.288 34.5914 74.2861 19.9458C74.2861 18.1408 74.7724 17.6684 76.5396 17.6702C79.4028 17.674 82.2678 17.6589 85.131 17.6702C86.7655 17.6759 87.407 18.282 87.4144 19.9101C87.4331 24.6024 87.4219 29.2967 87.4088 33.989C87.4051 35.0864 86.9544 35.7546 86.1652 35.9522C84.9159 36.2646 83.9397 35.4986 83.9379 34.1904C83.9341 30.2077 83.9379 26.2249 83.9379 22.2403C83.9379 21.8996 83.9379 21.5589 83.9379 21.1203L83.936 21.1222ZM78.2583 65.6592C78.4023 65.6592 78.5463 65.6592 78.6903 65.6592C78.8455 64.9138 79.1316 64.1704 79.1335 63.425C79.1653 55.4312 79.1503 47.4356 79.1466 39.4418C79.1466 39.2348 79.1055 39.0259 79.0849 38.8301H77.8525C77.8525 39.2536 77.8525 39.6244 77.8525 39.9971C77.8525 47.5843 77.8356 55.1715 77.8674 62.7587C77.8712 63.7262 78.1218 64.6917 78.2583 65.6573V65.6592ZM79.0961 35.2257V21.2013H77.9161V35.2257H79.0961Z" fill="white"/>
<path d="M36.0852 44.5953C28.6403 44.5953 21.1971 44.5972 13.7522 44.5953C12.2916 44.5953 11.5305 43.9629 11.5342 42.7884C11.5379 41.7061 12.1719 41.053 13.2678 41.0473C15.2614 41.036 17.2549 41.0436 19.2485 41.0436C32.3917 41.0436 45.5369 41.0436 58.6801 41.0436C59.776 41.0436 60.4025 41.4934 60.6082 42.4138C60.7859 43.2006 60.4193 44.0796 59.6863 44.3638C59.2374 44.537 58.7175 44.5878 58.2294 44.5878C50.848 44.601 43.4666 44.5972 36.0834 44.5972L36.0852 44.5953Z" fill="white"/>
<path d="M36.1152 59.1091C43.5938 59.1091 51.0743 59.1336 58.553 59.0865C59.9556 59.0771 60.627 59.9128 60.6569 60.8087C60.6943 61.9192 59.8602 62.6684 58.5661 62.6684C43.562 62.674 28.5599 62.6759 13.5558 62.674C12.2729 62.674 11.5211 61.9851 11.5324 60.8614C11.5436 59.7208 12.2523 59.1091 13.5839 59.1072C21.0943 59.1053 28.6048 59.1072 36.1152 59.1072V59.1091Z" fill="white"/>
<path d="M36.0718 50.7163C28.6287 50.7163 21.1856 50.7163 13.7406 50.7144C12.2576 50.7144 11.618 50.2439 11.547 49.139C11.4684 47.9099 12.0575 47.2568 13.2825 47.2549C16.1793 47.2474 19.0761 47.253 21.9711 47.253C34.241 47.253 46.5128 47.2568 58.7827 47.2417C59.628 47.2417 60.2582 47.5034 60.5331 48.3165C60.808 49.1296 60.6659 49.9352 59.9104 50.3813C59.4634 50.6448 58.8463 50.7012 58.3058 50.7031C52.918 50.7257 47.5301 50.7163 42.1423 50.7163C40.1188 50.7163 38.0934 50.7163 36.07 50.7163H36.0718Z" fill="white"/>
<path d="M36.154 56.8485C28.6118 56.8485 21.0695 56.8485 13.5254 56.8485C12.1995 56.8485 11.5543 56.3065 11.5356 55.1828C11.5151 53.997 12.1621 53.3853 13.5124 53.3834C28.5351 53.3796 43.5578 53.3815 58.5806 53.389C60.0991 53.389 60.879 54.2774 60.5741 55.595C60.3684 56.4796 59.8541 56.8467 58.7807 56.8467C51.2385 56.8485 43.6962 56.8467 36.1521 56.8467L36.154 56.8485Z" fill="white"/>
<path d="M28.4864 29.5564C23.5306 29.5564 18.5747 29.5564 13.6189 29.5564C12.2948 29.5564 11.5561 28.9428 11.5337 27.8342C11.5112 26.6691 12.2649 25.984 13.6151 25.984C23.5586 25.9802 33.5002 25.9802 43.4437 25.984C44.663 25.984 45.5438 26.7256 45.5719 27.7401C45.6018 28.8525 44.7846 29.5564 43.4474 29.5564C38.4598 29.5564 33.474 29.5564 28.4864 29.5564Z" fill="white"/>
<path d="M21.4479 14.1223C18.7979 14.1223 16.1498 14.126 13.4998 14.1223C12.273 14.1204 11.5474 13.4672 11.5325 12.3774C11.5175 11.2839 12.2375 10.5592 13.4419 10.5555C18.8035 10.5423 24.1633 10.5404 29.525 10.5555C30.7181 10.5592 31.4063 11.2876 31.3857 12.4151C31.367 13.4578 30.647 14.1166 29.4913 14.1204C26.8114 14.126 24.1296 14.1223 21.4497 14.1223H21.4479Z" fill="white"/>
<path d="M21.4808 19.8197C18.8102 19.8197 16.1415 19.8254 13.471 19.8178C12.1862 19.8141 11.513 19.2099 11.5186 18.0937C11.5242 16.9399 12.1395 16.3602 13.443 16.3583C18.8009 16.347 24.1569 16.347 29.5148 16.3564C30.7734 16.3583 31.3981 16.987 31.385 18.154C31.3719 19.2438 30.7529 19.8084 29.4905 19.8141C26.82 19.8273 24.1513 19.8178 21.4808 19.8178V19.8216V19.8197Z" fill="white"/>
<path d="M21.4385 37.9304C18.7923 37.9304 16.1461 37.9398 13.5017 37.9267C12.3104 37.9191 11.6896 37.5163 11.5549 36.739C11.3529 35.5701 12.0243 34.8379 13.354 34.8342C16.6566 34.8229 19.9611 34.8304 23.2638 34.8304C25.3826 34.8304 27.5015 34.8191 29.6222 34.8361C30.8471 34.8455 31.4793 35.5024 31.3857 36.6091C31.3147 37.4486 30.7424 37.9059 29.5624 37.9248C27.5707 37.9587 25.579 37.9361 23.5873 37.9361C22.8711 37.9361 22.1567 37.9361 21.4404 37.9361C21.4404 37.9361 21.4404 37.9342 21.4404 37.9323L21.4385 37.9304Z" fill="white"/>
</g>
<defs>
<clipPath id="clip0_1791_1830">
<rect width="85.4237" height="90" fill="white" transform="translate(2)"/>
</clipPath>
</defs>
</svg>
