<svg width="17" height="20" viewBox="0 0 17 20" fill="none" xmlns="http://www.w3.org/2000/svg">
<g clip-path="url(#clip0_972_6398)">
<path d="M8.17605 19.9972C6.3585 19.9972 4.54119 20.0053 2.72364 19.9946C1.42383 19.987 0.343546 19.1148 0.0567017 17.8254C0.0109488 17.6199 0.00312579 17.4028 0.00265167 17.1909C-0.000904251 14.7932 4.39946e-05 12.3953 0.00099224 9.99767C0.00099224 9.55373 0.353028 9.14417 0.767649 9.09795C1.26216 9.04272 1.68982 9.32833 1.79389 9.78838C1.8138 9.87608 1.82233 9.96804 1.82233 10.0579C1.82376 12.4439 1.83039 14.8297 1.8183 17.2158C1.81546 17.7583 2.25805 18.1819 2.78717 18.1805C6.37462 18.1712 9.96207 18.1743 13.5493 18.1776C13.9393 18.1781 14.2465 18.0385 14.4283 17.6927C14.4982 17.5597 14.5321 17.3926 14.5326 17.2409C14.5388 14.8392 14.5369 12.4375 14.5371 10.0356C14.5371 9.57009 14.8119 9.22072 15.2611 9.11051C15.7039 9.00196 16.192 9.28709 16.3127 9.73055C16.3393 9.82796 16.3578 9.93106 16.358 10.0313C16.3601 12.4605 16.3732 14.8899 16.3521 17.3191C16.3431 18.3516 15.8457 19.1326 14.9491 19.6514C14.5191 19.9003 14.05 19.997 13.5576 19.997C11.7637 19.997 9.97013 19.997 8.17629 19.997L8.17605 19.9972Z" fill="#FFAC44"/>
<path d="M9.08542 3.10938C9.08542 3.44049 9.08542 3.74648 9.08542 4.05271C9.08542 4.89768 9.08495 5.74264 9.08542 6.58785C9.0859 7.41717 9.08779 8.24626 9.08779 9.07558C9.08779 9.9049 9.08613 10.734 9.08542 11.5633C9.08495 11.97 9.08992 12.3768 9.08376 12.7835C9.07689 13.2269 8.66298 13.6493 8.15709 13.6313C7.67799 13.6142 7.27972 13.2378 7.27664 12.7617C7.27119 11.8693 7.27522 10.9769 7.27475 10.0846C7.27427 9.25524 7.27214 8.42615 7.27214 7.59683C7.27214 6.77153 7.27451 5.94624 7.27451 5.12095C7.27451 4.47341 7.27261 3.82565 7.27143 3.17811C7.27143 3.16413 7.26906 3.14991 7.26597 3.11744C7.22496 3.15607 7.19675 3.1812 7.16997 3.20774C6.5107 3.86665 5.85333 4.52769 5.19145 5.18376C4.9167 5.45609 4.58481 5.52553 4.22282 5.39612C3.87126 5.27027 3.63751 4.93299 3.63372 4.55969C3.63111 4.30466 3.72428 4.08091 3.90516 3.89983C4.88872 2.91503 5.87395 1.93164 6.85847 0.947544C7.07324 0.732806 7.28802 0.518068 7.50138 0.302146C7.89893 -0.100073 8.45721 -0.0998358 8.85618 0.299538C10.0405 1.48557 11.2258 2.6709 12.4116 3.85527C12.8116 4.25488 12.8319 4.81614 12.4564 5.19395C12.1039 5.54829 11.5253 5.54189 11.1616 5.17878C10.5026 4.52034 9.84378 3.86144 9.18499 3.20276C9.15867 3.17646 9.1307 3.15204 9.08542 3.10985V3.10938Z" fill="#FFAC44"/>
</g>
<defs>
<clipPath id="clip0_972_6398">
<rect width="16.3636" height="20" fill="white"/>
</clipPath>
</defs>
</svg>
