<svg width="20" height="20" viewBox="0 0 20 20" fill="none" xmlns="http://www.w3.org/2000/svg">
<path d="M18.9369 6.40013L13.2816 5.90938L11.0733 0.709827C10.676 -0.236609 9.32059 -0.236609 8.92333 0.709827L6.71497 5.92107L1.07141 6.40013C0.0431826 6.48192 -0.377456 7.7672 0.405399 8.4449L4.69357 12.1605L3.40829 17.6756C3.1746 18.6804 4.26125 19.475 5.14926 18.9375L9.99829 16.0164L14.8473 18.9492C15.7353 19.4867 16.822 18.6921 16.5883 17.6873L15.303 12.1605L19.5912 8.4449C20.374 7.7672 19.9651 6.48192 18.9369 6.40013ZM9.99829 13.8314L5.60496 16.4838L6.7734 11.4828L2.89418 8.11774L8.01194 7.67373L9.99829 2.96492L11.9963 7.68541L17.1141 8.12942L13.2349 11.4945L14.4033 16.4955L9.99829 13.8314Z" fill="#5CC280"/>
</svg>
