<svg width="24" height="25" viewBox="0 0 24 25" fill="none" xmlns="http://www.w3.org/2000/svg">
<path fill-rule="evenodd" clip-rule="evenodd" d="M16.5 4.97795V5.20495C17.799 5.32373 19.0927 5.49454 20.378 5.71695C20.475 5.73376 20.5678 5.76952 20.6511 5.82218C20.7343 5.87485 20.8063 5.9434 20.8631 6.02391C20.9198 6.10441 20.9601 6.19531 20.9817 6.2914C21.0033 6.38749 21.0058 6.4869 20.989 6.58395C20.9722 6.68099 20.9364 6.77378 20.8838 6.85701C20.8311 6.94023 20.7626 7.01227 20.682 7.06901C20.6015 7.12575 20.5106 7.16607 20.4145 7.18768C20.3185 7.20929 20.219 7.21176 20.122 7.19495L19.913 7.15995L18.908 20.2299C18.8501 20.9835 18.5098 21.6875 17.9553 22.201C17.4007 22.7146 16.6728 22.9999 15.917 22.9999H8.084C7.32819 22.9999 6.60025 22.7146 6.04573 22.201C5.4912 21.6875 5.15094 20.9835 5.093 20.2299L4.087 7.15995L3.878 7.19495C3.78095 7.21176 3.68154 7.20929 3.58545 7.18768C3.48936 7.16607 3.39846 7.12575 3.31796 7.06901C3.15536 6.95442 3.04495 6.77994 3.011 6.58395C2.97705 6.38795 3.02235 6.1865 3.13694 6.02391C3.25152 5.86131 3.426 5.7509 3.622 5.71695C4.90727 5.49427 6.20098 5.32347 7.5 5.20495V4.97795C7.5 3.41395 8.713 2.07795 10.316 2.02695C11.4387 1.99102 12.5623 1.99102 13.685 2.02695C15.288 2.07795 16.5 3.41395 16.5 4.97795ZM10.364 3.52595C11.4547 3.49106 12.5463 3.49106 13.637 3.52595C14.39 3.54995 15 4.18395 15 4.97795V5.09095C13.0018 4.96959 10.9982 4.96959 9 5.09095V4.97795C9 4.18395 9.609 3.54995 10.364 3.52595ZM10.009 9.47095C10.0052 9.37246 9.98202 9.27568 9.94081 9.18614C9.8996 9.09661 9.84116 9.01606 9.76882 8.94911C9.69649 8.88216 9.61167 8.83011 9.51922 8.79594C9.42677 8.76177 9.32849 8.74614 9.23 8.74995C9.13151 8.75376 9.03473 8.77693 8.94519 8.81814C8.85566 8.85935 8.77511 8.91779 8.70816 8.99012C8.64121 9.06246 8.58916 9.14728 8.55499 9.23973C8.52082 9.33218 8.50519 9.43046 8.509 9.52895L8.856 18.5289C8.86369 18.7277 8.95003 18.9153 9.09603 19.0504C9.16832 19.1173 9.25308 19.1693 9.34547 19.2035C9.43786 19.2376 9.53607 19.2533 9.6345 19.2494C9.73292 19.2456 9.82964 19.2225 9.91911 19.1813C10.0086 19.1401 10.0891 19.0817 10.156 19.0094C10.2229 18.9371 10.2749 18.8524 10.309 18.76C10.3432 18.6676 10.3588 18.5694 10.355 18.4709L10.009 9.47095ZM15.489 9.52895C15.4963 9.42857 15.4834 9.32773 15.4509 9.23246C15.4185 9.13719 15.3672 9.04942 15.3001 8.97439C15.233 8.89936 15.1515 8.8386 15.0604 8.79574C14.9693 8.75287 14.8706 8.72877 14.77 8.72488C14.6694 8.72098 14.5691 8.73737 14.475 8.77307C14.3809 8.80877 14.2949 8.86304 14.2222 8.93266C14.1495 9.00227 14.0916 9.08581 14.0519 9.17829C14.0122 9.27077 13.9915 9.3703 13.991 9.47095L13.644 18.4709C13.6363 18.6699 13.7079 18.8637 13.8432 19.0098C13.9784 19.1559 14.1661 19.2423 14.365 19.2499C14.5639 19.2576 14.7577 19.186 14.9038 19.0508C15.0499 18.9156 15.1363 18.7279 15.144 18.5289L15.489 9.52895Z" fill="white"/>
</svg>
