<svg width="68" height="90" viewBox="0 0 68 90" fill="none" xmlns="http://www.w3.org/2000/svg">
<g clip-path="url(#clip0_1791_1848)">
<path d="M33.9293 77.9584C32.5731 81.5684 31.238 85.1117 29.9139 88.6586C29.4417 89.9214 28.1514 90.3808 27.0277 89.6359C23.7636 87.4735 20.504 85.3029 17.2554 83.1168C16.883 82.866 16.6066 82.8386 16.1994 83.0436C11.7384 85.2938 7.26724 87.5229 2.79794 89.7576C2.01096 90.1511 1.24595 90.0623 0.632837 89.5142C0.042604 88.9852 -0.157801 88.2193 0.160651 87.4305C1.05927 85.2004 1.98076 82.9795 2.89494 80.7558C4.87977 75.9278 6.86643 71.1007 8.85126 66.2727C10.1717 63.0626 11.4913 59.8524 12.8099 56.6423C13.1549 55.8022 12.9774 55.1397 12.1502 54.7206C11.397 54.339 10.5707 54.102 9.78008 53.7955C8.64811 53.3562 7.46032 53.0204 6.40156 52.4466C4.23555 51.2716 3.62701 49.3024 3.96468 47.0046C4.18156 45.5322 4.50916 44.0754 4.78368 42.6112C4.92186 41.8782 4.76172 41.2139 4.27032 40.6502C3.4202 39.6738 2.54446 38.7184 1.70166 37.7347C1.00253 36.9194 0.432432 36.0217 0.162481 34.9629C-0.243819 33.3716 0.135028 31.9211 1.09038 30.6492C1.86546 29.616 2.70369 28.6149 3.62427 27.7117C4.79924 26.5596 4.98592 25.2794 4.61622 23.7448C4.28313 22.3612 4.00586 20.9437 3.91618 19.5272C3.778 17.3511 4.87428 15.7872 6.80329 14.862C7.78426 14.3917 8.8476 14.0906 9.87799 13.7228C10.4499 13.5178 11.031 13.3384 11.6048 13.1371C12.5857 12.7939 13.0167 11.9868 13.3196 11.0763C13.7278 9.85101 14.0801 8.60283 14.5559 7.40406C15.2715 5.60133 16.4904 4.29916 18.5027 3.97888C19.6621 3.79403 20.8087 3.98345 21.9471 4.23053C22.9711 4.45289 24.0015 4.65055 25.0328 4.83906C25.7969 4.97816 26.4429 4.69265 27.0039 4.19667C27.8147 3.48015 28.5852 2.71422 29.4298 2.04072C30.1399 1.47519 30.8885 0.926137 31.6956 0.521668C33.275 -0.2708 34.902 -0.148178 36.3506 0.815411C37.4972 1.57768 38.5047 2.54768 39.5727 3.42708C39.7136 3.54329 39.8554 3.66226 39.978 3.79677C40.981 4.89671 42.199 5.03215 43.5743 4.67984C44.6633 4.40165 45.7715 4.18935 46.8787 3.99077C49.6798 3.48839 52.006 4.84638 52.9677 7.54041C53.3814 8.69891 53.7822 9.86382 54.14 11.0415C54.4895 12.1936 55.1548 12.9587 56.3453 13.3165C57.7125 13.7264 59.0613 14.2068 60.391 14.7257C61.4012 15.1201 62.2422 15.7817 62.837 16.7133C63.5343 17.8059 63.7191 19.0184 63.5325 20.2693C63.3394 21.5605 63.0877 22.8462 62.7912 24.1182C62.4856 25.4258 62.7116 26.5194 63.6761 27.5104C64.6306 28.4905 65.5511 29.5209 66.3592 30.6226C67.8462 32.6496 67.848 34.8732 66.3793 36.8992C65.6582 37.8939 64.8538 38.8511 63.9635 39.6958C62.6796 40.9147 62.4298 42.2864 62.8855 43.9317C63.1811 44.9978 63.3833 46.0977 63.527 47.1958C63.8701 49.8221 62.869 51.6999 60.4596 52.7733C59.1034 53.3773 57.6557 53.7735 56.2529 54.2713C55.5712 54.5129 54.9242 54.7938 54.5701 55.5067C54.4209 55.8077 54.4008 56.0576 54.528 56.365C55.788 59.4013 57.0399 62.4421 58.2899 65.4821C59.4649 68.3399 60.6316 71.2005 61.8084 74.0574C63.1646 77.3508 64.5299 80.6405 65.887 83.9339C66.3793 85.13 66.8963 86.3168 67.3365 87.5321C67.7666 88.7189 66.964 89.9086 65.7095 89.9827C65.3764 90.0028 65.0012 89.9168 64.701 89.7676C61.3005 88.0839 57.9111 86.3782 54.5179 84.6788C53.4015 84.1197 52.2768 83.5743 51.1696 82.9969C50.8438 82.8267 50.6123 82.8551 50.3103 83.0582C47.0462 85.2498 43.7565 87.4031 40.5097 89.6203C39.4208 90.3634 37.9301 89.8921 37.4917 88.5167C36.3872 85.0531 35.2132 81.6115 34.0647 78.1625C34.0473 78.1094 34.0007 78.0646 33.9302 77.9612L33.9293 77.9584ZM47.7719 59.9339C48.5652 60.0034 49.0557 59.6337 49.3266 58.9474C49.6112 58.2263 49.8638 57.4915 50.1154 56.7585C50.3186 56.1692 50.497 55.5726 50.691 54.9796C51.4469 52.6726 53.0757 51.2991 55.3461 50.5926C56.478 50.2403 57.61 49.8816 58.7191 49.4662C59.6982 49.0992 59.9462 48.6691 59.7852 47.6296C59.6223 46.5791 59.3798 45.5413 59.1647 44.4991C58.9387 43.4046 58.806 42.3019 58.9442 41.1873C59.1025 39.9145 59.7486 38.8685 60.5666 37.9223C61.3728 36.988 62.2403 36.1059 63.0163 35.1478C63.9516 33.9938 63.9433 33.5308 62.9935 32.3796C62.1406 31.3465 61.209 30.3783 60.3379 29.3589C59.0815 27.8883 58.6569 26.1726 58.9753 24.282C59.1849 23.0393 59.4576 21.8067 59.7101 20.5713C60.0496 18.9122 59.8254 18.4721 58.257 17.9093C57.3428 17.5817 56.4076 17.3108 55.4852 17.0043C53.8819 16.4708 52.3382 15.7835 51.5036 14.2215C50.928 13.1453 50.573 11.9502 50.1255 10.8054C49.7988 9.9718 49.5261 9.11253 49.1381 8.30908C49.0036 8.0309 48.6192 7.7948 48.3017 7.70604C47.9686 7.6127 47.5724 7.67584 47.2173 7.74356C45.9325 7.98697 44.6587 8.28712 43.3712 8.51589C41.563 8.83617 39.8655 8.53786 38.4151 7.35739C37.317 6.46335 36.2911 5.48145 35.2077 4.57003C33.9979 3.55245 33.4269 3.57075 32.2071 4.58375C32.1604 4.6231 32.1165 4.66519 32.0708 4.70546C31.2911 5.41099 30.5087 6.11378 29.7309 6.82206C27.994 8.40334 25.9863 8.96063 23.683 8.45458C22.5108 8.19653 21.3413 7.90644 20.1563 7.73532C18.8038 7.54041 18.5494 7.62826 18.0369 8.8197C17.6837 9.64054 17.487 10.5273 17.1639 11.3627C16.7759 12.3666 16.4181 13.3988 15.8846 14.3267C15.0199 15.832 13.5036 16.4882 11.9324 17.0134C10.8516 17.3749 9.75811 17.7034 8.69753 18.1161C7.73394 18.4913 7.53445 18.9095 7.65066 19.9298C7.66439 20.0506 7.67903 20.1723 7.70374 20.2913C7.94715 21.4818 8.20795 22.6696 8.43489 23.8638C8.8293 25.9401 8.44954 27.8325 7.03481 29.4586C6.5251 30.0443 5.98428 30.6052 5.4819 31.1973C4.97036 31.7994 4.47255 32.4153 3.99945 33.0476C3.66636 33.4933 3.64257 33.9975 3.97932 34.4532C4.44876 35.0874 4.94108 35.7069 5.44896 36.3108C6.05657 37.0338 6.71544 37.7137 7.3075 38.4476C8.71125 40.1881 8.77714 42.1802 8.33606 44.2575C8.10272 45.3574 7.85564 46.4555 7.66439 47.5637C7.4832 48.6179 7.73668 49.0471 8.71583 49.457C9.19167 49.6565 9.68765 49.8075 10.1754 49.9759C11.1664 50.319 12.173 50.6247 13.1476 51.0099C14.5751 51.5745 15.6897 52.5207 16.3047 53.9565C16.6698 54.8075 16.9599 55.6897 17.2728 56.5627C17.5446 57.3213 17.7587 58.1028 18.0754 58.8422C18.4743 59.7756 18.7882 59.9833 19.7747 59.846C21.021 59.6713 22.2592 59.4178 23.4881 59.1396C25.7338 58.6317 27.7561 59.0069 29.5085 60.5516C30.16 61.1262 30.7896 61.7247 31.4439 62.2966C31.8786 62.6764 32.3224 63.0516 32.7918 63.3856C33.4992 63.8889 33.9805 63.92 34.6659 63.3728C35.6771 62.5666 36.594 61.6414 37.6125 60.8471C38.362 60.2624 39.1636 59.7024 40.0238 59.3134C41.4651 58.661 42.9795 58.9209 44.4693 59.2393C45.5683 59.4745 46.6673 59.7051 47.7664 59.9375L47.7719 59.9339ZM34.4271 67.4019C36.4138 73.3637 38.3803 79.2633 40.3578 85.1977C43.3099 83.2293 46.2153 81.3269 49.0777 79.3622C50.0321 78.707 50.8832 78.6337 51.9181 79.1672C55.1109 80.8144 58.3357 82.3993 61.5485 84.0072C61.6346 84.0502 61.7279 84.0794 61.9201 84.1554C58.7374 76.4201 55.594 68.7828 52.4855 61.2278C51.9126 61.7851 51.4157 62.3973 50.799 62.842C49.5737 63.726 48.1434 63.7617 46.7186 63.5274C45.3844 63.3078 44.0676 62.9894 42.7398 62.7295C42.0251 62.5895 41.336 62.6554 40.7504 63.1413C40.1766 63.618 39.6001 64.0939 39.0547 64.6018C37.7205 65.8454 36.3543 67.0295 34.4271 67.4019ZM5.5368 84.1627C5.7308 84.0804 5.82506 84.0465 5.91474 84.0017C9.24017 82.3417 12.5674 80.6863 15.8874 79.0163C16.6643 78.6255 17.368 78.6923 18.0809 79.1709C20.3576 80.7009 22.6444 82.2154 24.9266 83.7363C25.6688 84.2304 26.41 84.7255 27.1842 85.2416C27.5246 84.3402 27.8421 83.5039 28.1569 82.6647C29.4188 79.3018 30.6826 75.9388 31.9317 72.5713C32.0076 72.3672 32.0268 72.0973 31.9619 71.8932C31.4558 70.3147 30.9269 68.7425 30.3961 67.1722C30.2516 66.744 30.1866 66.2151 29.8947 65.9241C28.9787 65.0117 27.9757 64.1854 26.9966 63.3371C26.4338 62.8503 25.7896 62.5666 25.0218 62.6846C24.6604 62.7405 24.3016 62.8128 23.942 62.8768C22.5657 63.1248 21.1986 63.4634 19.8122 63.5979C17.8503 63.7873 16.2699 63.0305 15.1983 61.3248C15.1571 61.2589 15.0958 61.2049 15.0199 61.1189C11.8601 68.7974 8.71766 76.433 5.53772 84.1609L5.5368 84.1627Z" fill="white"/>
<path d="M33.6906 56.2616C21.1887 56.2259 11.1474 46.1013 11.2508 33.5161C11.3515 21.2182 21.4394 11.241 33.7904 11.284C46.2539 11.3279 56.3199 21.4598 56.2183 33.959C56.1176 46.3932 45.9885 56.289 33.6906 56.2616ZM52.4609 33.7714C52.4866 23.8198 44.5354 15.2747 34.1537 15.0368C23.793 14.7997 15.1701 23.0886 14.9981 33.387C14.8251 43.7321 22.8816 52.0723 32.9201 52.495C43.7456 52.9508 52.4719 44.2748 52.4609 33.7705V33.7714Z" fill="white"/>
</g>
<defs>
<clipPath id="clip0_1791_1848">
<rect width="67.476" height="90" fill="white"/>
</clipPath>
</defs>
</svg>
