<svg width="49" height="15" viewBox="0 0 49 15" fill="none" xmlns="http://www.w3.org/2000/svg">
<g clip-path="url(#clip0_864_16543)">
<path d="M25.3416 4.77615C25.3137 6.85735 27.306 8.01868 28.8068 8.70922C30.3488 9.41765 30.8667 9.87199 30.8606 10.5056C30.8491 11.4752 29.6306 11.9031 28.4904 11.9198C26.5012 11.9489 25.3445 11.4127 24.425 11.0071L23.7083 14.1732C24.6309 14.5746 26.3392 14.9246 28.1107 14.94C32.269 14.94 34.9894 13.0019 35.0042 9.99705C35.0205 6.18344 29.4174 5.97235 29.4557 4.26777C29.4689 3.75091 29.9913 3.19934 31.1359 3.0591C31.7024 2.98826 33.2664 2.93404 35.0396 3.705L35.7355 0.64175C34.782 0.313919 33.5564 2.86102e-06 32.0305 2.86102e-06C28.1166 2.86102e-06 25.3638 1.96446 25.3416 4.77615ZM42.4229 0.263858C41.6636 0.263858 41.0237 0.68205 40.7381 1.3238L34.7982 14.715H38.9535L39.7803 12.5574H44.858L45.3376 14.715H49L45.8041 0.263858H42.4229ZM43.0042 4.16765L44.2034 9.59422H40.9192L43.0042 4.16765ZM20.3036 0.264038L17.0283 14.7148H20.9879L24.2617 0.263678L20.3036 0.264038ZM14.446 0.264038L10.3246 10.0999L8.6575 1.73657C8.46188 0.802955 7.68936 0.263858 6.83148 0.263858H0.0943633L0 0.683496C1.3831 0.966869 2.95455 1.42392 3.9066 1.91295C4.48924 2.21169 4.65538 2.47283 4.84679 3.18271L8.00442 14.715H12.1888L18.6039 0.263858L14.446 0.264038Z" fill="white"/>
</g>
<defs>
<clipPath id="clip0_864_16543">
<rect width="49" height="15" fill="white"/>
</clipPath>
</defs>
</svg>
