<svg width="32" height="36" viewBox="0 0 32 36" fill="none" xmlns="http://www.w3.org/2000/svg">
<g clip-path="url(#clip0_874_17576)">
<path d="M25.2864 0C25.78 0.16908 25.9509 0.517808 25.9424 1.02646C25.9211 2.24313 25.9353 3.46051 25.9353 4.711C26.0793 4.71804 26.2034 4.72861 26.3282 4.72861C27.6267 4.73002 28.926 4.72861 30.2246 4.73002C31.0288 4.73072 31.3274 5.00971 31.304 5.80297C31.2437 7.85237 30.5529 9.67702 29.2615 11.2762C28.3466 12.4091 27.2168 13.2658 25.8856 13.8702C25.7551 13.9294 25.6388 14.1147 25.5991 14.2633C25.2197 15.6688 24.5694 16.9334 23.6431 18.0592C22.3042 19.6859 20.6248 20.8152 18.6 21.4239C18.3659 21.4943 18.2872 21.5711 18.2943 21.8233C18.3425 23.5846 19.3397 24.9281 21.0389 25.486C21.8091 25.7389 21.9375 25.9144 21.9382 26.721C21.9382 27.3283 21.9375 27.9356 21.9368 28.5429C21.9368 28.6006 21.9368 28.6584 21.9368 28.7584C22.6049 28.7584 23.2609 28.7584 23.9162 28.7584C24.7041 28.7584 25.0027 29.0529 25.0027 29.8314C25.0027 31.5539 25.0034 33.2764 25.0027 34.9989C25.0027 35.6907 24.6942 35.9986 23.9921 35.9986C18.4546 36 12.9171 36 7.37963 35.9986C6.68815 35.9986 6.37326 35.6823 6.37255 34.9919C6.37043 33.2461 6.37043 31.4996 6.37255 29.7539C6.37326 29.0931 6.70659 28.762 7.36899 28.7591C8.05124 28.7563 8.73421 28.7591 9.45831 28.7591C9.45831 28.1822 9.45831 27.6341 9.45831 27.0859C9.45831 26.9098 9.45689 26.7344 9.45831 26.5583C9.46327 25.9052 9.60299 25.7086 10.2306 25.5262C10.9108 25.3289 11.5029 24.9971 11.9958 24.4863C12.7809 23.6733 13.1043 22.6941 13.0937 21.5859C12.4987 21.3569 11.8937 21.1695 11.3299 20.8997C8.4718 19.5323 6.58177 17.3427 5.72505 14.2978C5.65767 14.0583 5.5364 13.9153 5.30094 13.8012C2.45774 12.4204 0.727275 10.185 0.138634 7.09503C0.0535297 6.65049 0.0159418 6.19256 0.00175764 5.73957C-0.0202277 5.04493 0.298206 4.73495 1.00316 4.73143C2.31377 4.72579 3.62438 4.73002 4.93499 4.73002C5.06336 4.73002 5.19102 4.73002 5.36832 4.73002C5.36832 4.08188 5.36832 3.46544 5.36832 2.84971C5.36832 2.21777 5.38038 1.58513 5.36335 0.95319C5.35059 0.467789 5.552 0.151468 6.01724 0L25.2864 0ZM6.96758 1.63444V2.24384C6.96758 5.26755 6.96403 8.29127 6.96971 11.3143C6.97183 12.3802 7.07041 13.4398 7.45693 14.4437C8.66967 17.5956 10.9257 19.5316 14.2958 20.1184C16.5596 20.5123 18.6631 20.0276 20.5311 18.7348C23.0609 16.9841 24.3133 14.5317 24.314 11.4622C24.3148 8.311 24.314 5.15977 24.314 2.00853V1.63374H6.96758V1.63444ZM23.358 30.3992H8.02855V34.3641H23.358V30.3992ZM20.3042 27.167H11.0973V28.7359H20.3042V27.167ZM5.34208 11.9512V6.36517H1.70101C1.79463 8.6393 3.59247 11.1473 5.34137 11.9519L5.34208 11.9512ZM25.9459 11.9941C28.0984 10.8585 29.6168 8.1546 29.5735 6.36376H25.9459V11.9941ZM18.1305 25.5241C17.1376 24.4525 16.705 23.2034 16.6482 21.8367H14.7206C14.6837 23.2154 14.2235 24.4434 13.2745 25.5241H18.1298H18.1305Z" fill="#373737"/>
<path d="M18.1096 14.624C18.0521 14.6029 17.894 14.5627 17.7514 14.4909C17.1443 14.1837 16.5366 13.878 15.9415 13.549C15.7515 13.444 15.6139 13.4496 15.4288 13.5518C14.8756 13.8582 14.3104 14.1429 13.7508 14.4381C13.4189 14.6128 13.0856 14.7424 12.7274 14.5015C12.3764 14.2654 12.3175 13.9343 12.3884 13.5462C12.5061 12.9044 12.604 12.259 12.7253 11.6179C12.7664 11.4009 12.7253 11.2495 12.5544 11.0938C12.0671 10.6521 11.5976 10.1906 11.1232 9.7348C10.8501 9.47202 10.7118 9.16416 10.8409 8.78513C10.9615 8.43218 11.253 8.28705 11.5934 8.23492C12.2664 8.13136 12.9395 8.02709 13.616 7.95594C13.8267 7.9341 13.9281 7.85378 14.0111 7.68048C14.299 7.08024 14.5997 6.48564 14.8876 5.88541C15.0529 5.54161 15.3025 5.30419 15.6961 5.30772C16.0734 5.31124 16.3153 5.54091 16.4756 5.87273C16.7713 6.48282 17.0677 7.09222 17.3883 7.68964C17.45 7.80517 17.6145 7.91437 17.7472 7.93692C18.4301 8.05316 19.1195 8.13065 19.8032 8.24055C20.1556 8.29691 20.4372 8.45754 20.5521 8.83727C20.6634 9.20643 20.5117 9.47625 20.2663 9.71648C19.779 10.1927 19.2741 10.6521 18.7996 11.1403C18.6989 11.2438 18.6358 11.4481 18.6564 11.5919C18.7571 12.2943 18.8975 12.991 19.0124 13.692C19.0947 14.1936 18.7159 14.6269 18.1082 14.624H18.1096ZM15.6933 7.94044C15.5316 8.25394 15.3621 8.53151 15.2401 8.82881C15.0564 9.27758 14.7111 9.45018 14.2557 9.49386C13.9714 9.52063 13.6891 9.57488 13.3607 9.62419C13.6529 9.91656 13.8919 10.173 14.1501 10.4097C14.4316 10.6683 14.4947 10.9747 14.4224 11.3319C14.3557 11.6602 14.3018 11.9913 14.2345 12.3605C14.5784 12.1815 14.8905 12.0258 15.1969 11.8589C15.521 11.6827 15.8359 11.6722 16.1642 11.8546C16.4727 12.0258 16.7919 12.1773 17.1451 12.357C17.0933 12.0871 17.0663 11.868 17.0068 11.6574C16.8344 11.0438 16.9436 10.533 17.4947 10.1476C17.6819 10.0166 17.8422 9.84752 18.0145 9.69535C17.6741 9.56783 17.3869 9.51922 17.0968 9.49104C16.6536 9.44807 16.3181 9.27124 16.138 8.83938C16.0132 8.53997 15.8508 8.25605 15.6926 7.93973L15.6933 7.94044Z" fill="#373737"/>
<path d="M15.6756 33.1869C14.8855 33.1869 14.0962 33.1897 13.3061 33.1862C12.743 33.1841 12.3912 32.8769 12.3863 32.3929C12.3813 31.9089 12.7232 31.5771 13.2806 31.5743C14.8834 31.5651 16.4869 31.5658 18.0904 31.5743C18.6493 31.5771 19.0003 31.9096 18.9989 32.3873C18.9968 32.8642 18.6358 33.1834 18.0812 33.1862C17.2798 33.1904 16.4777 33.1876 15.6763 33.1876L15.6756 33.1869Z" fill="#373737"/>
</g>
<defs>
<clipPath id="clip0_874_17576">
<rect width="31.3043" height="36" fill="white"/>
</clipPath>
</defs>
</svg>
